<?xml version="1.0" encoding="utf-8"?>
<!-- Generator: Adobe Illustrator 23.0.1, SVG Export Plug-In . SVG Version: 6.00 Build 0)  -->
<!DOCTYPE svg PUBLIC "-//W3C//DTD SVG 1.1//EN" "http://www.w3.org/Graphics/SVG/1.1/DTD/svg11.dtd" [
	<!ENTITY ns_flows "http://ns.adobe.com/Flows/1.0/">
	<!ENTITY ns_extend "http://ns.adobe.com/Extensibility/1.0/">
	<!ENTITY ns_ai "http://ns.adobe.com/AdobeIllustrator/10.0/">
	<!ENTITY ns_graphs "http://ns.adobe.com/Graphs/1.0/">
	<!ENTITY ns_vars "http://ns.adobe.com/Variables/1.0/">
	<!ENTITY ns_imrep "http://ns.adobe.com/ImageReplacement/1.0/">
	<!ENTITY ns_sfw "http://ns.adobe.com/SaveForWeb/1.0/">
	<!ENTITY ns_custom "http://ns.adobe.com/GenericCustomNamespace/1.0/">
	<!ENTITY ns_adobe_xpath "http://ns.adobe.com/XPath/1.0/">
]>
<svg version="1.1" xmlns:x="&ns_extend;" xmlns:i="&ns_ai;" xmlns:graph="&ns_graphs;"
	 xmlns="http://www.w3.org/2000/svg" xmlns:xlink="http://www.w3.org/1999/xlink" xmlns:a="http://ns.adobe.com/AdobeSVGViewerExtensions/3.0/"
	 x="0px" y="0px" viewBox="0 0 1500 750" enable-background="new 0 0 1500 750" xml:space="preserve">
<metadata>
	<sfw  xmlns="&ns_sfw;">
		<slices></slices>
		<sliceSourceBounds  bottomLeftOrigin="true" height="6857.822" width="3410" x="-1190" y="-1728"></sliceSourceBounds>
	</sfw>
</metadata>
<g id="FILL-BACKGROUND">
	<rect fill="#FFFFFF" width="1500" height="750"/>
</g>
<g id="N-DIMENSIONS">
	<g>
		<g id="POLYLINE_627_">

				<line fill="none" stroke="#E74C3C" stroke-width="2" stroke-linecap="round" stroke-linejoin="round" stroke-miterlimit="10" x1="543.751" y1="409.754" x2="479" y2="409.754"/>
		</g>
		<g id="LINE_55_">

				<line fill="none" stroke="#E74C3C" stroke-width="2" stroke-linecap="round" stroke-linejoin="round" stroke-miterlimit="10" x1="382" y1="409.754" x2="324.75" y2="409.754"/>
		</g>
		<g id="POLYLINE_626_">

				<polyline fill="none" stroke="#E74C3C" stroke-width="2" stroke-linecap="round" stroke-linejoin="round" stroke-miterlimit="10" points="
				331.379,416.382 324.75,409.754 331.379,403.126 			"/>
		</g>
		<g id="POLYLINE_625_">

				<polyline fill="none" stroke="#E74C3C" stroke-width="2" stroke-linecap="round" stroke-linejoin="round" stroke-miterlimit="10" points="
				537.124,403.126 543.751,409.754 537.124,416.382 			"/>
		</g>
		<g id="MTEXT_122_">
			<g>
				<g>
					<g>
						<path fill="#E74C3C" d="M394.019,415.744c-0.734-0.36-1.293-0.83-1.68-1.41s-0.593-1.203-0.62-1.87v-0.04
							c0-0.106,0.04-0.193,0.12-0.26s0.173-0.1,0.28-0.1h0.98c0.28,0,0.46,0.146,0.54,0.439c0.2,0.72,0.57,1.257,1.11,1.61
							s1.163,0.529,1.87,0.529c0.907,0,1.66-0.276,2.26-0.829c0.6-0.554,0.9-1.317,0.9-2.29c0-0.894-0.3-1.604-0.9-2.131
							c-0.6-0.526-1.354-0.79-2.26-0.79c-0.48,0-0.867,0.061-1.16,0.181c-0.293,0.12-0.594,0.293-0.9,0.52
							c-0.173,0.134-0.316,0.23-0.43,0.29c-0.113,0.061-0.237,0.09-0.37,0.09h-0.96c-0.12,0-0.227-0.043-0.32-0.13
							c-0.094-0.086-0.134-0.189-0.12-0.31l0.62-6.66c0.04-0.333,0.207-0.5,0.5-0.5h6.92c0.146,0,0.26,0.04,0.34,0.12
							s0.12,0.193,0.12,0.34v0.74c0,0.133-0.043,0.24-0.13,0.319c-0.087,0.08-0.197,0.12-0.33,0.12h-5.76l-0.36,4.021
							c0.64-0.453,1.5-0.68,2.58-0.68c0.893,0,1.707,0.177,2.44,0.529c0.733,0.354,1.316,0.87,1.75,1.55
							c0.433,0.681,0.65,1.487,0.65,2.421c0,0.986-0.217,1.836-0.65,2.55c-0.434,0.713-1.033,1.253-1.8,1.62
							c-0.767,0.366-1.644,0.55-2.63,0.55C395.619,416.284,394.752,416.104,394.019,415.744z"/>
						<path fill="#E74C3C" d="M403.849,405.564c-0.06-0.08-0.077-0.181-0.05-0.301l0.44-2.8c0.053-0.387,0.24-0.58,0.56-0.58h1.28
							c0.093,0,0.17,0.033,0.23,0.101c0.06,0.066,0.09,0.146,0.09,0.239c0,0.134-0.02,0.24-0.06,0.32l-1.04,2.7
							c-0.067,0.146-0.14,0.257-0.22,0.33s-0.2,0.109-0.36,0.109h-0.62C403.992,405.684,403.909,405.644,403.849,405.564z
							 M406.989,405.564c-0.06-0.08-0.077-0.181-0.05-0.301l0.44-2.8c0.053-0.387,0.24-0.58,0.56-0.58h1.28
							c0.093,0,0.17,0.033,0.23,0.101c0.06,0.066,0.09,0.146,0.09,0.239c0,0.134-0.02,0.24-0.06,0.32l-1.04,2.7
							c-0.067,0.146-0.14,0.257-0.22,0.33s-0.2,0.109-0.36,0.109h-0.62C407.132,405.684,407.049,405.644,406.989,405.564z"/>
						<path fill="#E74C3C" d="M410.289,410.764c-0.086-0.08-0.13-0.187-0.13-0.319v-0.721c0-0.133,0.043-0.243,0.13-0.33
							c0.087-0.086,0.197-0.13,0.33-0.13h6c0.133,0,0.243,0.044,0.33,0.13c0.086,0.087,0.13,0.197,0.13,0.33v0.721
							c0,0.133-0.043,0.239-0.13,0.319c-0.087,0.08-0.197,0.12-0.33,0.12h-6C410.485,410.884,410.375,410.844,410.289,410.764z"/>
						<path fill="#E74C3C" d="M421.499,415.744c-0.734-0.36-1.293-0.83-1.68-1.41s-0.593-1.203-0.62-1.87v-0.04
							c0-0.106,0.04-0.193,0.12-0.26s0.173-0.1,0.28-0.1h0.98c0.28,0,0.46,0.146,0.54,0.439c0.2,0.72,0.57,1.257,1.11,1.61
							s1.163,0.529,1.87,0.529c0.907,0,1.66-0.276,2.26-0.829c0.6-0.554,0.9-1.317,0.9-2.29c0-0.894-0.3-1.604-0.9-2.131
							c-0.6-0.526-1.354-0.79-2.26-0.79c-0.48,0-0.867,0.061-1.16,0.181c-0.293,0.12-0.594,0.293-0.9,0.52
							c-0.173,0.134-0.316,0.23-0.43,0.29c-0.113,0.061-0.237,0.09-0.37,0.09h-0.96c-0.12,0-0.227-0.043-0.32-0.13
							c-0.094-0.086-0.134-0.189-0.12-0.31l0.62-6.66c0.04-0.333,0.207-0.5,0.5-0.5h6.92c0.146,0,0.26,0.04,0.34,0.12
							s0.12,0.193,0.12,0.34v0.74c0,0.133-0.043,0.24-0.13,0.319c-0.087,0.08-0.197,0.12-0.33,0.12h-5.76l-0.36,4.021
							c0.64-0.453,1.5-0.68,2.58-0.68c0.893,0,1.707,0.177,2.44,0.529c0.733,0.354,1.316,0.87,1.75,1.55
							c0.433,0.681,0.65,1.487,0.65,2.421c0,0.986-0.217,1.836-0.65,2.55c-0.434,0.713-1.033,1.253-1.8,1.62
							c-0.767,0.366-1.644,0.55-2.63,0.55C423.099,416.284,422.232,416.104,421.499,415.744z"/>
						<path fill="#E74C3C" d="M440.239,415.954c-0.08-0.087-0.12-0.196-0.12-0.33v-11.28l-3.36,2.58
							c-0.094,0.08-0.194,0.12-0.3,0.12c-0.12,0-0.233-0.066-0.34-0.2l-0.48-0.62c-0.067-0.093-0.1-0.187-0.1-0.279
							c0-0.146,0.066-0.267,0.2-0.36l4.34-3.36c0.146-0.093,0.32-0.14,0.52-0.14h0.94c0.133,0,0.243,0.043,0.33,0.13
							c0.086,0.087,0.13,0.197,0.13,0.33v13.08c0,0.134-0.043,0.243-0.13,0.33c-0.087,0.087-0.197,0.13-0.33,0.13h-0.98
							C440.425,416.084,440.318,416.041,440.239,415.954z"/>
						<path fill="#E74C3C" d="M444.178,417.644c-0.08-0.079-0.12-0.173-0.12-0.279c0-0.054,0.02-0.134,0.06-0.24l6.84-16.42
							c0.12-0.227,0.293-0.34,0.52-0.34h0.74c0.106,0,0.2,0.04,0.28,0.12s0.12,0.173,0.12,0.279c0,0.054-0.02,0.134-0.06,0.24
							l-6.86,16.42c-0.027,0.08-0.083,0.156-0.17,0.23c-0.087,0.073-0.204,0.109-0.35,0.109h-0.72
							C444.351,417.764,444.258,417.724,444.178,417.644z"/>
						<path fill="#E74C3C" d="M459.708,415.954c-0.087-0.087-0.13-0.196-0.13-0.33v-2.92h-6.5c-0.133,0-0.244-0.043-0.33-0.13
							c-0.087-0.087-0.13-0.197-0.13-0.33v-0.74c0-0.187,0.073-0.387,0.22-0.6l6.02-8.48c0.067-0.106,0.167-0.189,0.3-0.25
							c0.133-0.06,0.28-0.09,0.44-0.09h1.36c0.146,0,0.26,0.04,0.34,0.12c0.08,0.08,0.12,0.193,0.12,0.34v8.48h1.82
							c0.133,0,0.243,0.043,0.33,0.13s0.13,0.196,0.13,0.33v0.76c0,0.133-0.043,0.243-0.13,0.33s-0.197,0.13-0.33,0.13h-1.82v2.92
							c0,0.134-0.043,0.243-0.13,0.33c-0.087,0.087-0.197,0.13-0.33,0.13h-0.92C459.905,416.084,459.794,416.041,459.708,415.954z
							 M454.698,411.064h4.9v-6.961L454.698,411.064z"/>
						<path fill="#E74C3C" d="M465.568,405.564c-0.06-0.08-0.077-0.181-0.05-0.301l0.44-2.8c0.053-0.387,0.24-0.58,0.56-0.58h1.28
							c0.093,0,0.17,0.033,0.23,0.101c0.06,0.066,0.09,0.146,0.09,0.239c0,0.134-0.02,0.24-0.06,0.32l-1.04,2.7
							c-0.067,0.146-0.14,0.257-0.22,0.33s-0.2,0.109-0.36,0.109h-0.62C465.711,405.684,465.628,405.644,465.568,405.564z
							 M468.708,405.564c-0.06-0.08-0.077-0.181-0.05-0.301l0.44-2.8c0.053-0.387,0.24-0.58,0.56-0.58h1.28
							c0.093,0,0.17,0.033,0.23,0.101c0.06,0.066,0.09,0.146,0.09,0.239c0,0.134-0.02,0.24-0.06,0.32l-1.04,2.7
							c-0.067,0.146-0.14,0.257-0.22,0.33s-0.2,0.109-0.36,0.109h-0.62C468.851,405.684,468.768,405.644,468.708,405.564z"/>
						<path fill="#E74C3C" d="M379.559,437.554c-0.08-0.087-0.12-0.196-0.12-0.33v-11.28l-3.36,2.58
							c-0.094,0.08-0.194,0.12-0.3,0.12c-0.12,0-0.233-0.066-0.34-0.2l-0.48-0.62c-0.067-0.093-0.1-0.187-0.1-0.279
							c0-0.146,0.066-0.267,0.2-0.36l4.34-3.36c0.146-0.093,0.32-0.14,0.52-0.14h0.94c0.133,0,0.243,0.043,0.33,0.13
							c0.086,0.087,0.13,0.197,0.13,0.33v13.08c0,0.134-0.043,0.243-0.13,0.33c-0.087,0.087-0.197,0.13-0.33,0.13h-0.98
							C379.746,437.684,379.639,437.641,379.559,437.554z"/>
						<path fill="#E74C3C" d="M383.969,437.554c-0.087-0.087-0.13-0.196-0.13-0.33v-0.6c0-0.307,0.167-0.601,0.5-0.881l4.36-4.34
							c0.987-0.84,1.667-1.526,2.04-2.06c0.373-0.533,0.56-1.101,0.56-1.7c0-0.786-0.22-1.403-0.66-1.85
							c-0.44-0.447-1.08-0.67-1.92-0.67c-0.8,0-1.433,0.233-1.9,0.699c-0.467,0.467-0.753,1.094-0.86,1.88
							c-0.027,0.147-0.094,0.261-0.2,0.341c-0.107,0.08-0.213,0.12-0.32,0.12h-0.96c-0.12,0-0.22-0.04-0.3-0.12
							c-0.08-0.08-0.12-0.174-0.12-0.28c0.026-0.707,0.216-1.39,0.57-2.05c0.353-0.66,0.876-1.2,1.57-1.62s1.533-0.63,2.52-0.63
							c1.493,0,2.617,0.39,3.37,1.17c0.753,0.78,1.13,1.77,1.13,2.97c0,0.84-0.203,1.597-0.61,2.271
							c-0.407,0.673-1.043,1.383-1.91,2.13l-3.94,4h6.3c0.146,0,0.26,0.04,0.34,0.12c0.08,0.079,0.12,0.193,0.12,0.34v0.76
							c0,0.134-0.043,0.243-0.13,0.33c-0.086,0.087-0.197,0.13-0.33,0.13h-8.76C384.166,437.684,384.056,437.641,383.969,437.554z"
							/>
						<path fill="#E74C3C" d="M396.029,437.554c-0.087-0.087-0.13-0.196-0.13-0.33v-1.38c0-0.133,0.043-0.247,0.13-0.34
							c0.086-0.094,0.196-0.141,0.33-0.141h1.38c0.133,0,0.243,0.047,0.33,0.141c0.087,0.093,0.13,0.207,0.13,0.34v1.38
							c0,0.134-0.043,0.243-0.13,0.33c-0.086,0.087-0.197,0.13-0.33,0.13h-1.38C396.225,437.684,396.115,437.641,396.029,437.554z"
							/>
						<path fill="#E74C3C" d="M401.648,437.554c-0.073-0.087-0.11-0.19-0.11-0.311l0.04-0.18l5-11.7h-6.6
							c-0.133,0-0.244-0.043-0.33-0.13c-0.087-0.086-0.13-0.196-0.13-0.33v-0.739c0-0.147,0.04-0.264,0.12-0.351
							c0.08-0.087,0.193-0.13,0.34-0.13h8.16c0.146,0,0.26,0.043,0.34,0.13s0.12,0.203,0.12,0.351v0.68c0,0.24-0.054,0.5-0.16,0.78
							l-4.94,11.56c-0.067,0.146-0.14,0.267-0.22,0.36c-0.08,0.093-0.193,0.14-0.34,0.14h-1
							C401.818,437.684,401.722,437.641,401.648,437.554z"/>
						<path fill="#E74C3C" d="M409.949,432.363c-0.086-0.08-0.13-0.187-0.13-0.319v-0.721c0-0.133,0.043-0.243,0.13-0.33
							c0.087-0.086,0.197-0.13,0.33-0.13h6c0.133,0,0.243,0.044,0.33,0.13c0.086,0.087,0.13,0.197,0.13,0.33v0.721
							c0,0.133-0.043,0.239-0.13,0.319c-0.087,0.08-0.197,0.12-0.33,0.12h-6C410.146,432.483,410.036,432.443,409.949,432.363z"/>
						<path fill="#E74C3C" d="M422.579,437.554c-0.08-0.087-0.12-0.196-0.12-0.33v-11.28l-3.36,2.58
							c-0.094,0.08-0.194,0.12-0.3,0.12c-0.12,0-0.233-0.066-0.34-0.2l-0.48-0.62c-0.067-0.093-0.1-0.187-0.1-0.279
							c0-0.146,0.066-0.267,0.2-0.36l4.34-3.36c0.146-0.093,0.32-0.14,0.52-0.14h0.94c0.133,0,0.243,0.043,0.33,0.13
							c0.086,0.087,0.13,0.197,0.13,0.33v13.08c0,0.134-0.043,0.243-0.13,0.33c-0.087,0.087-0.197,0.13-0.33,0.13h-0.98
							C422.766,437.684,422.659,437.641,422.579,437.554z"/>
						<path fill="#E74C3C" d="M429.099,437.374c-0.76-0.341-1.337-0.783-1.73-1.33c-0.394-0.547-0.604-1.113-0.63-1.7
							c0-0.12,0.04-0.217,0.12-0.29s0.18-0.11,0.3-0.11h0.9c0.146,0,0.267,0.03,0.36,0.09c0.093,0.061,0.167,0.178,0.22,0.351
							c0.173,0.68,0.55,1.16,1.13,1.439c0.58,0.28,1.263,0.42,2.05,0.42c0.96,0,1.723-0.229,2.29-0.689
							c0.566-0.46,0.85-1.116,0.85-1.97c0-1.627-0.994-2.44-2.98-2.44h-1.88c-0.134,0-0.244-0.043-0.33-0.13
							c-0.087-0.087-0.13-0.196-0.13-0.33v-0.52c0-0.2,0.073-0.374,0.22-0.521l3.9-4.32h-5.92c-0.133,0-0.243-0.04-0.33-0.12
							c-0.087-0.079-0.13-0.187-0.13-0.319v-0.72c0-0.147,0.043-0.264,0.13-0.351s0.197-0.13,0.33-0.13h7.92
							c0.146,0,0.263,0.043,0.35,0.13c0.086,0.087,0.13,0.203,0.13,0.351v0.659c0,0.147-0.067,0.301-0.2,0.46l-3.9,4.381h0.32
							c1.36,0.039,2.437,0.393,3.23,1.06c0.793,0.667,1.19,1.64,1.19,2.92c0,0.88-0.217,1.637-0.65,2.271
							c-0.434,0.633-1.037,1.119-1.81,1.46c-0.773,0.34-1.647,0.51-2.62,0.51C430.758,437.884,429.858,437.714,429.099,437.374z"/>
						<path fill="#E74C3C" d="M439.329,437.554c-0.087-0.087-0.13-0.196-0.13-0.33v-1.38c0-0.133,0.043-0.247,0.13-0.34
							c0.086-0.094,0.196-0.141,0.33-0.141h1.38c0.133,0,0.243,0.047,0.33,0.141c0.087,0.093,0.13,0.207,0.13,0.34v1.38
							c0,0.134-0.043,0.243-0.13,0.33c-0.086,0.087-0.197,0.13-0.33,0.13h-1.38C439.525,437.684,439.415,437.641,439.329,437.554z"
							/>
						<path fill="#E74C3C" d="M446.059,437.374c-0.76-0.341-1.337-0.783-1.73-1.33c-0.394-0.547-0.604-1.113-0.63-1.7
							c0-0.12,0.04-0.217,0.12-0.29s0.18-0.11,0.3-0.11h0.9c0.146,0,0.267,0.03,0.36,0.09c0.093,0.061,0.167,0.178,0.22,0.351
							c0.173,0.68,0.55,1.16,1.13,1.439c0.58,0.28,1.263,0.42,2.05,0.42c0.96,0,1.723-0.229,2.29-0.689
							c0.566-0.46,0.85-1.116,0.85-1.97c0-1.627-0.994-2.44-2.98-2.44h-1.88c-0.134,0-0.244-0.043-0.33-0.13
							c-0.087-0.087-0.13-0.196-0.13-0.33v-0.52c0-0.2,0.073-0.374,0.22-0.521l3.9-4.32h-5.92c-0.133,0-0.243-0.04-0.33-0.12
							c-0.087-0.079-0.13-0.187-0.13-0.319v-0.72c0-0.147,0.043-0.264,0.13-0.351s0.197-0.13,0.33-0.13h7.92
							c0.146,0,0.263,0.043,0.35,0.13c0.086,0.087,0.13,0.203,0.13,0.351v0.659c0,0.147-0.067,0.301-0.2,0.46l-3.9,4.381h0.32
							c1.36,0.039,2.437,0.393,3.23,1.06c0.793,0.667,1.19,1.64,1.19,2.92c0,0.88-0.217,1.637-0.65,2.271
							c-0.434,0.633-1.037,1.119-1.81,1.46c-0.773,0.34-1.647,0.51-2.62,0.51C447.718,437.884,446.818,437.714,446.059,437.374z"/>
						<path fill="#E74C3C" d="M462.038,436.674c-0.8-0.807-1.22-1.937-1.26-3.391l-0.02-0.8l0.02-0.8
							c0.04-1.453,0.46-2.583,1.26-3.39c0.8-0.807,1.913-1.21,3.34-1.21c0.96,0,1.77,0.17,2.43,0.51
							c0.66,0.34,1.153,0.764,1.48,1.27c0.327,0.507,0.503,1.014,0.53,1.521c0.013,0.12-0.03,0.227-0.13,0.319
							c-0.1,0.094-0.21,0.141-0.33,0.141h-0.88c-0.133,0-0.233-0.03-0.3-0.09c-0.067-0.061-0.133-0.17-0.2-0.33
							c-0.24-0.653-0.57-1.117-0.99-1.391c-0.42-0.272-0.95-0.409-1.59-0.409c-0.84,0-1.507,0.26-2,0.779
							c-0.494,0.521-0.76,1.313-0.8,2.38l-0.02,0.7l0.02,0.7c0.04,1.066,0.307,1.86,0.8,2.38c0.493,0.521,1.16,0.78,2,0.78
							c0.653,0,1.187-0.137,1.6-0.41c0.414-0.273,0.74-0.736,0.98-1.39c0.067-0.16,0.133-0.271,0.2-0.33
							c0.066-0.061,0.167-0.09,0.3-0.09h0.88c0.12,0,0.23,0.047,0.33,0.14c0.1,0.094,0.143,0.2,0.13,0.32
							c-0.027,0.493-0.204,0.993-0.53,1.5s-0.82,0.933-1.48,1.279c-0.66,0.347-1.47,0.521-2.43,0.521
							C463.951,437.884,462.838,437.48,462.038,436.674z"/>
						<path fill="#E74C3C" d="M472.348,437.554c-0.087-0.087-0.13-0.196-0.13-0.33v-9.48c0-0.133,0.043-0.243,0.13-0.329
							c0.087-0.087,0.197-0.131,0.33-0.131h0.84c0.133,0,0.24,0.044,0.32,0.131c0.08,0.086,0.12,0.196,0.12,0.329v0.681
							c0.72-0.894,1.693-1.34,2.92-1.34c1.466,0,2.506,0.613,3.12,1.84c0.32-0.561,0.777-1.007,1.37-1.34
							c0.593-0.334,1.257-0.5,1.99-0.5c1.093,0,1.986,0.373,2.68,1.119c0.693,0.747,1.04,1.827,1.04,3.24v5.78
							c0,0.134-0.043,0.243-0.13,0.33c-0.087,0.087-0.197,0.13-0.33,0.13h-0.86c-0.133,0-0.244-0.043-0.33-0.13
							c-0.087-0.087-0.13-0.196-0.13-0.33v-5.6c0-1.067-0.22-1.83-0.66-2.29s-1.02-0.69-1.74-0.69c-0.64,0-1.19,0.237-1.65,0.71
							c-0.46,0.474-0.69,1.23-0.69,2.271v5.6c0,0.134-0.043,0.243-0.13,0.33c-0.087,0.087-0.197,0.13-0.33,0.13h-0.88
							c-0.133,0-0.244-0.043-0.33-0.13c-0.087-0.087-0.13-0.196-0.13-0.33v-5.6c0-1.054-0.23-1.813-0.69-2.28s-1.03-0.7-1.71-0.7
							c-0.64,0-1.19,0.233-1.65,0.7c-0.46,0.467-0.69,1.22-0.69,2.26v5.62c0,0.134-0.043,0.243-0.13,0.33
							c-0.087,0.087-0.197,0.13-0.33,0.13h-0.88C472.544,437.684,472.435,437.641,472.348,437.554z"/>
					</g>
				</g>
			</g>
		</g>
	</g>
	<g>
		<g id="POLYLINE_624_">

				<line fill="none" stroke="#E74C3C" stroke-width="2" stroke-linecap="round" stroke-linejoin="round" stroke-miterlimit="10" x1="668.102" y1="403.105" x2="668.102" y2="386"/>
		</g>
		<g id="LINE_54_">

				<line fill="none" stroke="#E74C3C" stroke-width="2" stroke-linecap="round" stroke-linejoin="round" stroke-miterlimit="10" x1="668.102" y1="338" x2="668.102" y2="321.104"/>
		</g>
		<g id="POLYLINE_623_">

				<polyline fill="none" stroke="#E74C3C" stroke-width="2" stroke-linecap="round" stroke-linejoin="round" stroke-miterlimit="10" points="
				661.474,327.733 668.102,321.104 674.729,327.733 			"/>
		</g>
		<g id="POLYLINE_622_">

				<polyline fill="none" stroke="#E74C3C" stroke-width="2" stroke-linecap="round" stroke-linejoin="round" stroke-miterlimit="10" points="
				674.729,396.478 668.102,403.105 661.474,396.478 			"/>
		</g>
		<g id="MTEXT_116_">
			<g>
				<g>
					<g>
						<path fill="#E74C3C" d="M659.202,357.642c-0.087-0.087-0.13-0.196-0.13-0.33v-0.6c0-0.307,0.167-0.601,0.5-0.881l4.36-4.34
							c0.987-0.84,1.667-1.526,2.04-2.06c0.373-0.533,0.56-1.101,0.56-1.7c0-0.786-0.22-1.403-0.66-1.85
							c-0.44-0.447-1.08-0.67-1.92-0.67c-0.8,0-1.433,0.233-1.9,0.699c-0.467,0.467-0.753,1.094-0.86,1.88
							c-0.027,0.147-0.094,0.261-0.2,0.341c-0.107,0.08-0.213,0.12-0.32,0.12h-0.96c-0.12,0-0.22-0.04-0.3-0.12
							c-0.08-0.08-0.12-0.174-0.12-0.28c0.026-0.707,0.216-1.39,0.57-2.05c0.353-0.66,0.876-1.2,1.57-1.62s1.533-0.63,2.52-0.63
							c1.493,0,2.617,0.39,3.37,1.17c0.753,0.78,1.13,1.77,1.13,2.97c0,0.84-0.203,1.597-0.61,2.271
							c-0.407,0.673-1.043,1.383-1.91,2.13l-3.94,4h6.3c0.146,0,0.26,0.04,0.34,0.12c0.08,0.079,0.12,0.193,0.12,0.34v0.76
							c0,0.134-0.043,0.243-0.13,0.33c-0.086,0.087-0.197,0.13-0.33,0.13h-8.76C659.398,357.771,659.289,357.729,659.202,357.642z"
							/>
						<path fill="#E74C3C" d="M670.982,347.252c-0.06-0.08-0.077-0.181-0.05-0.301l0.44-2.8c0.053-0.387,0.24-0.58,0.56-0.58h1.28
							c0.093,0,0.17,0.033,0.23,0.101c0.06,0.066,0.09,0.146,0.09,0.239c0,0.134-0.02,0.24-0.06,0.32l-1.04,2.7
							c-0.067,0.146-0.14,0.257-0.22,0.33s-0.2,0.109-0.36,0.109h-0.62C671.125,347.371,671.042,347.331,670.982,347.252z
							 M674.122,347.252c-0.06-0.08-0.077-0.181-0.05-0.301l0.44-2.8c0.053-0.387,0.24-0.58,0.56-0.58h1.28
							c0.093,0,0.17,0.033,0.23,0.101c0.06,0.066,0.09,0.146,0.09,0.239c0,0.134-0.02,0.24-0.06,0.32l-1.04,2.7
							c-0.067,0.146-0.14,0.257-0.22,0.33s-0.2,0.109-0.36,0.109h-0.62C674.265,347.371,674.182,347.331,674.122,347.252z"/>
						<path fill="#E74C3C" d="M642.242,379.031c-0.734-0.36-1.293-0.83-1.68-1.41s-0.593-1.203-0.62-1.87v-0.04
							c0-0.106,0.04-0.193,0.12-0.26s0.173-0.1,0.28-0.1h0.98c0.28,0,0.46,0.146,0.54,0.439c0.2,0.72,0.57,1.257,1.11,1.61
							s1.163,0.529,1.87,0.529c0.907,0,1.66-0.276,2.26-0.829c0.6-0.554,0.9-1.317,0.9-2.29c0-0.894-0.3-1.604-0.9-2.131
							c-0.6-0.526-1.354-0.79-2.26-0.79c-0.48,0-0.867,0.061-1.16,0.181c-0.293,0.12-0.594,0.293-0.9,0.52
							c-0.173,0.134-0.316,0.23-0.43,0.29c-0.113,0.061-0.237,0.09-0.37,0.09h-0.96c-0.12,0-0.227-0.043-0.32-0.13
							c-0.094-0.086-0.134-0.189-0.12-0.31l0.62-6.66c0.04-0.333,0.207-0.5,0.5-0.5h6.92c0.146,0,0.26,0.04,0.34,0.12
							s0.12,0.193,0.12,0.34v0.74c0,0.133-0.043,0.24-0.13,0.319c-0.087,0.08-0.197,0.12-0.33,0.12h-5.76l-0.36,4.021
							c0.64-0.453,1.5-0.68,2.58-0.68c0.893,0,1.707,0.177,2.44,0.529c0.733,0.354,1.316,0.87,1.75,1.55
							c0.433,0.681,0.65,1.487,0.65,2.421c0,0.986-0.217,1.836-0.65,2.55c-0.434,0.713-1.033,1.253-1.8,1.62
							c-0.767,0.366-1.644,0.55-2.63,0.55C643.842,379.571,642.975,379.391,642.242,379.031z"/>
						<path fill="#E74C3C" d="M652.172,379.241c-0.087-0.087-0.13-0.196-0.13-0.33v-1.38c0-0.133,0.043-0.247,0.13-0.34
							c0.086-0.094,0.196-0.141,0.33-0.141h1.38c0.133,0,0.243,0.047,0.33,0.141c0.087,0.093,0.13,0.207,0.13,0.34v1.38
							c0,0.134-0.043,0.243-0.13,0.33c-0.086,0.087-0.197,0.13-0.33,0.13h-1.38C652.369,379.371,652.259,379.328,652.172,379.241z"
							/>
						<path fill="#E74C3C" d="M659.542,379.241c-0.08-0.087-0.12-0.196-0.12-0.33v-11.28l-3.36,2.58
							c-0.094,0.08-0.194,0.12-0.3,0.12c-0.12,0-0.233-0.066-0.34-0.2l-0.48-0.62c-0.067-0.093-0.1-0.187-0.1-0.279
							c0-0.146,0.066-0.267,0.2-0.36l4.34-3.36c0.146-0.093,0.32-0.14,0.52-0.14h0.94c0.133,0,0.243,0.043,0.33,0.13
							c0.086,0.087,0.13,0.197,0.13,0.33v13.08c0,0.134-0.043,0.243-0.13,0.33c-0.087,0.087-0.197,0.13-0.33,0.13h-0.98
							C659.729,379.371,659.622,379.328,659.542,379.241z"/>
						<path fill="#E74C3C" d="M670.082,378.361c-0.8-0.807-1.22-1.937-1.26-3.391l-0.02-0.8l0.02-0.8
							c0.04-1.453,0.46-2.583,1.26-3.39c0.8-0.807,1.913-1.21,3.34-1.21c0.96,0,1.77,0.17,2.43,0.51
							c0.66,0.34,1.153,0.764,1.48,1.27c0.327,0.507,0.503,1.014,0.53,1.521c0.013,0.12-0.03,0.227-0.13,0.319
							c-0.1,0.094-0.21,0.141-0.33,0.141h-0.88c-0.133,0-0.233-0.03-0.3-0.09c-0.067-0.061-0.133-0.17-0.2-0.33
							c-0.24-0.653-0.57-1.117-0.99-1.391c-0.42-0.272-0.95-0.409-1.59-0.409c-0.84,0-1.507,0.26-2,0.779
							c-0.494,0.521-0.76,1.313-0.8,2.38l-0.02,0.7l0.02,0.7c0.04,1.066,0.307,1.86,0.8,2.38c0.493,0.521,1.16,0.78,2,0.78
							c0.653,0,1.187-0.137,1.6-0.41c0.414-0.273,0.74-0.736,0.98-1.39c0.067-0.16,0.133-0.271,0.2-0.33
							c0.066-0.061,0.167-0.09,0.3-0.09h0.88c0.12,0,0.23,0.047,0.33,0.14c0.1,0.094,0.143,0.2,0.13,0.32
							c-0.027,0.493-0.204,0.993-0.53,1.5s-0.82,0.933-1.48,1.279c-0.66,0.347-1.47,0.521-2.43,0.521
							C671.995,379.571,670.882,379.168,670.082,378.361z"/>
						<path fill="#E74C3C" d="M680.392,379.241c-0.087-0.087-0.13-0.196-0.13-0.33v-9.48c0-0.133,0.043-0.243,0.13-0.329
							c0.087-0.087,0.197-0.131,0.33-0.131h0.84c0.133,0,0.24,0.044,0.32,0.131c0.08,0.086,0.12,0.196,0.12,0.329v0.681
							c0.72-0.894,1.693-1.34,2.92-1.34c1.466,0,2.506,0.613,3.12,1.84c0.32-0.561,0.777-1.007,1.37-1.34
							c0.593-0.334,1.257-0.5,1.99-0.5c1.093,0,1.986,0.373,2.68,1.119c0.693,0.747,1.04,1.827,1.04,3.24v5.78
							c0,0.134-0.043,0.243-0.13,0.33c-0.087,0.087-0.197,0.13-0.33,0.13h-0.86c-0.133,0-0.244-0.043-0.33-0.13
							c-0.087-0.087-0.13-0.196-0.13-0.33v-5.6c0-1.067-0.22-1.83-0.66-2.29s-1.02-0.69-1.74-0.69c-0.64,0-1.19,0.237-1.65,0.71
							c-0.46,0.474-0.69,1.23-0.69,2.271v5.6c0,0.134-0.043,0.243-0.13,0.33c-0.087,0.087-0.197,0.13-0.33,0.13h-0.88
							c-0.133,0-0.244-0.043-0.33-0.13c-0.087-0.087-0.13-0.196-0.13-0.33v-5.6c0-1.054-0.23-1.813-0.69-2.28s-1.03-0.7-1.71-0.7
							c-0.64,0-1.19,0.233-1.65,0.7c-0.46,0.467-0.69,1.22-0.69,2.26v5.62c0,0.134-0.043,0.243-0.13,0.33
							c-0.087,0.087-0.197,0.13-0.33,0.13h-0.88C680.588,379.371,680.479,379.328,680.392,379.241z"/>
					</g>
				</g>
			</g>
		</g>
	</g>
	<g>
		<g id="POLYLINE_621_">

				<line fill="none" stroke="#E74C3C" stroke-width="2" stroke-linecap="round" stroke-linejoin="round" stroke-miterlimit="10" x1="483.102" y1="622.105" x2="483.102" y2="592"/>
		</g>
		<g id="LINE_53_">

				<line fill="none" stroke="#E74C3C" stroke-width="2" stroke-linecap="round" stroke-linejoin="round" stroke-miterlimit="10" x1="483.102" y1="543" x2="483.102" y2="515.104"/>
		</g>
		<g id="POLYLINE_620_">

				<polyline fill="none" stroke="#E74C3C" stroke-width="2" stroke-linecap="round" stroke-linejoin="round" stroke-miterlimit="10" points="
				476.474,521.733 483.102,515.104 489.729,521.733 			"/>
		</g>
		<g id="POLYLINE_619_">

				<polyline fill="none" stroke="#E74C3C" stroke-width="2" stroke-linecap="round" stroke-linejoin="round" stroke-miterlimit="10" points="
				489.729,615.479 483.102,622.105 476.474,615.479 			"/>
		</g>
		<g id="MTEXT_115_">
			<g>
				<g>
					<g>
						<path fill="#E74C3C" d="M457.082,563.642c-0.087-0.087-0.13-0.196-0.13-0.33v-0.6c0-0.307,0.167-0.601,0.5-0.881l4.36-4.34
							c0.987-0.84,1.667-1.526,2.04-2.06c0.373-0.533,0.56-1.101,0.56-1.7c0-0.786-0.22-1.403-0.66-1.85
							c-0.44-0.447-1.08-0.67-1.92-0.67c-0.8,0-1.433,0.233-1.9,0.699c-0.467,0.467-0.753,1.094-0.86,1.88
							c-0.027,0.147-0.094,0.261-0.2,0.341c-0.107,0.08-0.213,0.12-0.32,0.12h-0.96c-0.12,0-0.22-0.04-0.3-0.12
							c-0.08-0.08-0.12-0.174-0.12-0.28c0.026-0.707,0.216-1.39,0.57-2.05c0.353-0.66,0.876-1.2,1.57-1.62s1.533-0.63,2.52-0.63
							c1.493,0,2.617,0.39,3.37,1.17c0.753,0.78,1.13,1.77,1.13,2.97c0,0.84-0.203,1.597-0.61,2.271
							c-0.407,0.673-1.043,1.383-1.91,2.13l-3.94,4h6.3c0.146,0,0.26,0.04,0.34,0.12c0.08,0.079,0.12,0.193,0.12,0.34v0.76
							c0,0.134-0.043,0.243-0.13,0.33c-0.086,0.087-0.197,0.13-0.33,0.13h-8.76C457.279,563.771,457.169,563.729,457.082,563.642z"
							/>
						<path fill="#E74C3C" d="M477.772,563.642c-0.08-0.087-0.12-0.196-0.12-0.33v-11.28l-3.36,2.58
							c-0.094,0.08-0.194,0.12-0.3,0.12c-0.12,0-0.233-0.066-0.34-0.2l-0.48-0.62c-0.067-0.093-0.1-0.187-0.1-0.279
							c0-0.146,0.066-0.267,0.2-0.36l4.34-3.36c0.146-0.093,0.32-0.14,0.52-0.14h0.94c0.133,0,0.243,0.043,0.33,0.13
							c0.086,0.087,0.13,0.197,0.13,0.33v13.08c0,0.134-0.043,0.243-0.13,0.33c-0.087,0.087-0.197,0.13-0.33,0.13h-0.98
							C477.958,563.771,477.852,563.729,477.772,563.642z"/>
						<path fill="#E74C3C" d="M481.712,565.331c-0.08-0.079-0.12-0.173-0.12-0.279c0-0.054,0.02-0.134,0.06-0.24l6.84-16.42
							c0.12-0.227,0.293-0.34,0.52-0.34h0.74c0.106,0,0.2,0.04,0.28,0.12s0.12,0.173,0.12,0.279c0,0.054-0.02,0.134-0.06,0.24
							l-6.86,16.42c-0.027,0.08-0.083,0.156-0.17,0.23c-0.087,0.073-0.204,0.109-0.35,0.109h-0.72
							C481.885,565.451,481.792,565.411,481.712,565.331z"/>
						<path fill="#E74C3C" d="M497.241,563.642c-0.087-0.087-0.13-0.196-0.13-0.33v-2.92h-6.5c-0.133,0-0.244-0.043-0.33-0.13
							c-0.087-0.087-0.13-0.197-0.13-0.33v-0.74c0-0.187,0.073-0.387,0.22-0.6l6.02-8.48c0.067-0.106,0.167-0.189,0.3-0.25
							c0.133-0.06,0.28-0.09,0.44-0.09h1.36c0.146,0,0.26,0.04,0.34,0.12c0.08,0.08,0.12,0.193,0.12,0.34v8.48h1.82
							c0.133,0,0.243,0.043,0.33,0.13s0.13,0.196,0.13,0.33v0.76c0,0.133-0.043,0.243-0.13,0.33s-0.197,0.13-0.33,0.13h-1.82v2.92
							c0,0.134-0.043,0.243-0.13,0.33c-0.087,0.087-0.197,0.13-0.33,0.13h-0.92C497.438,563.771,497.328,563.729,497.241,563.642z
							 M492.231,558.752h4.9v-6.961L492.231,558.752z"/>
						<path fill="#E74C3C" d="M503.101,553.252c-0.06-0.08-0.077-0.181-0.05-0.301l0.44-2.8c0.053-0.387,0.24-0.58,0.56-0.58h1.28
							c0.093,0,0.17,0.033,0.23,0.101c0.06,0.066,0.09,0.146,0.09,0.239c0,0.134-0.02,0.24-0.06,0.32l-1.04,2.7
							c-0.067,0.146-0.14,0.257-0.22,0.33s-0.2,0.109-0.36,0.109h-0.62C503.244,553.371,503.161,553.331,503.101,553.252z
							 M506.241,553.252c-0.06-0.08-0.077-0.181-0.05-0.301l0.44-2.8c0.053-0.387,0.24-0.58,0.56-0.58h1.28
							c0.093,0,0.17,0.033,0.23,0.101c0.06,0.066,0.09,0.146,0.09,0.239c0,0.134-0.02,0.24-0.06,0.32l-1.04,2.7
							c-0.067,0.146-0.14,0.257-0.22,0.33s-0.2,0.109-0.36,0.109h-0.62C506.384,553.371,506.301,553.331,506.241,553.252z"/>
						<path fill="#E74C3C" d="M456.022,585.031c-0.734-0.36-1.293-0.83-1.68-1.41s-0.593-1.203-0.62-1.87v-0.04
							c0-0.106,0.04-0.193,0.12-0.26s0.173-0.1,0.28-0.1h0.98c0.28,0,0.46,0.146,0.54,0.439c0.2,0.72,0.57,1.257,1.11,1.61
							s1.163,0.529,1.87,0.529c0.907,0,1.66-0.276,2.26-0.829c0.6-0.554,0.9-1.317,0.9-2.29c0-0.894-0.3-1.604-0.9-2.131
							c-0.6-0.526-1.354-0.79-2.26-0.79c-0.48,0-0.867,0.061-1.16,0.181c-0.293,0.12-0.594,0.293-0.9,0.52
							c-0.173,0.134-0.316,0.23-0.43,0.29c-0.113,0.061-0.237,0.09-0.37,0.09h-0.96c-0.12,0-0.227-0.043-0.32-0.13
							c-0.094-0.086-0.134-0.189-0.12-0.31l0.62-6.66c0.04-0.333,0.207-0.5,0.5-0.5h6.92c0.146,0,0.26,0.04,0.34,0.12
							s0.12,0.193,0.12,0.34v0.74c0,0.133-0.043,0.24-0.13,0.319c-0.087,0.08-0.197,0.12-0.33,0.12h-5.76l-0.36,4.021
							c0.64-0.453,1.5-0.68,2.58-0.68c0.893,0,1.707,0.177,2.44,0.529c0.733,0.354,1.316,0.87,1.75,1.55
							c0.433,0.681,0.65,1.487,0.65,2.421c0,0.986-0.217,1.836-0.65,2.55c-0.434,0.713-1.033,1.253-1.8,1.62
							c-0.767,0.366-1.644,0.55-2.63,0.55C457.622,585.571,456.755,585.391,456.022,585.031z"/>
						<path fill="#E74C3C" d="M465.952,585.241c-0.087-0.087-0.13-0.196-0.13-0.33v-1.38c0-0.133,0.043-0.247,0.13-0.34
							c0.086-0.094,0.196-0.141,0.33-0.141h1.38c0.133,0,0.243,0.047,0.33,0.141c0.087,0.093,0.13,0.207,0.13,0.34v1.38
							c0,0.134-0.043,0.243-0.13,0.33c-0.086,0.087-0.197,0.13-0.33,0.13h-1.38C466.148,585.371,466.039,585.328,465.952,585.241z"
							/>
						<path fill="#E74C3C" d="M471.572,585.241c-0.073-0.087-0.11-0.19-0.11-0.311l0.04-0.18l5-11.7h-6.6
							c-0.133,0-0.244-0.043-0.33-0.13c-0.087-0.086-0.13-0.196-0.13-0.33v-0.739c0-0.147,0.04-0.264,0.12-0.351
							c0.08-0.087,0.193-0.13,0.34-0.13h8.16c0.146,0,0.26,0.043,0.34,0.13s0.12,0.203,0.12,0.351v0.68c0,0.24-0.054,0.5-0.16,0.78
							l-4.94,11.56c-0.067,0.146-0.14,0.267-0.22,0.36c-0.08,0.093-0.193,0.14-0.34,0.14h-1
							C471.742,585.371,471.645,585.328,471.572,585.241z"/>
						<path fill="#E74C3C" d="M486.301,584.361c-0.8-0.807-1.22-1.937-1.26-3.391l-0.02-0.8l0.02-0.8
							c0.04-1.453,0.46-2.583,1.26-3.39c0.8-0.807,1.913-1.21,3.34-1.21c0.96,0,1.77,0.17,2.43,0.51
							c0.66,0.34,1.153,0.764,1.48,1.27c0.327,0.507,0.503,1.014,0.53,1.521c0.013,0.12-0.03,0.227-0.13,0.319
							c-0.1,0.094-0.21,0.141-0.33,0.141h-0.88c-0.133,0-0.233-0.03-0.3-0.09c-0.067-0.061-0.133-0.17-0.2-0.33
							c-0.24-0.653-0.57-1.117-0.99-1.391c-0.42-0.272-0.95-0.409-1.59-0.409c-0.84,0-1.507,0.26-2,0.779
							c-0.494,0.521-0.76,1.313-0.8,2.38l-0.02,0.7l0.02,0.7c0.04,1.066,0.307,1.86,0.8,2.38c0.493,0.521,1.16,0.78,2,0.78
							c0.653,0,1.187-0.137,1.6-0.41c0.414-0.273,0.74-0.736,0.98-1.39c0.067-0.16,0.133-0.271,0.2-0.33
							c0.066-0.061,0.167-0.09,0.3-0.09h0.88c0.12,0,0.23,0.047,0.33,0.14c0.1,0.094,0.143,0.2,0.13,0.32
							c-0.027,0.493-0.204,0.993-0.53,1.5s-0.82,0.933-1.48,1.279c-0.66,0.347-1.47,0.521-2.43,0.521
							C488.214,585.571,487.102,585.168,486.301,584.361z"/>
						<path fill="#E74C3C" d="M496.611,585.241c-0.087-0.087-0.13-0.196-0.13-0.33v-9.48c0-0.133,0.043-0.243,0.13-0.329
							c0.087-0.087,0.197-0.131,0.33-0.131h0.84c0.133,0,0.24,0.044,0.32,0.131c0.08,0.086,0.12,0.196,0.12,0.329v0.681
							c0.72-0.894,1.693-1.34,2.92-1.34c1.466,0,2.506,0.613,3.12,1.84c0.32-0.561,0.777-1.007,1.37-1.34
							c0.593-0.334,1.257-0.5,1.99-0.5c1.093,0,1.986,0.373,2.68,1.119c0.693,0.747,1.04,1.827,1.04,3.24v5.78
							c0,0.134-0.043,0.243-0.13,0.33c-0.087,0.087-0.197,0.13-0.33,0.13h-0.86c-0.133,0-0.244-0.043-0.33-0.13
							c-0.087-0.087-0.13-0.196-0.13-0.33v-5.6c0-1.067-0.22-1.83-0.66-2.29s-1.02-0.69-1.74-0.69c-0.64,0-1.19,0.237-1.65,0.71
							c-0.46,0.474-0.69,1.23-0.69,2.271v5.6c0,0.134-0.043,0.243-0.13,0.33c-0.087,0.087-0.197,0.13-0.33,0.13h-0.88
							c-0.133,0-0.244-0.043-0.33-0.13c-0.087-0.087-0.13-0.196-0.13-0.33v-5.6c0-1.054-0.23-1.813-0.69-2.28s-1.03-0.7-1.71-0.7
							c-0.64,0-1.19,0.233-1.65,0.7c-0.46,0.467-0.69,1.22-0.69,2.26v5.62c0,0.134-0.043,0.243-0.13,0.33
							c-0.087,0.087-0.197,0.13-0.33,0.13h-0.88C496.808,585.371,496.698,585.328,496.611,585.241z"/>
					</g>
				</g>
			</g>
		</g>
		<g id="MTEXT_114_">
			<g>
				<g>
					<g>
						<path fill="#E74C3C" d="M375.662,574.642c-0.08-0.087-0.12-0.196-0.12-0.33v-13.06c0-0.147,0.04-0.264,0.12-0.351
							s0.187-0.13,0.32-0.13h5.46c1.413,0,2.48,0.34,3.2,1.02c0.72,0.681,1.08,1.567,1.08,2.66c0,0.747-0.173,1.37-0.52,1.87
							s-0.753,0.863-1.22,1.09c0.573,0.28,1.053,0.714,1.44,1.301c0.386,0.587,0.58,1.26,0.58,2.02c0,0.747-0.17,1.427-0.51,2.04
							s-0.843,1.1-1.51,1.46c-0.667,0.36-1.46,0.54-2.38,0.54h-5.62C375.848,574.771,375.742,574.729,375.662,574.642z
							 M381.142,566.712c0.867,0,1.527-0.197,1.98-0.591c0.453-0.393,0.68-0.942,0.68-1.649c0-0.693-0.224-1.22-0.67-1.58
							c-0.447-0.36-1.11-0.54-1.99-0.54h-3.72v4.36H381.142z M381.342,573.191c0.853,0,1.523-0.229,2.01-0.689
							c0.487-0.461,0.73-1.051,0.73-1.771c0-0.733-0.243-1.326-0.73-1.78c-0.487-0.453-1.157-0.68-2.01-0.68h-3.92v4.92H381.342z"/>
						<path fill="#E74C3C" d="M389.691,574.571c-0.553-0.267-0.993-0.63-1.32-1.09s-0.49-0.97-0.49-1.53c0-0.88,0.36-1.6,1.08-2.16
							c0.72-0.56,1.7-0.933,2.94-1.119l3-0.42v-0.58c0-1.373-0.793-2.061-2.38-2.061c-0.613,0-1.107,0.124-1.48,0.37
							c-0.374,0.247-0.647,0.537-0.82,0.87c-0.054,0.134-0.11,0.224-0.17,0.27c-0.06,0.047-0.144,0.07-0.25,0.07h-0.78
							c-0.12,0-0.223-0.043-0.31-0.13s-0.13-0.19-0.13-0.31c0-0.307,0.143-0.664,0.43-1.07c0.287-0.406,0.73-0.76,1.33-1.061
							c0.6-0.3,1.333-0.449,2.2-0.449c1.493,0,2.563,0.347,3.21,1.04c0.646,0.693,0.97,1.56,0.97,2.6v6.5
							c0,0.134-0.043,0.243-0.13,0.33c-0.087,0.087-0.197,0.13-0.33,0.13h-0.88c-0.133,0-0.24-0.043-0.32-0.13
							s-0.12-0.196-0.12-0.33v-0.88c-0.293,0.439-0.72,0.807-1.28,1.1s-1.28,0.44-2.16,0.44
							C390.848,574.972,390.245,574.838,389.691,574.571z M394.062,572.651c0.56-0.573,0.84-1.406,0.84-2.5v-0.56l-2.34,0.34
							c-0.96,0.133-1.687,0.359-2.18,0.68s-0.74,0.72-0.74,1.2c0,0.547,0.223,0.967,0.67,1.26c0.447,0.294,0.977,0.44,1.59,0.44
							C392.782,573.512,393.501,573.225,394.062,572.651z"/>
						<path fill="#E74C3C" d="M399.771,574.642c-0.087-0.087-0.13-0.196-0.13-0.33v-13.28c0-0.146,0.043-0.26,0.13-0.34
							c0.086-0.08,0.197-0.12,0.33-0.12h0.88c0.133,0,0.243,0.044,0.33,0.13c0.086,0.087,0.13,0.197,0.13,0.33v13.28
							c0,0.134-0.043,0.243-0.13,0.33c-0.087,0.087-0.197,0.13-0.33,0.13h-0.88C399.968,574.771,399.858,574.729,399.771,574.642z"
							/>
						<path fill="#E74C3C" d="M404.591,574.642c-0.087-0.087-0.13-0.196-0.13-0.33v-13.28c0-0.146,0.043-0.26,0.13-0.34
							c0.086-0.08,0.197-0.12,0.33-0.12h0.88c0.133,0,0.243,0.044,0.33,0.13c0.086,0.087,0.13,0.197,0.13,0.33v13.28
							c0,0.134-0.043,0.243-0.13,0.33c-0.087,0.087-0.197,0.13-0.33,0.13h-0.88C404.788,574.771,404.678,574.729,404.591,574.642z"
							/>
					</g>
				</g>
			</g>
		</g>
	</g>
	<g>
		<g id="POLYLINE_618_">

				<line fill="none" stroke="#E74C3C" stroke-width="2" stroke-linecap="round" stroke-linejoin="round" stroke-miterlimit="10" x1="668.102" y1="308.105" x2="668.102" y2="232"/>
		</g>
		<g id="LINE_52_">

				<line fill="none" stroke="#E74C3C" stroke-width="2" stroke-linecap="round" stroke-linejoin="round" stroke-miterlimit="10" x1="668.102" y1="181" x2="668.102" y2="89.104"/>
		</g>
		<g id="POLYLINE_617_">

				<polyline fill="none" stroke="#E74C3C" stroke-width="2" stroke-linecap="round" stroke-linejoin="round" stroke-miterlimit="10" points="
				661.474,95.733 668.102,89.104 674.729,95.733 			"/>
		</g>
		<g id="POLYLINE_616_">

				<polyline fill="none" stroke="#E74C3C" stroke-width="2" stroke-linecap="round" stroke-linejoin="round" stroke-miterlimit="10" points="
				674.729,301.478 668.102,308.105 661.474,301.478 			"/>
		</g>
		<g id="MTEXT_113_">
			<g>
				<g>
					<g>
						<path fill="#E74C3C" d="M662.232,202.432c-0.734-0.36-1.293-0.83-1.68-1.41s-0.593-1.203-0.62-1.87v-0.04
							c0-0.106,0.04-0.193,0.12-0.26s0.173-0.1,0.28-0.1h0.98c0.28,0,0.46,0.146,0.54,0.439c0.2,0.72,0.57,1.257,1.11,1.61
							s1.163,0.529,1.87,0.529c0.907,0,1.66-0.276,2.26-0.829c0.6-0.554,0.9-1.317,0.9-2.29c0-0.894-0.3-1.604-0.9-2.131
							c-0.6-0.526-1.354-0.79-2.26-0.79c-0.48,0-0.867,0.061-1.16,0.181c-0.293,0.12-0.594,0.293-0.9,0.52
							c-0.173,0.134-0.316,0.23-0.43,0.29c-0.113,0.061-0.237,0.09-0.37,0.09h-0.96c-0.12,0-0.227-0.043-0.32-0.13
							c-0.094-0.086-0.134-0.189-0.12-0.31l0.62-6.66c0.04-0.333,0.207-0.5,0.5-0.5h6.92c0.146,0,0.26,0.04,0.34,0.12
							s0.12,0.193,0.12,0.34v0.74c0,0.133-0.043,0.24-0.13,0.319c-0.087,0.08-0.197,0.12-0.33,0.12h-5.76l-0.36,4.021
							c0.64-0.453,1.5-0.68,2.58-0.68c0.893,0,1.707,0.177,2.44,0.529c0.733,0.354,1.316,0.87,1.75,1.55
							c0.433,0.681,0.65,1.487,0.65,2.421c0,0.986-0.217,1.836-0.65,2.55c-0.434,0.713-1.033,1.253-1.8,1.62
							c-0.767,0.366-1.644,0.55-2.63,0.55C663.832,202.972,662.965,202.791,662.232,202.432z"/>
						<path fill="#E74C3C" d="M672.062,192.252c-0.06-0.08-0.077-0.181-0.05-0.301l0.44-2.8c0.053-0.387,0.24-0.58,0.56-0.58h1.28
							c0.093,0,0.17,0.033,0.23,0.101c0.06,0.066,0.09,0.146,0.09,0.239c0,0.134-0.02,0.24-0.06,0.32l-1.04,2.7
							c-0.067,0.146-0.14,0.257-0.22,0.33s-0.2,0.109-0.36,0.109h-0.62C672.205,192.371,672.122,192.331,672.062,192.252z
							 M675.202,192.252c-0.06-0.08-0.077-0.181-0.05-0.301l0.44-2.8c0.053-0.387,0.24-0.58,0.56-0.58h1.28
							c0.093,0,0.17,0.033,0.23,0.101c0.06,0.066,0.09,0.146,0.09,0.239c0,0.134-0.02,0.24-0.06,0.32l-1.04,2.7
							c-0.067,0.146-0.14,0.257-0.22,0.33s-0.2,0.109-0.36,0.109h-0.62C675.345,192.371,675.262,192.331,675.202,192.252z"/>
						<path fill="#E74C3C" d="M639.742,224.241c-0.08-0.087-0.12-0.196-0.12-0.33v-11.28l-3.36,2.58
							c-0.094,0.08-0.194,0.12-0.3,0.12c-0.12,0-0.233-0.066-0.34-0.2l-0.48-0.62c-0.067-0.093-0.1-0.187-0.1-0.279
							c0-0.146,0.066-0.267,0.2-0.36l4.34-3.36c0.146-0.093,0.32-0.14,0.52-0.14h0.94c0.133,0,0.243,0.043,0.33,0.13
							c0.086,0.087,0.13,0.197,0.13,0.33v13.08c0,0.134-0.043,0.243-0.13,0.33c-0.087,0.087-0.197,0.13-0.33,0.13h-0.98
							C639.929,224.371,639.822,224.328,639.742,224.241z"/>
						<path fill="#E74C3C" d="M644.151,224.241c-0.087-0.087-0.13-0.196-0.13-0.33v-0.6c0-0.307,0.167-0.601,0.5-0.881l4.36-4.34
							c0.987-0.84,1.667-1.526,2.04-2.06c0.373-0.533,0.56-1.101,0.56-1.7c0-0.786-0.22-1.403-0.66-1.85
							c-0.44-0.447-1.08-0.67-1.92-0.67c-0.8,0-1.433,0.233-1.9,0.699c-0.467,0.467-0.753,1.094-0.86,1.88
							c-0.027,0.147-0.094,0.261-0.2,0.341c-0.107,0.08-0.213,0.12-0.32,0.12h-0.96c-0.12,0-0.22-0.04-0.3-0.12
							c-0.08-0.08-0.12-0.174-0.12-0.28c0.026-0.707,0.216-1.39,0.57-2.05c0.353-0.66,0.876-1.2,1.57-1.62s1.533-0.63,2.52-0.63
							c1.493,0,2.617,0.39,3.37,1.17c0.753,0.78,1.13,1.77,1.13,2.97c0,0.84-0.203,1.597-0.61,2.271
							c-0.407,0.673-1.043,1.383-1.91,2.13l-3.94,4h6.3c0.146,0,0.26,0.04,0.34,0.12c0.08,0.079,0.12,0.193,0.12,0.34v0.76
							c0,0.134-0.043,0.243-0.13,0.33c-0.086,0.087-0.197,0.13-0.33,0.13h-8.76C644.348,224.371,644.238,224.328,644.151,224.241z"
							/>
						<path fill="#E74C3C" d="M656.212,224.241c-0.087-0.087-0.13-0.196-0.13-0.33v-1.38c0-0.133,0.043-0.247,0.13-0.34
							c0.086-0.094,0.196-0.141,0.33-0.141h1.38c0.133,0,0.243,0.047,0.33,0.141c0.087,0.093,0.13,0.207,0.13,0.34v1.38
							c0,0.134-0.043,0.243-0.13,0.33c-0.086,0.087-0.197,0.13-0.33,0.13h-1.38C656.408,224.371,656.298,224.328,656.212,224.241z"
							/>
						<path fill="#E74C3C" d="M661.832,224.241c-0.073-0.087-0.11-0.19-0.11-0.311l0.04-0.18l5-11.7h-6.6
							c-0.133,0-0.244-0.043-0.33-0.13c-0.087-0.086-0.13-0.196-0.13-0.33v-0.739c0-0.147,0.04-0.264,0.12-0.351
							c0.08-0.087,0.193-0.13,0.34-0.13h8.16c0.146,0,0.26,0.043,0.34,0.13s0.12,0.203,0.12,0.351v0.68c0,0.24-0.054,0.5-0.16,0.78
							l-4.94,11.56c-0.067,0.146-0.14,0.267-0.22,0.36c-0.08,0.093-0.193,0.14-0.34,0.14h-1
							C662.001,224.371,661.905,224.328,661.832,224.241z"/>
						<path fill="#E74C3C" d="M676.561,223.361c-0.8-0.807-1.22-1.937-1.26-3.391l-0.02-0.8l0.02-0.8
							c0.04-1.453,0.46-2.583,1.26-3.39c0.8-0.807,1.913-1.21,3.34-1.21c0.96,0,1.77,0.17,2.43,0.51
							c0.66,0.34,1.153,0.764,1.48,1.27c0.327,0.507,0.503,1.014,0.53,1.521c0.013,0.12-0.03,0.227-0.13,0.319
							c-0.1,0.094-0.21,0.141-0.33,0.141h-0.88c-0.133,0-0.233-0.03-0.3-0.09c-0.067-0.061-0.133-0.17-0.2-0.33
							c-0.24-0.653-0.57-1.117-0.99-1.391c-0.42-0.272-0.95-0.409-1.59-0.409c-0.84,0-1.507,0.26-2,0.779
							c-0.494,0.521-0.76,1.313-0.8,2.38l-0.02,0.7l0.02,0.7c0.04,1.066,0.307,1.86,0.8,2.38c0.493,0.521,1.16,0.78,2,0.78
							c0.653,0,1.187-0.137,1.6-0.41c0.414-0.273,0.74-0.736,0.98-1.39c0.067-0.16,0.133-0.271,0.2-0.33
							c0.066-0.061,0.167-0.09,0.3-0.09h0.88c0.12,0,0.23,0.047,0.33,0.14c0.1,0.094,0.143,0.2,0.13,0.32
							c-0.027,0.493-0.204,0.993-0.53,1.5s-0.82,0.933-1.48,1.279c-0.66,0.347-1.47,0.521-2.43,0.521
							C678.474,224.571,677.361,224.168,676.561,223.361z"/>
						<path fill="#E74C3C" d="M686.871,224.241c-0.087-0.087-0.13-0.196-0.13-0.33v-9.48c0-0.133,0.043-0.243,0.13-0.329
							c0.087-0.087,0.197-0.131,0.33-0.131h0.84c0.133,0,0.24,0.044,0.32,0.131c0.08,0.086,0.12,0.196,0.12,0.329v0.681
							c0.72-0.894,1.693-1.34,2.92-1.34c1.466,0,2.506,0.613,3.12,1.84c0.32-0.561,0.777-1.007,1.37-1.34
							c0.593-0.334,1.257-0.5,1.99-0.5c1.093,0,1.986,0.373,2.68,1.119c0.693,0.747,1.04,1.827,1.04,3.24v5.78
							c0,0.134-0.043,0.243-0.13,0.33c-0.087,0.087-0.197,0.13-0.33,0.13h-0.86c-0.133,0-0.244-0.043-0.33-0.13
							c-0.087-0.087-0.13-0.196-0.13-0.33v-5.6c0-1.067-0.22-1.83-0.66-2.29s-1.02-0.69-1.74-0.69c-0.64,0-1.19,0.237-1.65,0.71
							c-0.46,0.474-0.69,1.23-0.69,2.271v5.6c0,0.134-0.043,0.243-0.13,0.33c-0.087,0.087-0.197,0.13-0.33,0.13h-0.88
							c-0.133,0-0.244-0.043-0.33-0.13c-0.087-0.087-0.13-0.196-0.13-0.33v-5.6c0-1.054-0.23-1.813-0.69-2.28s-1.03-0.7-1.71-0.7
							c-0.64,0-1.19,0.233-1.65,0.7c-0.46,0.467-0.69,1.22-0.69,2.26v5.62c0,0.134-0.043,0.243-0.13,0.33
							c-0.087,0.087-0.197,0.13-0.33,0.13h-0.88C687.068,224.371,686.958,224.328,686.871,224.241z"/>
					</g>
				</g>
			</g>
		</g>
	</g>
	<g>
		<g id="POLYLINE_615_">

				<line fill="none" stroke="#E74C3C" stroke-width="2" stroke-linecap="round" stroke-linejoin="round" stroke-miterlimit="10" x1="1065.03" y1="551.534" x2="1021.215" y2="507.719"/>
		</g>
		<g id="LINE_51_">

				<line fill="none" stroke="#E74C3C" stroke-width="2" stroke-linecap="round" stroke-linejoin="round" stroke-miterlimit="10" x1="971.748" y1="458.252" x2="927.673" y2="414.176"/>
		</g>
		<g id="POLYLINE_614_">

				<polyline fill="none" stroke="#E74C3C" stroke-width="2" stroke-linecap="round" stroke-linejoin="round" stroke-miterlimit="10" points="
				927.674,423.55 927.673,414.176 937.047,414.177 			"/>
		</g>
		<g id="POLYLINE_613_">

				<polyline fill="none" stroke="#E74C3C" stroke-width="2" stroke-linecap="round" stroke-linejoin="round" stroke-miterlimit="10" points="
				1065.031,542.161 1065.03,551.534 1055.657,551.534 			"/>
		</g>
		<g id="MTEXT_112_">
			<g>
				<g>
					<g>
						<path fill="#E74C3C" d="M896.514,483.447c-0.087-0.087-0.13-0.196-0.13-0.33v-2.92h-6.5c-0.133,0-0.243-0.043-0.33-0.13
							s-0.13-0.197-0.13-0.33v-0.74c0-0.187,0.073-0.387,0.22-0.6l6.021-8.48c0.066-0.106,0.166-0.189,0.3-0.25
							c0.133-0.06,0.28-0.09,0.44-0.09h1.359c0.146,0,0.261,0.04,0.34,0.12c0.08,0.08,0.12,0.193,0.12,0.34v8.48h1.82
							c0.133,0,0.243,0.043,0.33,0.13s0.13,0.196,0.13,0.33v0.76c0,0.133-0.043,0.243-0.13,0.33s-0.197,0.13-0.33,0.13h-1.82v2.92
							c0,0.134-0.043,0.243-0.13,0.33s-0.196,0.13-0.33,0.13h-0.92C896.711,483.577,896.601,483.534,896.514,483.447z
							 M891.504,478.558h4.9v-6.961L891.504,478.558z"/>
						<path fill="#E74C3C" d="M911.284,483.447c-0.08-0.087-0.12-0.196-0.12-0.33v-11.28l-3.36,2.58
							c-0.094,0.08-0.193,0.12-0.3,0.12c-0.12,0-0.233-0.066-0.34-0.2l-0.48-0.62c-0.066-0.093-0.1-0.187-0.1-0.279
							c0-0.146,0.066-0.267,0.2-0.36l4.34-3.36c0.146-0.093,0.319-0.14,0.52-0.14h0.94c0.133,0,0.243,0.043,0.33,0.13
							c0.086,0.087,0.13,0.197,0.13,0.33v13.08c0,0.134-0.044,0.243-0.13,0.33c-0.087,0.087-0.197,0.13-0.33,0.13h-0.98
							C911.471,483.577,911.363,483.534,911.284,483.447z"/>
						<path fill="#E74C3C" d="M915.224,485.137c-0.08-0.079-0.12-0.173-0.12-0.279c0-0.054,0.02-0.134,0.06-0.24l6.84-16.42
							c0.12-0.227,0.293-0.34,0.521-0.34h0.74c0.106,0,0.199,0.04,0.279,0.12s0.12,0.173,0.12,0.279c0,0.054-0.02,0.134-0.06,0.24
							l-6.86,16.42c-0.026,0.08-0.083,0.156-0.17,0.23c-0.087,0.073-0.203,0.109-0.35,0.109h-0.721
							C915.396,485.257,915.304,485.217,915.224,485.137z"/>
						<path fill="#E74C3C" d="M925.014,483.447c-0.087-0.087-0.13-0.196-0.13-0.33v-0.6c0-0.307,0.166-0.601,0.5-0.881l4.359-4.34
							c0.987-0.84,1.667-1.526,2.04-2.06s0.561-1.101,0.561-1.7c0-0.786-0.22-1.403-0.66-1.85c-0.44-0.447-1.08-0.67-1.92-0.67
							c-0.8,0-1.434,0.233-1.9,0.699c-0.467,0.467-0.753,1.094-0.859,1.88c-0.027,0.147-0.094,0.261-0.2,0.341
							c-0.107,0.08-0.214,0.12-0.32,0.12h-0.96c-0.12,0-0.22-0.04-0.3-0.12s-0.12-0.174-0.12-0.28c0.026-0.707,0.217-1.39,0.57-2.05
							c0.353-0.66,0.876-1.2,1.569-1.62s1.533-0.63,2.521-0.63c1.493,0,2.616,0.39,3.37,1.17c0.753,0.78,1.13,1.77,1.13,2.97
							c0,0.84-0.203,1.597-0.61,2.271c-0.406,0.673-1.043,1.383-1.91,2.13l-3.939,4h6.3c0.146,0,0.26,0.04,0.34,0.12
							c0.08,0.079,0.12,0.193,0.12,0.34v0.76c0,0.134-0.043,0.243-0.13,0.33s-0.197,0.13-0.33,0.13h-8.76
							C925.21,483.577,925.101,483.534,925.014,483.447z"/>
						<path fill="#E74C3C" d="M936.793,473.058c-0.06-0.08-0.076-0.181-0.05-0.301l0.44-2.8c0.053-0.387,0.239-0.58,0.56-0.58h1.28
							c0.093,0,0.17,0.033,0.229,0.101c0.061,0.066,0.09,0.146,0.09,0.239c0,0.134-0.02,0.24-0.06,0.32l-1.04,2.7
							c-0.066,0.146-0.14,0.257-0.22,0.33s-0.2,0.109-0.36,0.109h-0.62C936.937,473.177,936.854,473.137,936.793,473.058z
							 M939.934,473.058c-0.061-0.08-0.077-0.181-0.051-0.301l0.44-2.8c0.053-0.387,0.24-0.58,0.56-0.58h1.28
							c0.094,0,0.17,0.033,0.23,0.101c0.06,0.066,0.09,0.146,0.09,0.239c0,0.134-0.021,0.24-0.061,0.32l-1.04,2.7
							c-0.066,0.146-0.14,0.257-0.22,0.33s-0.2,0.109-0.359,0.109h-0.62C940.076,473.177,939.993,473.137,939.934,473.058z"/>
						<path fill="#E74C3C" d="M943.233,478.257c-0.087-0.08-0.13-0.187-0.13-0.319v-0.721c0-0.133,0.043-0.243,0.13-0.33
							c0.087-0.086,0.196-0.13,0.33-0.13h6c0.133,0,0.243,0.044,0.33,0.13c0.086,0.087,0.13,0.197,0.13,0.33v0.721
							c0,0.133-0.044,0.239-0.13,0.319c-0.087,0.08-0.197,0.12-0.33,0.12h-6C943.43,478.377,943.32,478.337,943.233,478.257z"/>
						<path fill="#E74C3C" d="M959.113,483.447c-0.087-0.087-0.13-0.196-0.13-0.33v-2.92h-6.5c-0.134,0-0.244-0.043-0.33-0.13
							c-0.087-0.087-0.13-0.197-0.13-0.33v-0.74c0-0.187,0.073-0.387,0.22-0.6l6.02-8.48c0.067-0.106,0.167-0.189,0.301-0.25
							c0.133-0.06,0.279-0.09,0.439-0.09h1.36c0.146,0,0.26,0.04,0.34,0.12s0.12,0.193,0.12,0.34v8.48h1.82
							c0.133,0,0.242,0.043,0.329,0.13s0.131,0.196,0.131,0.33v0.76c0,0.133-0.044,0.243-0.131,0.33s-0.196,0.13-0.329,0.13h-1.82
							v2.92c0,0.134-0.044,0.243-0.13,0.33c-0.087,0.087-0.197,0.13-0.33,0.13h-0.92
							C959.31,483.577,959.199,483.534,959.113,483.447z M954.104,478.558h4.899v-6.961L954.104,478.558z"/>
						<path fill="#E74C3C" d="M971.903,483.237c-0.734-0.36-1.294-0.83-1.681-1.41s-0.593-1.203-0.62-1.87v-0.04
							c0-0.106,0.04-0.193,0.12-0.26s0.173-0.1,0.28-0.1h0.979c0.28,0,0.46,0.146,0.54,0.439c0.2,0.72,0.57,1.257,1.11,1.61
							s1.163,0.529,1.87,0.529c0.906,0,1.66-0.276,2.26-0.829c0.601-0.554,0.9-1.317,0.9-2.29c0-0.894-0.3-1.604-0.9-2.131
							c-0.6-0.526-1.354-0.79-2.26-0.79c-0.48,0-0.867,0.061-1.16,0.181s-0.594,0.293-0.9,0.52c-0.173,0.134-0.316,0.23-0.43,0.29
							c-0.113,0.061-0.236,0.09-0.37,0.09h-0.96c-0.12,0-0.227-0.043-0.319-0.13c-0.094-0.086-0.134-0.189-0.12-0.31l0.62-6.66
							c0.04-0.333,0.206-0.5,0.5-0.5h6.92c0.146,0,0.26,0.04,0.34,0.12s0.12,0.193,0.12,0.34v0.74c0,0.133-0.044,0.24-0.13,0.319
							c-0.087,0.08-0.197,0.12-0.33,0.12h-5.761l-0.359,4.021c0.64-0.453,1.5-0.68,2.58-0.68c0.893,0,1.706,0.177,2.439,0.529
							c0.733,0.354,1.316,0.87,1.75,1.55c0.434,0.681,0.65,1.487,0.65,2.421c0,0.986-0.217,1.836-0.65,2.55
							c-0.434,0.713-1.033,1.253-1.8,1.62c-0.767,0.366-1.644,0.55-2.63,0.55C973.503,483.777,972.636,483.597,971.903,483.237z"/>
						<path fill="#E74C3C" d="M981.104,485.137c-0.08-0.079-0.12-0.173-0.12-0.279c0-0.054,0.02-0.134,0.06-0.24l6.84-16.42
							c0.12-0.227,0.293-0.34,0.521-0.34h0.74c0.106,0,0.199,0.04,0.279,0.12s0.12,0.173,0.12,0.279c0,0.054-0.02,0.134-0.06,0.24
							l-6.86,16.42c-0.026,0.08-0.083,0.156-0.17,0.23c-0.087,0.073-0.203,0.109-0.35,0.109h-0.721
							C981.276,485.257,981.184,485.217,981.104,485.137z"/>
						<path fill="#E74C3C" d="M993.293,483.268c-0.794-0.341-1.41-0.83-1.851-1.471c-0.439-0.64-0.659-1.387-0.659-2.239
							c0-0.787,0.196-1.477,0.59-2.07c0.393-0.594,0.923-1.05,1.59-1.37c-0.533-0.307-0.947-0.71-1.24-1.21s-0.439-1.09-0.439-1.771
							c0-1.159,0.433-2.076,1.3-2.75c0.866-0.673,2.007-1.01,3.42-1.01s2.55,0.334,3.41,1c0.859,0.667,1.29,1.587,1.29,2.76
							c0,0.667-0.147,1.25-0.44,1.75s-0.7,0.91-1.22,1.23c0.666,0.32,1.196,0.776,1.59,1.37s0.59,1.29,0.59,2.09
							c0,0.854-0.22,1.597-0.66,2.23c-0.439,0.633-1.057,1.119-1.85,1.46c-0.794,0.34-1.697,0.51-2.71,0.51
							C994.989,483.777,994.086,483.607,993.293,483.268z M998.373,481.497c0.633-0.479,0.95-1.12,0.95-1.92s-0.317-1.44-0.95-1.92
							c-0.634-0.48-1.424-0.72-2.37-0.72c-0.96,0-1.757,0.239-2.39,0.72c-0.634,0.479-0.95,1.12-0.95,1.92s0.316,1.44,0.95,1.92
							c0.633,0.48,1.43,0.72,2.39,0.72C996.949,482.217,997.739,481.978,998.373,481.497z M998.062,474.777
							c0.561-0.4,0.841-0.934,0.841-1.601c0-0.68-0.277-1.223-0.83-1.63c-0.554-0.406-1.244-0.609-2.07-0.609
							c-0.84,0-1.533,0.203-2.08,0.609c-0.547,0.407-0.82,0.95-0.82,1.63c0,0.681,0.273,1.224,0.82,1.631
							c0.547,0.406,1.24,0.609,2.08,0.609C996.816,475.391,997.503,475.177,998.062,474.777z"/>
						<path fill="#E74C3C" d="M1003.553,473.058c-0.061-0.08-0.077-0.181-0.05-0.301l0.439-2.8c0.054-0.387,0.24-0.58,0.561-0.58
							h1.279c0.094,0,0.17,0.033,0.23,0.101c0.06,0.066,0.09,0.146,0.09,0.239c0,0.134-0.02,0.24-0.06,0.32l-1.04,2.7
							c-0.067,0.146-0.141,0.257-0.221,0.33s-0.199,0.109-0.359,0.109h-0.62C1003.695,473.177,1003.612,473.137,1003.553,473.058z
							 M1006.692,473.058c-0.06-0.08-0.077-0.181-0.05-0.301l0.44-2.8c0.053-0.387,0.239-0.58,0.56-0.58h1.28
							c0.093,0,0.17,0.033,0.229,0.101c0.061,0.066,0.09,0.146,0.09,0.239c0,0.134-0.02,0.24-0.06,0.32l-1.04,2.7
							c-0.067,0.146-0.14,0.257-0.22,0.33s-0.2,0.109-0.36,0.109h-0.62C1006.836,473.177,1006.753,473.137,1006.692,473.058z"/>
						<path fill="#E74C3C" d="M906.964,505.047c-0.08-0.087-0.12-0.196-0.12-0.33v-11.28l-3.359,2.58
							c-0.094,0.08-0.194,0.12-0.301,0.12c-0.12,0-0.233-0.066-0.34-0.2l-0.479-0.62c-0.067-0.093-0.101-0.187-0.101-0.279
							c0-0.146,0.066-0.267,0.2-0.36l4.34-3.36c0.146-0.093,0.32-0.14,0.521-0.14h0.939c0.134,0,0.243,0.043,0.33,0.13
							s0.13,0.197,0.13,0.33v13.08c0,0.134-0.043,0.243-0.13,0.33s-0.196,0.13-0.33,0.13h-0.979
							C907.15,505.177,907.044,505.134,906.964,505.047z"/>
						<path fill="#E74C3C" d="M915.464,505.047c-0.08-0.087-0.12-0.196-0.12-0.33v-11.28l-3.359,2.58
							c-0.094,0.08-0.194,0.12-0.301,0.12c-0.12,0-0.233-0.066-0.34-0.2l-0.479-0.62c-0.067-0.093-0.101-0.187-0.101-0.279
							c0-0.146,0.066-0.267,0.2-0.36l4.34-3.36c0.146-0.093,0.32-0.14,0.521-0.14h0.939c0.134,0,0.243,0.043,0.33,0.13
							s0.13,0.197,0.13,0.33v13.08c0,0.134-0.043,0.243-0.13,0.33s-0.196,0.13-0.33,0.13h-0.979
							C915.65,505.177,915.544,505.134,915.464,505.047z"/>
						<path fill="#E74C3C" d="M920.254,505.047c-0.087-0.087-0.131-0.196-0.131-0.33v-1.38c0-0.133,0.044-0.247,0.131-0.34
							c0.086-0.094,0.196-0.141,0.329-0.141h1.381c0.133,0,0.243,0.047,0.329,0.141c0.087,0.093,0.131,0.207,0.131,0.34v1.38
							c0,0.134-0.044,0.243-0.131,0.33c-0.086,0.087-0.196,0.13-0.329,0.13h-1.381C920.45,505.177,920.34,505.134,920.254,505.047z"
							/>
						<path fill="#E74C3C" d="M931.153,505.047c-0.087-0.087-0.13-0.196-0.13-0.33v-2.92h-6.5c-0.133,0-0.243-0.043-0.33-0.13
							s-0.13-0.197-0.13-0.33v-0.74c0-0.187,0.073-0.387,0.22-0.6l6.021-8.48c0.066-0.106,0.166-0.189,0.3-0.25
							c0.133-0.06,0.28-0.09,0.44-0.09h1.359c0.146,0,0.261,0.04,0.34,0.12c0.08,0.08,0.12,0.193,0.12,0.34v8.48h1.82
							c0.133,0,0.243,0.043,0.33,0.13s0.13,0.196,0.13,0.33v0.76c0,0.133-0.043,0.243-0.13,0.33s-0.197,0.13-0.33,0.13h-1.82v2.92
							c0,0.134-0.043,0.243-0.13,0.33s-0.196,0.13-0.33,0.13h-0.92C931.351,505.177,931.24,505.134,931.153,505.047z
							 M926.144,500.157h4.9v-6.961L926.144,500.157z"/>
						<path fill="#E74C3C" d="M937.313,499.856c-0.087-0.08-0.13-0.187-0.13-0.319v-0.721c0-0.133,0.043-0.243,0.13-0.33
							c0.087-0.086,0.196-0.13,0.33-0.13h6c0.133,0,0.243,0.044,0.33,0.13c0.086,0.087,0.13,0.197,0.13,0.33v0.721
							c0,0.133-0.044,0.239-0.13,0.319c-0.087,0.08-0.197,0.12-0.33,0.12h-6C937.51,499.977,937.4,499.937,937.313,499.856z"/>
						<path fill="#E74C3C" d="M949.943,505.047c-0.08-0.087-0.12-0.196-0.12-0.33v-11.28l-3.359,2.58
							c-0.094,0.08-0.194,0.12-0.301,0.12c-0.12,0-0.233-0.066-0.34-0.2l-0.479-0.62c-0.067-0.093-0.101-0.187-0.101-0.279
							c0-0.146,0.066-0.267,0.2-0.36l4.34-3.36c0.146-0.093,0.32-0.14,0.521-0.14h0.939c0.134,0,0.243,0.043,0.33,0.13
							s0.13,0.197,0.13,0.33v13.08c0,0.134-0.043,0.243-0.13,0.33s-0.196,0.13-0.33,0.13h-0.979
							C950.13,505.177,950.023,505.134,949.943,505.047z"/>
						<path fill="#E74C3C" d="M958.443,505.047c-0.08-0.087-0.12-0.196-0.12-0.33v-11.28l-3.359,2.58
							c-0.094,0.08-0.194,0.12-0.301,0.12c-0.12,0-0.233-0.066-0.34-0.2l-0.479-0.62c-0.067-0.093-0.101-0.187-0.101-0.279
							c0-0.146,0.066-0.267,0.2-0.36l4.34-3.36c0.146-0.093,0.32-0.14,0.521-0.14h0.939c0.134,0,0.243,0.043,0.33,0.13
							s0.13,0.197,0.13,0.33v13.08c0,0.134-0.043,0.243-0.13,0.33s-0.196,0.13-0.33,0.13h-0.979
							C958.63,505.177,958.523,505.134,958.443,505.047z"/>
						<path fill="#E74C3C" d="M963.233,505.047c-0.087-0.087-0.13-0.196-0.13-0.33v-1.38c0-0.133,0.043-0.247,0.13-0.34
							c0.087-0.094,0.196-0.141,0.33-0.141h1.38c0.133,0,0.243,0.047,0.33,0.141c0.087,0.093,0.13,0.207,0.13,0.34v1.38
							c0,0.134-0.043,0.243-0.13,0.33s-0.197,0.13-0.33,0.13h-1.38C963.43,505.177,963.32,505.134,963.233,505.047z"/>
						<path fill="#E74C3C" d="M968.854,505.047c-0.073-0.087-0.11-0.19-0.11-0.311l0.04-0.18l5-11.7h-6.6
							c-0.134,0-0.244-0.043-0.33-0.13c-0.087-0.086-0.13-0.196-0.13-0.33v-0.739c0-0.147,0.04-0.264,0.12-0.351
							c0.079-0.087,0.192-0.13,0.34-0.13h8.16c0.146,0,0.26,0.043,0.34,0.13s0.12,0.203,0.12,0.351v0.68c0,0.24-0.054,0.5-0.16,0.78
							l-4.94,11.56c-0.066,0.146-0.14,0.267-0.22,0.36c-0.08,0.093-0.193,0.14-0.34,0.14h-1
							C969.023,505.177,968.927,505.134,968.854,505.047z"/>
						<path fill="#E74C3C" d="M983.583,504.167c-0.8-0.807-1.22-1.937-1.26-3.391l-0.021-0.8l0.021-0.8
							c0.04-1.453,0.46-2.583,1.26-3.39s1.913-1.21,3.34-1.21c0.96,0,1.771,0.17,2.43,0.51c0.66,0.34,1.153,0.764,1.48,1.27
							c0.326,0.507,0.503,1.014,0.53,1.521c0.013,0.12-0.03,0.227-0.13,0.319c-0.101,0.094-0.211,0.141-0.33,0.141h-0.881
							c-0.133,0-0.233-0.03-0.3-0.09c-0.066-0.061-0.133-0.17-0.2-0.33c-0.239-0.653-0.569-1.117-0.989-1.391
							c-0.42-0.272-0.95-0.409-1.59-0.409c-0.841,0-1.507,0.26-2,0.779c-0.494,0.521-0.761,1.313-0.801,2.38l-0.02,0.7l0.02,0.7
							c0.04,1.066,0.307,1.86,0.801,2.38c0.493,0.521,1.159,0.78,2,0.78c0.652,0,1.187-0.137,1.6-0.41s0.74-0.736,0.979-1.39
							c0.067-0.16,0.134-0.271,0.2-0.33c0.066-0.061,0.167-0.09,0.3-0.09h0.881c0.119,0,0.229,0.047,0.33,0.14
							c0.1,0.094,0.143,0.2,0.13,0.32c-0.027,0.493-0.204,0.993-0.53,1.5c-0.327,0.507-0.82,0.933-1.48,1.279
							c-0.659,0.347-1.47,0.521-2.43,0.521C985.496,505.377,984.383,504.974,983.583,504.167z"/>
						<path fill="#E74C3C" d="M993.893,505.047c-0.087-0.087-0.13-0.196-0.13-0.33v-9.48c0-0.133,0.043-0.243,0.13-0.329
							c0.087-0.087,0.196-0.131,0.33-0.131h0.84c0.133,0,0.24,0.044,0.32,0.131c0.08,0.086,0.12,0.196,0.12,0.329v0.681
							c0.72-0.894,1.692-1.34,2.92-1.34c1.466,0,2.506,0.613,3.119,1.84c0.32-0.561,0.777-1.007,1.37-1.34
							c0.594-0.334,1.257-0.5,1.99-0.5c1.093,0,1.986,0.373,2.68,1.119c0.693,0.747,1.04,1.827,1.04,3.24v5.78
							c0,0.134-0.043,0.243-0.13,0.33s-0.196,0.13-0.33,0.13h-0.859c-0.134,0-0.244-0.043-0.33-0.13
							c-0.087-0.087-0.13-0.196-0.13-0.33v-5.6c0-1.067-0.221-1.83-0.66-2.29c-0.44-0.46-1.021-0.69-1.74-0.69
							c-0.64,0-1.189,0.237-1.65,0.71c-0.46,0.474-0.689,1.23-0.689,2.271v5.6c0,0.134-0.044,0.243-0.13,0.33
							c-0.087,0.087-0.197,0.13-0.33,0.13h-0.88c-0.134,0-0.244-0.043-0.33-0.13c-0.087-0.087-0.13-0.196-0.13-0.33v-5.6
							c0-1.054-0.23-1.813-0.69-2.28s-1.03-0.7-1.71-0.7c-0.64,0-1.189,0.233-1.649,0.7c-0.461,0.467-0.69,1.22-0.69,2.26v5.62
							c0,0.134-0.044,0.243-0.13,0.33c-0.087,0.087-0.197,0.13-0.33,0.13h-0.88C994.089,505.177,993.979,505.134,993.893,505.047z"
							/>
					</g>
				</g>
			</g>
		</g>
	</g>
</g>
<g id="N-TEXT">
	<g id="MTEXT_4_">
		<g>
			<g>
				<path fill="#E74C3C" d="M1229.948,678.042c1.392,1.088,2.312,2.568,2.76,4.44h-3.552c-0.368-0.912-0.94-1.632-1.716-2.16
					c-0.776-0.528-1.708-0.792-2.796-0.792c-0.896,0-1.704,0.225-2.424,0.672c-0.72,0.448-1.28,1.088-1.68,1.92
					c-0.4,0.832-0.6,1.808-0.6,2.928c0,1.104,0.2,2.072,0.6,2.904c0.4,0.832,0.96,1.472,1.68,1.92
					c0.72,0.448,1.527,0.672,2.424,0.672c1.088,0,2.02-0.264,2.796-0.792c0.776-0.528,1.348-1.248,1.716-2.16h3.552
					c-0.448,1.872-1.368,3.353-2.76,4.44c-1.392,1.088-3.144,1.632-5.256,1.632c-1.616,0-3.044-0.364-4.284-1.092
					c-1.24-0.728-2.2-1.748-2.88-3.06s-1.02-2.8-1.02-4.464c0-1.68,0.34-3.176,1.02-4.488s1.636-2.332,2.868-3.06
					c1.232-0.728,2.664-1.092,4.296-1.092C1226.804,676.41,1228.556,676.954,1229.948,678.042z"/>
				<path fill="#E74C3C" d="M1244.888,680.874c1.032,0.544,1.844,1.332,2.436,2.364c0.592,1.032,0.888,2.244,0.888,3.636
					s-0.296,2.6-0.888,3.624s-1.404,1.812-2.436,2.364c-1.032,0.552-2.196,0.828-3.492,0.828c-1.296,0-2.46-0.276-3.492-0.828
					c-1.032-0.552-1.844-1.34-2.436-2.364c-0.592-1.024-0.888-2.232-0.888-3.624s0.296-2.604,0.888-3.636
					c0.592-1.032,1.404-1.82,2.436-2.364s2.196-0.816,3.492-0.816C1242.692,680.058,1243.856,680.33,1244.888,680.874z
					 M1238.996,683.982c-0.656,0.664-0.984,1.628-0.984,2.892c0,1.264,0.328,2.228,0.984,2.892s1.456,0.996,2.4,0.996
					c0.944,0,1.744-0.332,2.4-0.996c0.656-0.664,0.984-1.628,0.984-2.892c0-1.264-0.328-2.228-0.984-2.892
					c-0.656-0.664-1.456-0.996-2.4-0.996C1240.452,682.986,1239.652,683.318,1238.996,683.982z"/>
				<path fill="#E74C3C" d="M1255.964,680.766c0.816-0.488,1.728-0.732,2.736-0.732v3.624h-0.984c-2.48,0-3.72,1.152-3.72,3.456
					v6.408h-3.384v-13.296h3.384v2.544C1254.491,681.922,1255.147,681.254,1255.964,680.766z"/>
				<path fill="#E74C3C" d="M1272.164,681.546c0.912,1.008,1.368,2.424,1.368,4.248v7.728h-3.36v-7.344
					c0-1.056-0.272-1.875-0.816-2.46c-0.544-0.583-1.288-0.876-2.232-0.876c-0.96,0-1.728,0.312-2.304,0.936
					c-0.576,0.624-0.864,1.521-0.864,2.688v7.056h-3.384v-13.296h3.384v2.664c0.352-0.896,0.932-1.596,1.74-2.1
					c0.808-0.504,1.74-0.756,2.796-0.756C1270.028,680.034,1271.251,680.538,1272.164,681.546z"/>
				<path fill="#E74C3C" d="M1288.891,687.522h-9.744c0.048,1.184,0.368,2.056,0.96,2.616c0.591,0.56,1.328,0.84,2.208,0.84
					c0.784,0,1.436-0.192,1.956-0.576c0.52-0.384,0.852-0.904,0.996-1.56h3.576c-0.176,0.928-0.552,1.76-1.128,2.496
					c-0.576,0.736-1.316,1.312-2.22,1.728c-0.904,0.417-1.908,0.624-3.012,0.624c-1.296,0-2.448-0.276-3.456-0.828
					c-1.008-0.552-1.792-1.34-2.352-2.364c-0.561-1.024-0.84-2.232-0.84-3.624s0.28-2.604,0.84-3.636
					c0.56-1.032,1.344-1.82,2.352-2.364c1.008-0.544,2.16-0.816,3.456-0.816c1.312,0,2.46,0.272,3.444,0.816s1.744,1.292,2.28,2.244
					s0.804,2.036,0.804,3.252C1289.011,686.706,1288.971,687.09,1288.891,687.522z M1284.751,683.562
					c-0.616-0.56-1.372-0.84-2.268-0.84c-0.912,0-1.68,0.28-2.304,0.84s-0.968,1.384-1.032,2.472h6.456
					C1285.651,684.946,1285.367,684.122,1284.751,683.562z"/>
				<path fill="#E74C3C" d="M1296.763,680.766c0.816-0.488,1.728-0.732,2.736-0.732v3.624h-0.984c-2.48,0-3.72,1.152-3.72,3.456
					v6.408h-3.384v-13.296h3.384v2.544C1295.291,681.922,1295.947,681.254,1296.763,680.766z"/>
				<path fill="#E74C3C" d="M1309.986,687.234v6.288h-3.384v-16.944h6.168c2,0,3.508,0.48,4.524,1.44
					c1.016,0.96,1.524,2.264,1.524,3.912c0,1.616-0.524,2.904-1.572,3.864c-1.048,0.96-2.541,1.44-4.476,1.44H1309.986z
					 M1315.386,681.93c0-0.848-0.232-1.496-0.696-1.944c-0.464-0.448-1.224-0.672-2.28-0.672h-2.424v5.208h2.424
					C1314.394,684.522,1315.386,683.658,1315.386,681.93z"/>
				<path fill="#E74C3C" d="M1330.662,680.874c1.032,0.544,1.844,1.332,2.436,2.364c0.592,1.032,0.888,2.244,0.888,3.636
					s-0.296,2.6-0.888,3.624s-1.404,1.812-2.436,2.364c-1.032,0.552-2.196,0.828-3.492,0.828c-1.296,0-2.46-0.276-3.492-0.828
					c-1.032-0.552-1.844-1.34-2.436-2.364c-0.592-1.024-0.888-2.232-0.888-3.624s0.296-2.604,0.888-3.636
					c0.592-1.032,1.404-1.82,2.436-2.364s2.196-0.816,3.492-0.816C1328.466,680.058,1329.63,680.33,1330.662,680.874z
					 M1324.77,683.982c-0.656,0.664-0.984,1.628-0.984,2.892c0,1.264,0.328,2.228,0.984,2.892s1.456,0.996,2.4,0.996
					c0.944,0,1.744-0.332,2.4-0.996c0.656-0.664,0.984-1.628,0.984-2.892c0-1.264-0.328-2.228-0.984-2.892
					c-0.656-0.664-1.456-0.996-2.4-0.996C1326.226,682.986,1325.426,683.318,1324.77,683.982z"/>
				<path fill="#E74C3C" d="M1346.646,681.45c1.144,0.928,1.86,2.192,2.148,3.792h-3.576c-0.144-0.704-0.472-1.26-0.984-1.668
					c-0.512-0.408-1.16-0.612-1.944-0.612c-0.896,0-1.644,0.333-2.244,0.996c-0.6,0.664-0.9,1.636-0.9,2.916
					c0,1.28,0.3,2.252,0.9,2.916c0.6,0.664,1.348,0.996,2.244,0.996c0.784,0,1.432-0.204,1.944-0.612
					c0.512-0.408,0.84-0.963,0.984-1.668h3.576c-0.288,1.6-1.004,2.864-2.148,3.792c-1.144,0.928-2.572,1.392-4.284,1.392
					c-1.296,0-2.448-0.276-3.456-0.828c-1.008-0.552-1.792-1.34-2.352-2.364c-0.561-1.024-0.84-2.232-0.84-3.624
					s0.28-2.604,0.84-3.636c0.56-1.032,1.344-1.82,2.352-2.364c1.008-0.544,2.16-0.816,3.456-0.816
					C1344.074,680.058,1345.502,680.522,1346.646,681.45z"/>
				<path fill="#E74C3C" d="M1358.97,693.522l-4.392-5.808v5.808h-3.384v-17.76h3.384v9.984l4.368-5.52h4.008l-5.592,6.624
					l5.736,6.672H1358.97z"/>
				<path fill="#E74C3C" d="M1377.114,687.522h-9.744c0.048,1.184,0.368,2.056,0.96,2.616c0.591,0.56,1.328,0.84,2.208,0.84
					c0.784,0,1.436-0.192,1.956-0.576c0.52-0.384,0.852-0.904,0.996-1.56h3.576c-0.176,0.928-0.552,1.76-1.128,2.496
					c-0.576,0.736-1.316,1.312-2.22,1.728c-0.904,0.417-1.908,0.624-3.012,0.624c-1.296,0-2.448-0.276-3.456-0.828
					c-1.008-0.552-1.792-1.34-2.352-2.364c-0.561-1.024-0.84-2.232-0.84-3.624s0.28-2.604,0.84-3.636
					c0.56-1.032,1.344-1.82,2.352-2.364c1.008-0.544,2.16-0.816,3.456-0.816c1.312,0,2.46,0.272,3.444,0.816s1.744,1.292,2.28,2.244
					s0.804,2.036,0.804,3.252C1377.234,686.706,1377.194,687.09,1377.114,687.522z M1372.974,683.562
					c-0.616-0.56-1.372-0.84-2.268-0.84c-0.912,0-1.68,0.28-2.304,0.84s-0.968,1.384-1.032,2.472h6.456
					C1373.874,684.946,1373.589,684.122,1372.974,683.562z"/>
				<path fill="#E74C3C" d="M1386.738,690.618v2.904h-1.776c-1.488,0-2.628-0.36-3.42-1.08c-0.792-0.72-1.188-1.92-1.188-3.6v-5.76
					h-1.848v-2.856h1.848v-3.288h3.384v3.288h2.976v2.856h-2.976v5.808c0,0.64,0.128,1.088,0.384,1.344
					c0.256,0.256,0.688,0.384,1.296,0.384H1386.738z"/>
			</g>
		</g>
	</g>
	<g id="MTEXT_3_">
		<g>
			<g>
				<path fill="#E74C3C" d="M116.028,444.278c-0.432,0.729-1.072,1.312-1.92,1.752c-0.848,0.44-1.88,0.66-3.096,0.66
					c-1.2,0-2.272-0.204-3.216-0.612c-0.944-0.408-1.7-0.996-2.268-1.764s-0.892-1.664-0.972-2.688h3.6
					c0.08,0.688,0.356,1.26,0.828,1.716c0.472,0.456,1.1,0.684,1.884,0.684c0.704,0,1.244-0.188,1.62-0.564
					c0.376-0.375,0.564-0.86,0.564-1.452c0-0.528-0.152-0.963-0.456-1.308c-0.304-0.344-0.688-0.62-1.152-0.828
					s-1.104-0.448-1.92-0.72c-1.056-0.352-1.92-0.7-2.592-1.044c-0.672-0.344-1.244-0.844-1.716-1.5
					c-0.472-0.656-0.708-1.512-0.708-2.568c0-1.456,0.524-2.604,1.572-3.444c1.048-0.84,2.436-1.26,4.164-1.26
					c1.792,0,3.22,0.432,4.284,1.296c1.064,0.864,1.668,2.016,1.812,3.456h-3.648c-0.096-0.608-0.352-1.107-0.768-1.5
					c-0.416-0.392-0.984-0.588-1.704-0.588c-0.624,0-1.128,0.164-1.512,0.492s-0.576,0.804-0.576,1.428
					c0,0.496,0.148,0.908,0.444,1.236c0.296,0.328,0.672,0.596,1.128,0.804c0.456,0.208,1.076,0.44,1.86,0.696
					c1.088,0.384,1.972,0.744,2.652,1.08s1.26,0.84,1.74,1.512s0.72,1.552,0.72,2.64C116.676,442.754,116.46,443.55,116.028,444.278
					z"/>
				<path fill="#E74C3C" d="M119.364,428.078c0.384-0.344,0.888-0.516,1.512-0.516c0.624,0,1.128,0.172,1.512,0.516
					c0.384,0.344,0.576,0.788,0.576,1.332c0,0.528-0.192,0.964-0.576,1.308c-0.384,0.344-0.888,0.516-1.512,0.516
					c-0.624,0-1.128-0.172-1.512-0.516c-0.384-0.344-0.576-0.78-0.576-1.308C118.788,428.866,118.98,428.422,119.364,428.078z
					 M122.556,433.226v13.296h-3.384v-13.296H122.556z"/>
				<path fill="#E74C3C" d="M133.704,433.85c0.792,0.528,1.364,1.24,1.716,2.136v-7.224h3.36v17.76h-3.36v-2.784
					c-0.352,0.896-0.924,1.612-1.716,2.148c-0.792,0.537-1.748,0.804-2.868,0.804c-1.12,0-2.128-0.272-3.024-0.816
					c-0.896-0.544-1.596-1.332-2.1-2.364c-0.504-1.032-0.756-2.244-0.756-3.636s0.252-2.604,0.756-3.636
					c0.504-1.032,1.204-1.82,2.1-2.364c0.896-0.544,1.904-0.816,3.024-0.816C131.956,433.058,132.912,433.322,133.704,433.85z
					 M129.348,437.042c-0.64,0.688-0.96,1.632-0.96,2.832c0,1.2,0.32,2.14,0.96,2.82c0.64,0.68,1.488,1.02,2.544,1.02
					c1.024,0,1.868-0.348,2.532-1.044c0.664-0.696,0.996-1.628,0.996-2.796c0-1.184-0.333-2.124-0.996-2.82
					c-0.664-0.696-1.508-1.044-2.532-1.044C130.836,436.01,129.987,436.354,129.348,437.042z"/>
				<path fill="#E74C3C" d="M154.235,440.522h-9.744c0.048,1.184,0.368,2.056,0.96,2.616c0.591,0.56,1.328,0.84,2.208,0.84
					c0.784,0,1.436-0.192,1.956-0.576c0.52-0.384,0.852-0.904,0.996-1.56h3.576c-0.176,0.928-0.552,1.76-1.128,2.496
					c-0.576,0.736-1.316,1.312-2.22,1.728c-0.904,0.417-1.908,0.624-3.012,0.624c-1.296,0-2.448-0.276-3.456-0.828
					c-1.008-0.552-1.792-1.34-2.352-2.364c-0.561-1.024-0.84-2.232-0.84-3.624s0.28-2.604,0.84-3.636
					c0.56-1.032,1.344-1.82,2.352-2.364c1.008-0.544,2.16-0.816,3.456-0.816c1.312,0,2.46,0.272,3.444,0.816s1.744,1.292,2.28,2.244
					s0.804,2.036,0.804,3.252C154.355,439.706,154.315,440.09,154.235,440.522z M150.095,436.562c-0.616-0.56-1.372-0.84-2.268-0.84
					c-0.912,0-1.68,0.28-2.304,0.84s-0.968,1.384-1.032,2.472h6.456C150.996,437.946,150.711,437.122,150.095,436.562z"/>
				<path fill="#E74C3C" d="M165.371,440.234v6.288h-3.384v-16.944h6.168c2,0,3.508,0.48,4.524,1.44
					c1.016,0.96,1.524,2.264,1.524,3.912c0,1.616-0.524,2.904-1.572,3.864c-1.048,0.96-2.541,1.44-4.476,1.44H165.371z
					 M170.771,434.93c0-0.848-0.232-1.496-0.696-1.944c-0.464-0.448-1.224-0.672-2.28-0.672h-2.424v5.208h2.424
					C169.779,437.522,170.771,436.658,170.771,434.93z"/>
				<path fill="#E74C3C" d="M186.047,433.874c1.032,0.544,1.844,1.332,2.436,2.364c0.592,1.032,0.888,2.244,0.888,3.636
					s-0.296,2.6-0.888,3.624s-1.404,1.812-2.436,2.364c-1.032,0.552-2.196,0.828-3.492,0.828c-1.296,0-2.46-0.276-3.492-0.828
					c-1.032-0.552-1.844-1.34-2.436-2.364c-0.592-1.024-0.888-2.232-0.888-3.624s0.296-2.604,0.888-3.636
					c0.592-1.032,1.404-1.82,2.436-2.364s2.196-0.816,3.492-0.816C183.851,433.058,185.015,433.33,186.047,433.874z
					 M180.155,436.982c-0.656,0.664-0.984,1.628-0.984,2.892c0,1.264,0.328,2.228,0.984,2.892s1.456,0.996,2.4,0.996
					c0.944,0,1.744-0.332,2.4-0.996c0.656-0.664,0.984-1.628,0.984-2.892c0-1.264-0.328-2.228-0.984-2.892
					c-0.656-0.664-1.456-0.996-2.4-0.996C181.611,435.986,180.811,436.318,180.155,436.982z"/>
				<path fill="#E74C3C" d="M202.031,434.45c1.144,0.928,1.86,2.192,2.148,3.792h-3.576c-0.144-0.704-0.472-1.26-0.984-1.668
					c-0.512-0.408-1.16-0.612-1.944-0.612c-0.896,0-1.644,0.333-2.244,0.996c-0.6,0.664-0.9,1.636-0.9,2.916
					c0,1.28,0.3,2.252,0.9,2.916c0.6,0.664,1.348,0.996,2.244,0.996c0.784,0,1.432-0.204,1.944-0.612
					c0.512-0.408,0.84-0.963,0.984-1.668h3.576c-0.288,1.6-1.004,2.864-2.148,3.792c-1.144,0.928-2.572,1.392-4.284,1.392
					c-1.296,0-2.448-0.276-3.456-0.828c-1.008-0.552-1.792-1.34-2.352-2.364c-0.561-1.024-0.84-2.232-0.84-3.624
					s0.28-2.604,0.84-3.636c0.56-1.032,1.344-1.82,2.352-2.364c1.008-0.544,2.16-0.816,3.456-0.816
					C199.458,433.058,200.887,433.522,202.031,434.45z"/>
				<path fill="#E74C3C" d="M214.354,446.522l-4.392-5.808v5.808h-3.384v-17.76h3.384v9.984l4.368-5.52h4.008l-5.592,6.624
					l5.736,6.672H214.354z"/>
				<path fill="#E74C3C" d="M232.499,440.522h-9.744c0.048,1.184,0.368,2.056,0.96,2.616c0.591,0.56,1.328,0.84,2.208,0.84
					c0.784,0,1.436-0.192,1.956-0.576c0.52-0.384,0.852-0.904,0.996-1.56h3.576c-0.176,0.928-0.552,1.76-1.128,2.496
					c-0.576,0.736-1.316,1.312-2.22,1.728c-0.904,0.417-1.908,0.624-3.012,0.624c-1.296,0-2.448-0.276-3.456-0.828
					c-1.008-0.552-1.792-1.34-2.352-2.364c-0.561-1.024-0.84-2.232-0.84-3.624s0.28-2.604,0.84-3.636
					c0.56-1.032,1.344-1.82,2.352-2.364c1.008-0.544,2.16-0.816,3.456-0.816c1.312,0,2.46,0.272,3.444,0.816s1.744,1.292,2.28,2.244
					s0.804,2.036,0.804,3.252C232.619,439.706,232.579,440.09,232.499,440.522z M228.358,436.562c-0.616-0.56-1.372-0.84-2.268-0.84
					c-0.912,0-1.68,0.28-2.304,0.84s-0.968,1.384-1.032,2.472h6.456C229.259,437.946,228.974,437.122,228.358,436.562z"/>
				<path fill="#E74C3C" d="M242.123,443.618v2.904h-1.776c-1.488,0-2.628-0.36-3.42-1.08c-0.792-0.72-1.188-1.92-1.188-3.6v-5.76
					h-1.848v-2.856h1.848v-3.288h3.384v3.288h2.976v2.856h-2.976v5.808c0,0.64,0.128,1.088,0.384,1.344
					c0.256,0.256,0.688,0.384,1.296,0.384H242.123z"/>
			</g>
		</g>
	</g>
</g>
<g id="AG-DIAGRAM">
	<g id="POLYLINE_612_">
		<g>
			<g>

					<line fill="none" stroke="#E74C3C" stroke-width="3" stroke-linecap="round" stroke-linejoin="round" x1="105.029" y1="409.383" x2="105.029" y2="407.383"/>

					<line fill="none" stroke="#E74C3C" stroke-width="3" stroke-linecap="round" stroke-linejoin="round" stroke-dasharray="3.977,5.9655" x1="105.029" y1="401.417" x2="105.029" y2="86.24"/>

					<line fill="none" stroke="#E74C3C" stroke-width="3" stroke-linecap="round" stroke-linejoin="round" x1="105.029" y1="83.258" x2="105.029" y2="81.258"/>
			</g>
		</g>
	</g>
	<g id="POLYLINE_611_">
		<g>
			<g>

					<line fill="none" stroke="#E74C3C" stroke-width="3" stroke-linecap="round" stroke-linejoin="round" x1="761.279" y1="409.383" x2="761.279" y2="407.383"/>

					<line fill="none" stroke="#E74C3C" stroke-width="3" stroke-linecap="round" stroke-linejoin="round" stroke-dasharray="3.977,5.9655" x1="761.279" y1="401.417" x2="761.279" y2="86.24"/>

					<line fill="none" stroke="#E74C3C" stroke-width="3" stroke-linecap="round" stroke-linejoin="round" x1="761.279" y1="83.258" x2="761.279" y2="81.258"/>
			</g>
		</g>
	</g>
	<g id="POLYLINE_610_">
		<g>
			<g>

					<line fill="none" stroke="#E74C3C" stroke-width="3" stroke-linecap="round" stroke-linejoin="round" x1="831.592" y1="409.383" x2="831.592" y2="407.383"/>

					<line fill="none" stroke="#E74C3C" stroke-width="3" stroke-linecap="round" stroke-linejoin="round" stroke-dasharray="3.977,5.9655" x1="831.592" y1="401.417" x2="831.592" y2="86.24"/>

					<line fill="none" stroke="#E74C3C" stroke-width="3" stroke-linecap="round" stroke-linejoin="round" x1="831.592" y1="83.258" x2="831.592" y2="81.258"/>
			</g>
		</g>
	</g>
	<g id="POLYLINE_609_">
		<g>
			<g>

					<line fill="none" stroke="#E74C3C" stroke-width="3" stroke-linecap="round" stroke-linejoin="round" x1="1397.756" y1="647.422" x2="1395.756" y2="647.422"/>

					<line fill="none" stroke="#E74C3C" stroke-width="3" stroke-linecap="round" stroke-linejoin="round" stroke-dasharray="3.977,5.9655" x1="1389.79" y1="647.422" x2="1074.614" y2="647.422"/>

					<line fill="none" stroke="#E74C3C" stroke-width="3" stroke-linecap="round" stroke-linejoin="round" x1="1071.631" y1="647.422" x2="1069.631" y2="647.422"/>
			</g>
		</g>
	</g>
</g>
<g id="AG-DETAIL-DIAGRAM">
</g>
<g id="AG-DETAIL">
</g>
<g id="AG-PEOPLE">
</g>
<g id="AG-SPORTS">
	<g id="POLYLINE_470_">

			<line fill="none" stroke="#E74C3C" stroke-width="2.5" stroke-linecap="round" stroke-linejoin="round" stroke-miterlimit="10" x1="105.029" y1="81.258" x2="761.279" y2="81.258"/>
	</g>
	<g id="POLYLINE_469_">

			<path fill="none" stroke="#E74C3C" stroke-width="2.5" stroke-linecap="round" stroke-linejoin="round" stroke-miterlimit="10" d="
			M831.592,81.258c1.773,0,3.546,0,5.319,0c4.927,0,9.853,0,14.78,0c7.549,0,15.097,0,22.646,0c9.694,0,19.388,0,29.083,0
			c11.206,0,22.411,0,33.617,0c12.231,0,24.462,0,36.693,0c12.792,0,25.583,0,38.375,0c12.686,0,25.372,0,38.058,0
			c12.115,0,24.229,0,36.344,0c11.065,0,22.13,0,33.196,0c9.368,0,18.735,0,28.103,0c7.199,0,14.399,0,21.598,0
			c4.507,0,9.015,0,13.522,0c2.511,0,5.023-0.012,7.534,0.031c8.43,0.146,16.842,0.818,25.195,1.951
			c8.252,1.119,16.408,2.809,24.473,4.871c8.061,2.061,15.973,4.708,23.724,7.724c7.675,2.987,15.169,6.463,22.427,10.353
			c7.267,3.894,14.345,8.177,21.091,12.92c6.822,4.797,13.442,9.907,19.645,15.487c6.226,5.601,12.176,11.489,17.727,17.764
			c5.605,6.336,10.833,13.009,15.644,19.968c4.785,6.922,9.118,14.141,13.063,21.572c3.895,7.336,7.267,14.935,10.277,22.672
			c2.991,7.685,5.455,15.582,7.497,23.57c2.056,8.041,3.638,16.21,4.709,24.441c1.066,8.184,1.727,16.44,1.798,24.696
			c0.021,2.389,0.025,4.778,0.025,7.167c0,4.608,0,9.215,0,13.823c0,7.332,0,14.664,0,21.995c0,9.446,0,18.893,0,28.339
			c0,11.061,0,22.123,0,33.184c0,12.21,0,24.42,0,36.63c0,12.698,0,25.397,0,38.095c0,12.716,0,25.433,0,38.149
			c0,12.264,0,24.528,0,36.793c0,11.151,0,22.303,0,33.454c0,9.573,0,19.145,0,28.718c0,7.495,0,14.99,0,22.484
			c0,4.806,0,9.612,0,14.417c0,1.633,0,3.265,0,4.898"/>
	</g>
	<g id="POLYLINE_468_">

			<polygon fill="none" stroke="#E74C3C" stroke-width="2.5" stroke-linecap="round" stroke-linejoin="round" stroke-miterlimit="10" points="
			1131.613,496.556 1189.864,438.305 1190.752,437.406 1191.63,436.496 1192.5,435.572 1193.36,434.636 1194.211,433.688
			1195.052,432.728 1195.883,431.755 1196.704,430.771 1197.514,429.775 1198.313,428.767 1199.101,427.749 1199.878,426.718
			1200.643,425.677 1201.397,424.625 1202.139,423.563 1202.868,422.49 1203.586,421.407 1204.29,420.313 1204.982,419.21
			1205.661,418.098 1206.326,416.976 1206.978,415.845 1207.617,414.705 1208.242,413.556 1208.853,412.399 1209.45,411.234
			1210.032,410.061 1210.601,408.881 1211.154,407.693 1211.693,406.498 1212.218,405.296 1212.727,404.088 1213.221,402.874
			1213.7,401.653 1214.164,400.427 1214.612,399.196 1215.045,397.959 1215.463,396.718 1215.864,395.472 1216.25,394.222
			1216.621,392.968 1216.975,391.71 1217.314,390.449 1217.636,389.185 1217.943,387.919 1218.234,386.65 1218.509,385.378
			1218.768,384.105 1219.011,382.831 1219.238,381.555 1219.448,380.278 1219.643,379.001 1219.823,377.723 1219.986,376.445
			1220.133,375.168 1220.264,373.891 1220.38,372.614 1220.48,371.339 1220.565,370.065 1220.633,368.793 1220.687,367.523
			1220.725,366.255 1220.748,364.99 1220.755,363.727 1220.748,362.464 1220.725,361.199 1220.687,359.931 1220.633,358.661
			1220.565,357.389 1220.48,356.115 1220.38,354.84 1220.264,353.564 1220.133,352.286 1219.986,351.009 1219.823,349.731
			1219.643,348.453 1219.448,347.176 1219.238,345.899 1219.011,344.623 1218.768,343.349 1218.509,342.076 1218.234,340.804
			1217.943,339.535 1217.636,338.269 1217.314,337.005 1216.975,335.744 1216.621,334.486 1216.25,333.232 1215.864,331.982
			1215.463,330.736 1215.045,329.495 1214.612,328.258 1214.164,327.027 1213.7,325.801 1213.221,324.58 1212.727,323.366
			1212.218,322.158 1211.693,320.956 1211.154,319.761 1210.601,318.573 1210.032,317.393 1209.45,316.22 1208.853,315.055
			1208.242,313.898 1207.617,312.749 1206.978,311.609 1206.326,310.478 1205.661,309.356 1204.982,308.244 1204.29,307.141
			1203.586,306.047 1202.868,304.964 1202.139,303.891 1201.397,302.829 1200.644,301.777 1199.878,300.736 1199.101,299.706
			1198.313,298.687 1197.514,297.679 1196.704,296.683 1195.883,295.699 1195.052,294.726 1194.211,293.766 1193.36,292.818
			1192.5,291.882 1191.63,290.958 1190.752,290.048 1189.864,289.149 1188.966,288.262 1188.055,287.383 1187.131,286.513
			1186.196,285.653 1185.247,284.802 1184.287,283.961 1183.315,283.13 1182.33,282.31 1181.334,281.5 1180.327,280.701
			1179.308,279.912 1178.278,279.135 1177.237,278.37 1176.185,277.616 1175.122,276.875 1174.049,276.145 1172.966,275.428
			1171.873,274.723 1170.77,274.032 1169.657,273.353 1168.535,272.687 1167.404,272.035 1166.264,271.396 1165.116,270.772
			1163.959,270.161 1162.794,269.564 1161.621,268.981 1160.44,268.413 1159.252,267.859 1158.057,267.32 1156.856,266.796
			1155.648,266.287 1154.433,265.792 1153.213,265.313 1151.987,264.85 1150.755,264.401 1149.519,263.968 1148.277,263.551
			1147.031,263.149 1145.781,262.763 1144.527,262.393 1143.27,262.038 1142.009,261.7 1140.745,261.377 1139.478,261.07
			1138.209,260.779 1136.938,260.505 1135.665,260.246 1134.39,260.003 1133.114,259.776 1131.838,259.565 1130.56,259.37
			1129.282,259.191 1128.005,259.028 1126.727,258.881 1125.45,258.749 1124.174,258.633 1122.899,258.533 1121.625,258.449
			1120.353,258.38 1119.083,258.327 1117.815,258.289 1116.549,258.266 1115.286,258.258 1114.024,258.266 1112.758,258.289
			1111.49,258.327 1110.22,258.38 1108.948,258.449 1107.674,258.533 1106.399,258.633 1105.123,258.749 1103.846,258.881
			1102.568,259.028 1101.291,259.191 1100.013,259.37 1098.735,259.565 1097.459,259.776 1096.183,260.003 1094.908,260.246
			1093.635,260.505 1092.364,260.779 1091.095,261.07 1089.828,261.377 1088.564,261.7 1087.303,262.038 1086.046,262.393
			1084.792,262.763 1083.542,263.149 1082.296,263.551 1081.054,263.968 1079.818,264.401 1078.586,264.85 1077.36,265.313
			1076.14,265.792 1074.925,266.287 1073.717,266.796 1072.515,267.32 1071.321,267.859 1070.133,268.413 1068.952,268.981
			1067.779,269.564 1066.614,270.161 1065.457,270.772 1064.309,271.396 1063.169,272.035 1062.038,272.687 1060.916,273.353
			1059.803,274.032 1058.7,274.723 1057.607,275.428 1056.524,276.145 1055.451,276.875 1054.388,277.616 1053.336,278.37
			1052.295,279.135 1051.265,279.912 1050.246,280.701 1049.239,281.5 1048.243,282.31 1047.258,283.13 1046.286,283.961
			1045.326,284.802 1044.377,285.653 1043.441,286.513 1042.518,287.383 1041.607,288.262 1040.709,289.149 982.458,347.401
			982.722,353.971 983.057,360.263 983.461,366.287 983.932,372.049 984.47,377.559 985.071,382.823 985.396,385.366
			985.736,387.851 986.092,390.279 986.462,392.651 986.848,394.968 987.248,397.231 987.663,399.44 988.093,401.598
			988.536,403.705 988.994,405.762 989.466,407.77 989.951,409.73 990.449,411.643 990.961,413.511 991.486,415.334
			992.024,417.112 992.575,418.848 993.138,420.543 993.714,422.196 994.301,423.81 994.901,425.385 995.513,426.923
			996.136,428.424 996.77,429.889 997.416,431.32 998.072,432.717 998.74,434.082 999.418,435.415 1000.107,436.717
			1000.806,437.99 1001.515,439.235 1002.234,440.452 1002.962,441.643 1003.7,442.809 1004.448,443.95 1005.205,445.068
			1005.97,446.163 1006.744,447.237 1007.527,448.291 1008.319,449.326 1009.118,450.342 1009.926,451.341 1010.741,452.324
			1011.564,453.292 1012.395,454.246 1013.232,455.187 1014.077,456.115 1014.929,457.033 1015.787,457.94 1016.652,458.839
			1018.401,460.613 1020.175,462.361 1021.073,463.226 1021.981,464.085 1022.898,464.936 1023.827,465.781 1024.767,466.619
			1025.721,467.449 1026.689,468.272 1027.672,469.088 1028.671,469.895 1029.688,470.695 1030.722,471.486 1031.776,472.269
			1032.85,473.043 1033.946,473.809 1035.064,474.566 1036.205,475.313 1037.37,476.051 1038.561,476.78 1039.778,477.499
			1041.023,478.208 1042.296,478.907 1043.599,479.595 1044.932,480.273 1046.297,480.941 1047.694,481.598 1049.124,482.243
			1050.59,482.878 1052.091,483.501 1053.628,484.112 1055.203,484.712 1056.817,485.3 1058.471,485.875 1060.165,486.439
			1061.901,486.989 1063.68,487.527 1065.503,488.052 1067.37,488.564 1069.283,489.063 1071.243,489.548 1073.251,490.02
			1075.308,490.477 1077.415,490.921 1079.573,491.35 1081.783,491.765 1084.046,492.166 1086.362,492.551 1088.734,492.922
			1091.162,493.277 1093.647,493.617 1096.19,493.942 1101.455,494.544 1106.964,495.081 1112.727,495.552 1118.75,495.956
			1125.043,496.291 		"/>
	</g>
	<g id="POLYLINE_467_">

			<line fill="none" stroke="#E74C3C" stroke-width="2.5" stroke-linecap="round" stroke-linejoin="round" stroke-miterlimit="10" x1="1057.035" y1="275.804" x2="1057.035" y2="81.258"/>
	</g>
	<g id="POLYLINE_466_">

			<line fill="none" stroke="#E74C3C" stroke-width="2.5" stroke-linecap="round" stroke-linejoin="round" stroke-miterlimit="10" x1="1397.756" y1="421.978" x2="1203.209" y2="421.978"/>
	</g>
	<g id="POLYLINE_465_">

			<path fill="none" stroke="#E74C3C" stroke-width="2.5" stroke-linecap="round" stroke-linejoin="round" stroke-miterlimit="10" d="
			M416.875,522.551c-4.727-2.674-9.78-4.685-15.093-5.844c-5.234-1.141-10.627-1.484-15.962-1.011
			c-5.408,0.479-10.741,1.806-15.745,3.91c-4.953,2.082-9.58,4.925-13.677,8.4c-4.097,3.475-7.656,7.576-10.519,12.123
			c-2.892,4.594-5.071,9.639-6.427,14.896c-1.338,5.188-1.877,10.563-1.607,15.913c0.273,5.408,1.397,10.776,3.303,15.844
			c1.906,5.068,4.597,9.847,7.956,14.095c3.323,4.202,7.27,7.89,11.695,10.911c4.484,3.061,9.447,5.42,14.65,6.97
			c5.149,1.534,10.529,2.273,15.9,2.188c5.372-0.086,10.725-0.996,15.822-2.694c5.151-1.715,10.036-4.231,14.42-7.434
			c4.325-3.16,8.156-6.971,11.341-11.279c3.22-4.355,5.758-9.214,7.502-14.341c1.734-5.099,2.684-10.467,2.794-15.852
			c0.11-5.362-0.593-10.731-2.093-15.881c-1.525-5.235-3.869-10.226-6.917-14.746c-2.986-4.428-6.652-8.386-10.824-11.72
			c-1.053-0.842-2.14-1.643-3.256-2.4c-0.542-0.368-1.091-0.727-1.647-1.075C418.165,523.319,417.255,522.551,416.875,522.551z"/>
	</g>
	<g id="POLYLINE_456_">

			<line fill="none" stroke="#E74C3C" stroke-width="2.5" stroke-linecap="round" stroke-linejoin="round" stroke-miterlimit="10" x1="1163.381" y1="464.788" x2="1163.381" y2="647.422"/>
	</g>
	<g id="POLYLINE_455_">

			<line fill="none" stroke="#E74C3C" stroke-width="2.5" stroke-linecap="round" stroke-linejoin="round" stroke-miterlimit="10" x1="831.592" y1="315.633" x2="1014.225" y2="315.633"/>
	</g>
	<g id="POLYLINE_383_">

			<line fill="none" stroke="#E74C3C" stroke-width="2.5" stroke-linecap="round" stroke-linejoin="round" stroke-miterlimit="10" x1="335.228" y1="315.633" x2="216.357" y2="315.633"/>
	</g>
	<g id="POLYLINE_382_">

			<line fill="none" stroke="#E74C3C" stroke-width="2.5" stroke-linecap="round" stroke-linejoin="round" stroke-miterlimit="10" x1="216.357" y1="315.633" x2="105.029" y2="315.633"/>
	</g>
	<g id="POLYLINE_285_">

			<line fill="none" stroke="#E74C3C" stroke-width="2.5" stroke-linecap="round" stroke-linejoin="round" stroke-miterlimit="10" x1="531.081" y1="315.633" x2="649.951" y2="315.633"/>
	</g>
	<g id="POLYLINE_284_">

			<line fill="none" stroke="#E74C3C" stroke-width="2.5" stroke-linecap="round" stroke-linejoin="round" stroke-miterlimit="10" x1="649.951" y1="315.633" x2="761.279" y2="315.633"/>
	</g>
	<g id="POLYLINE_252_">

			<path fill="none" stroke="#E74C3C" stroke-width="2.5" stroke-linecap="round" stroke-linejoin="round" stroke-miterlimit="10" d="
			M1069.631,647.422c0-4.677,0-9.355,0-14.033c0-10.079,0-20.158,0-30.236c0-9.527,0-19.054,0-28.581c0-2.73,0-5.46,0-8.19
			c0-1.759,0-3.487,0.421-5.214c1.003-4.115,3.753-6.804,6.609-9.659c4.626-4.626,9.253-9.253,13.879-13.879
			c6.962-6.962,13.924-13.924,20.887-20.887c7.528-7.528,15.056-15.056,22.583-22.583c6.314-6.314,12.629-12.629,18.943-18.943
			c3.325-3.325,6.651-6.651,9.976-9.976c0.151-0.151,0.301-0.301,0.452-0.452"/>
	</g>
	<g id="POLYLINE_251_">

			<path fill="none" stroke="#E74C3C" stroke-width="2.5" stroke-linecap="round" stroke-linejoin="round" stroke-miterlimit="10" d="
			M1014.225,315.633c-2.322,2.322-4.645,4.645-6.967,6.967c-5.77,5.77-11.54,11.54-17.309,17.309
			c-7.398,7.398-14.796,14.796-22.195,22.195c-7.261,7.261-14.522,14.522-21.783,21.783c-5.356,5.356-10.713,10.713-16.069,16.069
			c-2.361,2.361-4.711,5.244-7.544,7.068c-4.098,2.638-8.609,2.359-13.238,2.359c-8.523,0-17.046,0-25.569,0
			c-10.463,0-20.927,0-31.39,0c-6.536,0-13.072,0-19.608,0c-0.321,0-0.641,0-0.962,0"/>
	</g>
	<g id="POLYLINE_250_">

			<path fill="none" stroke="#E74C3C" stroke-width="2.5" stroke-linecap="round" stroke-linejoin="round" stroke-miterlimit="10" d="
			M761.279,409.383c-1.762,0-3.525,0-5.287,0c-4.583,0-9.165,0-13.748,0c-6.398,0-12.797,0-19.195,0c-7.243,0-14.487,0-21.73,0
			c-7.044,0-14.089,0-21.133,0c-5.805,0-11.61,0-17.415,0c-3.595,0-7.19,0-10.784,0c-1.059,0-2.117,0-3.176,0
			c-3.811,0-7.622,0-11.432,0c-6.463,0-12.926,0-19.389,0c-7.217,0-14.433,0-21.65,0c-6.185,0-12.37,0-18.555,0
			c-3.257,0-6.514,0.002-9.771,0c-3.757-0.002-7.348-1.173-10.202-3.669c-2.534-2.217-3.956-5.085-4.812-8.281
			c-0.945-3.528-1.89-7.055-2.836-10.583c-1.625-6.066-3.251-12.132-4.876-18.197c-1.878-7.008-3.756-14.016-5.633-21.024
			c-1.673-6.245-3.347-12.491-5.02-18.736c-1.042-3.888-2.084-7.777-3.126-11.665c-0.142-0.531-0.285-1.063-0.427-1.594"/>
	</g>
	<g id="POLYLINE_249_">

			<path fill="none" stroke="#E74C3C" stroke-width="2.5" stroke-linecap="round" stroke-linejoin="round" stroke-miterlimit="10" d="
			M105.029,409.383c1.762,0,3.525,0,5.287,0c4.583,0,9.165,0,13.748,0c6.398,0,12.797,0,19.195,0c7.243,0,14.487,0,21.73,0
			c7.044,0,14.089,0,21.133,0c5.805,0,11.61,0,17.415,0c3.595,0,7.19,0,10.784,0c1.059,0,2.118,0,3.176,0c3.811,0,7.622,0,11.432,0
			c6.463,0,12.926,0,19.389,0c7.217,0,14.433,0,21.65,0c6.185,0,12.37,0,18.555,0c3.257,0,6.514,0.002,9.771,0
			c3.757-0.002,7.348-1.173,10.202-3.669c2.534-2.217,3.956-5.085,4.812-8.281c0.945-3.528,1.89-7.055,2.836-10.583
			c1.625-6.066,3.251-12.132,4.876-18.197c1.878-7.008,3.756-14.016,5.633-21.024c1.673-6.245,3.347-12.491,5.02-18.736
			c1.042-3.888,2.084-7.777,3.126-11.665c0.142-0.531,0.285-1.063,0.427-1.594"/>
	</g>
	<g id="POLYLINE_248_">

			<path fill="none" stroke="#E74C3C" stroke-width="2.5" stroke-linecap="round" stroke-linejoin="round" stroke-miterlimit="10" d="
			M335.228,315.633c1.118-4.171,2.235-8.342,3.353-12.513c1.767-6.596,3.535-13.192,5.302-19.789
			c0.915-3.415,1.784-6.833,3.026-10.149c1.632-4.355,3.72-8.537,6.121-12.517c2.33-3.86,4.963-7.537,7.836-11.012
			c3.027-3.661,6.324-7.1,9.845-10.288c3.467-3.139,7.151-6.037,11.022-8.662c3.671-2.489,7.51-4.731,11.486-6.695
			c4.096-2.023,8.34-3.748,12.689-5.148c4.472-1.439,9.06-2.529,13.704-3.246c4.803-0.742,9.666-1.087,14.525-1.034
			c4.84,0.054,9.676,0.503,14.442,1.346c4.614,0.816,9.162,1.999,13.593,3.524c4.28,1.474,8.451,3.264,12.472,5.344
			c3.942,2.039,7.743,4.349,11.372,6.905c3.849,2.71,7.506,5.693,10.936,8.916c3.447,3.239,6.665,6.723,9.613,10.423
			c2.782,3.491,5.319,7.182,7.551,11.048c2.337,4.049,4.339,8.299,5.867,12.719c1.198,3.463,2.046,7.052,2.994,10.588
			c1.823,6.803,3.646,13.606,5.469,20.41c0.695,2.592,1.389,5.185,2.084,7.777c0.16,0.597,0.377,1.205,0.486,1.814
			c0.117,0.654-0.028,1.339-0.093,2.002c-0.465,4.71-1.284,9.384-2.54,13.949c-1.224,4.451-2.858,8.788-4.922,12.918
			c-2.129,4.258-4.713,8.282-7.7,11.989c-2.901,3.599-6.179,6.887-9.738,9.835c-3.6,2.982-7.485,5.61-11.555,7.908
			c-4.137,2.336-8.467,4.322-12.908,6.005c-4.563,1.729-9.247,3.139-13.994,4.265c-4.693,1.113-9.44,1.94-14.221,2.569
			c-4.635,0.61-9.313,0.974-13.984,1.138c-4.934,0.173-9.872,0.146-14.803-0.105c-4.683-0.239-9.363-0.681-14.003-1.362
			c-4.703-0.691-9.368-1.601-13.975-2.775c-4.734-1.207-9.399-2.719-13.928-4.551c-4.403-1.781-8.685-3.873-12.76-6.317
			c-3.998-2.398-7.797-5.135-11.296-8.218c-3.487-3.073-6.671-6.491-9.463-10.208c-2.88-3.833-5.333-7.984-7.324-12.345
			c-1.911-4.184-3.385-8.558-4.472-13.026c-0.551-2.266-0.994-4.557-1.35-6.862c-0.158-1.024-0.297-2.051-0.416-3.081
			c-0.071-0.605-0.134-1.211-0.193-1.817C335.337,316.902,335.065,315.958,335.228,315.633z"/>
	</g>
</g>
<g id="AG-OUTLINE">
	<g id="POLYLINE_247_">

			<path fill="none" stroke="#E74C3C" stroke-width="3.25" stroke-linecap="round" stroke-linejoin="round" stroke-miterlimit="10" d="
			M1069.631,647.422c0-4.677,0-9.355,0-14.033c0-10.079,0-20.158,0-30.236c0-9.527,0-19.054,0-28.581c0-2.73,0-5.46,0-8.19
			c0-1.759,0-3.487,0.421-5.214c1.003-4.115,3.753-6.804,6.609-9.659c4.626-4.626,9.253-9.253,13.879-13.879
			c6.962-6.962,13.924-13.924,20.887-20.887c7.528-7.528,15.056-15.056,22.583-22.583c6.314-6.314,12.629-12.629,18.943-18.943
			c3.325-3.325,6.651-6.651,9.976-9.976c0.151-0.151,0.301-0.301,0.452-0.452"/>
	</g>
	<g id="POLYLINE_137_">

			<path fill="none" stroke="#E74C3C" stroke-width="3.25" stroke-linecap="round" stroke-linejoin="round" stroke-miterlimit="10" d="
			M1014.225,315.633c-2.322,2.322-4.645,4.645-6.967,6.967c-5.77,5.77-11.54,11.54-17.309,17.309
			c-7.398,7.398-14.796,14.796-22.195,22.195c-7.261,7.261-14.522,14.522-21.783,21.783c-5.356,5.356-10.713,10.713-16.069,16.069
			c-2.361,2.361-4.711,5.244-7.544,7.068c-4.098,2.638-8.609,2.359-13.238,2.359c-8.523,0-17.046,0-25.569,0
			c-10.463,0-20.927,0-31.39,0c-6.536,0-13.072,0-19.608,0c-0.321,0-0.641,0-0.962,0"/>
	</g>
	<g id="POLYLINE_130_">

			<path fill="none" stroke="#E74C3C" stroke-width="3.25" stroke-linecap="round" stroke-linejoin="round" stroke-miterlimit="10" d="
			M1131.613,496.556c4.218-4.218,8.436-8.436,12.654-12.654c8.374-8.373,16.747-16.747,25.12-25.12
			c6.279-6.279,12.557-12.557,18.836-18.836c4.275-4.275,8.336-8.717,11.925-13.594c4.8-6.522,8.863-13.578,12.055-21.022
			c3.154-7.354,5.482-15.07,6.888-22.948c1.395-7.82,1.925-15.785,1.543-23.721c-0.383-7.961-1.673-15.875-3.835-23.546
			c-2.191-7.774-5.277-15.294-9.181-22.366c-3.871-7.012-8.546-13.567-13.894-19.527c-5.244-5.844-11.156-11.095-17.568-15.626
			c-6.623-4.681-13.782-8.576-21.294-11.629c-7.406-3.009-15.166-5.152-23.059-6.407c-7.877-1.252-15.896-1.596-23.852-1.044
			c-7.889,0.547-15.722,1.988-23.288,4.288c-7.805,2.373-15.325,5.646-22.38,9.743c-6.852,3.979-13.255,8.74-19.04,14.155
			c-4.115,3.852-8.024,7.939-12.009,11.924c-8.146,8.146-16.292,16.292-24.438,24.438c-7.021,7.021-14.041,14.041-21.062,21.061
			c-1.092,1.092-2.184,2.184-3.276,3.276"/>
	</g>
	<g id="POLYLINE_129_">

			<path fill="none" stroke="#E74C3C" stroke-width="3.25" stroke-linecap="round" stroke-linejoin="round" stroke-miterlimit="10" d="
			M105.029,409.383c3.988,0,7.976,0,11.965,0c9.395,0,18.79,0,28.185,0c11.173,0,22.347,0,33.52,0c9.11,0,18.22,0,27.331,0
			c3.473,0,6.946,0,10.419,0c5.711,0,11.423,0,17.134,0c10.77,0,21.54,0,32.31,0c9.131,0,18.261,0,27.392,0
			c1.781,0,3.562,0.01,5.344,0c3.124-0.018,6.167-0.937,8.718-2.758c2.803-2.001,4.791-4.93,5.707-8.24
			c0.4-1.446,0.777-2.9,1.165-4.349c2.242-8.368,4.484-16.736,6.727-25.104c2.834-10.575,5.667-21.151,8.501-31.726
			c1.823-6.804,3.646-13.609,5.47-20.413c1.422-5.305,2.843-10.611,4.265-15.916c2.04-7.615,3.983-15.263,6.129-22.848
			c1.893-6.692,4.962-13.032,8.67-18.899c3.726-5.896,8.152-11.342,13.074-16.279c5.064-5.078,10.68-9.614,16.715-13.49
			c5.729-3.678,11.838-6.763,18.219-9.139c6.659-2.48,13.609-4.181,20.666-5.023c7.293-0.87,14.7-0.831,21.982,0.123
			c7.003,0.918,13.884,2.678,20.48,5.2c6.34,2.424,12.41,5.556,18.089,9.271c5.98,3.911,11.532,8.469,16.545,13.56
			c4.918,4.993,9.325,10.513,13.014,16.475c3.648,5.896,6.621,12.246,8.44,18.949c2.108,7.768,4.167,15.55,6.25,23.324
			c1.346,5.023,2.692,10.046,4.038,15.069c1.882,7.025,3.765,14.05,5.647,21.075c2.857,10.661,5.713,21.322,8.57,31.982
			c2.179,8.131,4.357,16.261,6.536,24.392c0.36,1.342,0.696,2.692,1.081,4.027c1.002,3.471,3.267,6.51,6.323,8.441
			c4.337,2.741,9.254,2.296,14.136,2.296c9.27,0,18.54,0,27.81,0c10.76,0,21.52,0,32.279,0c5.351,0,10.702,0,16.053,0
			c3.74,0,7.48,0,11.22,0c9.266,0,18.533,0,27.799,0c11.144,0,22.289,0,33.433,0c9.276,0,18.553,0,27.829,0c3.69,0,7.381,0,11.071,0
			"/>
	</g>
	<g id="POLYLINE_126_">

			<path fill="none" stroke="#E74C3C" stroke-width="3.25" stroke-linecap="round" stroke-linejoin="round" stroke-miterlimit="10" d="
			M831.592,81.258c1.773,0,3.546,0,5.319,0c4.927,0,9.853,0,14.78,0c7.549,0,15.097,0,22.646,0c9.694,0,19.388,0,29.083,0
			c11.206,0,22.411,0,33.617,0c12.231,0,24.462,0,36.693,0c12.792,0,25.583,0,38.375,0c12.686,0,25.372,0,38.058,0
			c12.115,0,24.229,0,36.344,0c11.065,0,22.13,0,33.196,0c9.368,0,18.735,0,28.103,0c7.199,0,14.399,0,21.598,0
			c4.507,0,9.015,0,13.522,0c2.511,0,5.023-0.012,7.534,0.031c8.43,0.146,16.842,0.818,25.195,1.951
			c8.252,1.119,16.408,2.809,24.473,4.871c8.061,2.061,15.973,4.708,23.724,7.724c7.675,2.987,15.169,6.463,22.427,10.353
			c7.267,3.894,14.345,8.177,21.091,12.92c6.822,4.797,13.442,9.907,19.645,15.487c6.226,5.601,12.176,11.489,17.727,17.764
			c5.605,6.336,10.833,13.009,15.644,19.968c4.785,6.922,9.118,14.141,13.063,21.572c3.895,7.336,7.267,14.935,10.277,22.672
			c2.991,7.685,5.455,15.582,7.497,23.57c2.056,8.041,3.638,16.21,4.709,24.441c1.066,8.184,1.727,16.44,1.798,24.696
			c0.021,2.389,0.025,4.778,0.025,7.167c0,4.608,0,9.215,0,13.823c0,7.332,0,14.664,0,21.995c0,9.446,0,18.893,0,28.339
			c0,11.061,0,22.123,0,33.184c0,12.21,0,24.42,0,36.63c0,12.698,0,25.397,0,38.095c0,12.716,0,25.433,0,38.149
			c0,12.264,0,24.528,0,36.793c0,11.151,0,22.303,0,33.454c0,9.573,0,19.145,0,28.718c0,7.495,0,14.99,0,22.484
			c0,4.806,0,9.612,0,14.417c0,1.633,0,3.265,0,4.898"/>
	</g>
	<g id="POLYLINE_125_">

			<line fill="none" stroke="#E74C3C" stroke-width="3.25" stroke-linecap="round" stroke-linejoin="round" stroke-miterlimit="10" x1="105.029" y1="81.258" x2="761.279" y2="81.258"/>
	</g>
</g>
<g id="_x3C_Layer_x3E_">
</g>
</svg>
