<?xml version="1.0" encoding="utf-8"?>
<!-- Generator: Adobe Illustrator 23.0.1, SVG Export Plug-In . SVG Version: 6.00 Build 0)  -->
<!DOCTYPE svg PUBLIC "-//W3C//DTD SVG 1.1//EN" "http://www.w3.org/Graphics/SVG/1.1/DTD/svg11.dtd" [
	<!ENTITY ns_flows "http://ns.adobe.com/Flows/1.0/">
	<!ENTITY ns_extend "http://ns.adobe.com/Extensibility/1.0/">
	<!ENTITY ns_ai "http://ns.adobe.com/AdobeIllustrator/10.0/">
	<!ENTITY ns_graphs "http://ns.adobe.com/Graphs/1.0/">
	<!ENTITY ns_vars "http://ns.adobe.com/Variables/1.0/">
	<!ENTITY ns_imrep "http://ns.adobe.com/ImageReplacement/1.0/">
	<!ENTITY ns_sfw "http://ns.adobe.com/SaveForWeb/1.0/">
	<!ENTITY ns_custom "http://ns.adobe.com/GenericCustomNamespace/1.0/">
	<!ENTITY ns_adobe_xpath "http://ns.adobe.com/XPath/1.0/">
]>
<svg version="1.1" xmlns:x="&ns_extend;" xmlns:i="&ns_ai;" xmlns:graph="&ns_graphs;"
	 xmlns="http://www.w3.org/2000/svg" xmlns:xlink="http://www.w3.org/1999/xlink" xmlns:a="http://ns.adobe.com/AdobeSVGViewerExtensions/3.0/"
	 x="0px" y="0px" viewBox="0 0 750 525" enable-background="new 0 0 750 525" xml:space="preserve">
<metadata>
	<sfw  xmlns="&ns_sfw;">
		<slices></slices>
		<sliceSourceBounds  bottomLeftOrigin="true" height="6857.822" width="3410" x="-1190" y="-1728"></sliceSourceBounds>
	</sfw>
</metadata>
<g id="FILL-BACKGROUND">
	<rect fill="#FFFFFF" width="750" height="525"/>
</g>
<g id="N-DIMENSIONS">
	<g>
		<g id="POLYLINE_6_">

				<line fill="none" stroke="#E74C3C" stroke-width="2" stroke-linecap="round" stroke-linejoin="round" stroke-miterlimit="10" x1="648.751" y1="363.754" x2="456" y2="363.754"/>
		</g>
		<g id="LINE_4_">

				<line fill="none" stroke="#E74C3C" stroke-width="2" stroke-linecap="round" stroke-linejoin="round" stroke-miterlimit="10" x1="334.88" y1="363.754" x2="144.75" y2="363.754"/>
		</g>
		<g id="POLYLINE_5_">

				<polyline fill="none" stroke="#E74C3C" stroke-width="2" stroke-linecap="round" stroke-linejoin="round" stroke-miterlimit="10" points="
				151.379,370.382 144.75,363.754 151.379,357.126 			"/>
		</g>
		<g id="POLYLINE_4_">

				<polyline fill="none" stroke="#E74C3C" stroke-width="2" stroke-linecap="round" stroke-linejoin="round" stroke-miterlimit="10" points="
				642.124,357.126 648.751,363.754 642.124,370.382 			"/>
		</g>
		<g id="MTEXT_21_">
			<g>
				<g>
					<g>
						<path fill="#E74C3C" d="M347.685,370.805c-0.714-0.306-1.269-0.747-1.665-1.322c-0.396-0.576-0.594-1.248-0.594-2.017
							c0-0.708,0.177-1.329,0.531-1.863c0.354-0.533,0.831-0.944,1.431-1.232c-0.48-0.276-0.853-0.639-1.116-1.089
							c-0.264-0.45-0.396-0.981-0.396-1.594c0-1.044,0.39-1.868,1.17-2.475c0.78-0.605,1.806-0.909,3.078-0.909
							s2.295,0.301,3.069,0.9s1.161,1.428,1.161,2.483c0,0.601-0.132,1.125-0.396,1.575c-0.264,0.45-0.63,0.819-1.098,1.107
							c0.6,0.288,1.077,0.699,1.431,1.232c0.354,0.534,0.531,1.161,0.531,1.882c0,0.768-0.198,1.437-0.594,2.007
							s-0.951,1.008-1.665,1.313c-0.714,0.307-1.527,0.459-2.439,0.459C349.212,371.264,348.399,371.111,347.685,370.805z
							 M352.257,369.212c0.57-0.432,0.855-1.008,0.855-1.728c0-0.721-0.285-1.297-0.855-1.729s-1.281-0.647-2.133-0.647
							c-0.864,0-1.581,0.216-2.151,0.647c-0.57,0.432-0.855,1.008-0.855,1.729c0,0.72,0.285,1.296,0.855,1.728
							c0.57,0.432,1.287,0.648,2.151,0.648C350.976,369.86,351.687,369.644,352.257,369.212z M351.978,363.164
							c0.504-0.36,0.756-0.84,0.756-1.44c0-0.611-0.249-1.101-0.747-1.467s-1.119-0.549-1.863-0.549
							c-0.756,0-1.38,0.183-1.872,0.549c-0.492,0.366-0.738,0.855-0.738,1.467c0,0.612,0.246,1.102,0.738,1.468
							c0.492,0.366,1.116,0.549,1.872,0.549C350.856,363.716,351.474,363.524,351.978,363.164z"/>
						<path fill="#E74C3C" d="M359.097,370.805c-0.714-0.306-1.269-0.747-1.665-1.322c-0.396-0.576-0.594-1.248-0.594-2.017
							c0-0.708,0.177-1.329,0.531-1.863c0.354-0.533,0.831-0.944,1.431-1.232c-0.48-0.276-0.853-0.639-1.116-1.089
							c-0.264-0.45-0.396-0.981-0.396-1.594c0-1.044,0.39-1.868,1.17-2.475c0.78-0.605,1.806-0.909,3.078-0.909
							s2.295,0.301,3.069,0.9s1.161,1.428,1.161,2.483c0,0.601-0.132,1.125-0.396,1.575c-0.264,0.45-0.63,0.819-1.098,1.107
							c0.6,0.288,1.077,0.699,1.431,1.232c0.354,0.534,0.531,1.161,0.531,1.882c0,0.768-0.198,1.437-0.594,2.007
							s-0.951,1.008-1.665,1.313c-0.714,0.307-1.527,0.459-2.439,0.459C360.624,371.264,359.811,371.111,359.097,370.805z
							 M363.668,369.212c0.57-0.432,0.855-1.008,0.855-1.728c0-0.721-0.285-1.297-0.855-1.729s-1.281-0.647-2.133-0.647
							c-0.864,0-1.581,0.216-2.151,0.647c-0.57,0.432-0.855,1.008-0.855,1.729c0,0.72,0.285,1.296,0.855,1.728
							c0.57,0.432,1.287,0.648,2.151,0.648C362.388,369.86,363.099,369.644,363.668,369.212z M363.39,363.164
							c0.504-0.36,0.756-0.84,0.756-1.44c0-0.611-0.249-1.101-0.747-1.467s-1.119-0.549-1.863-0.549
							c-0.756,0-1.38,0.183-1.872,0.549c-0.492,0.366-0.738,0.855-0.738,1.467c0,0.612,0.246,1.102,0.738,1.468
							c0.492,0.366,1.116,0.549,1.872,0.549C362.268,363.716,362.886,363.524,363.39,363.164z"/>
						<path fill="#E74C3C" d="M368.331,361.616c-0.054-0.072-0.069-0.162-0.045-0.271l0.396-2.52
							c0.048-0.348,0.216-0.522,0.504-0.522h1.152c0.083,0,0.153,0.03,0.207,0.09c0.054,0.061,0.081,0.133,0.081,0.217
							c0,0.12-0.018,0.216-0.054,0.288l-0.936,2.43c-0.06,0.132-0.126,0.231-0.198,0.297c-0.072,0.066-0.18,0.099-0.324,0.099
							h-0.558C368.459,361.724,368.385,361.688,368.331,361.616z M371.157,361.616c-0.054-0.072-0.069-0.162-0.045-0.271l0.396-2.52
							c0.048-0.348,0.216-0.522,0.504-0.522h1.152c0.084,0,0.153,0.03,0.207,0.09c0.054,0.061,0.081,0.133,0.081,0.217
							c0,0.12-0.018,0.216-0.054,0.288l-0.936,2.43c-0.061,0.132-0.126,0.231-0.198,0.297c-0.072,0.066-0.18,0.099-0.324,0.099
							h-0.558C371.286,361.724,371.211,361.688,371.157,361.616z"/>
						<path fill="#E74C3C" d="M380.039,374.711c-0.072-0.078-0.108-0.177-0.108-0.297V355.37c0-0.12,0.036-0.219,0.108-0.297
							s0.168-0.117,0.288-0.117h0.666c0.12,0,0.219,0.039,0.297,0.117s0.117,0.177,0.117,0.297v19.044
							c0,0.12-0.039,0.219-0.117,0.297s-0.177,0.117-0.297,0.117h-0.666C380.207,374.828,380.111,374.789,380.039,374.711z"/>
						<path fill="#E74C3C" d="M388.166,370.967c-0.078-0.078-0.117-0.177-0.117-0.297v-0.54c0-0.275,0.15-0.54,0.45-0.792
							l3.924-3.906c0.888-0.756,1.5-1.374,1.836-1.854s0.504-0.99,0.504-1.53c0-0.708-0.198-1.263-0.594-1.665
							c-0.396-0.401-0.972-0.603-1.728-0.603c-0.72,0-1.29,0.21-1.71,0.63s-0.678,0.984-0.774,1.691
							c-0.024,0.133-0.084,0.234-0.18,0.307s-0.192,0.107-0.288,0.107h-0.864c-0.108,0-0.198-0.035-0.27-0.107
							s-0.108-0.156-0.108-0.252c0.024-0.636,0.195-1.251,0.513-1.846c0.318-0.594,0.789-1.079,1.413-1.458
							c0.624-0.378,1.38-0.566,2.268-0.566c1.344,0,2.355,0.351,3.033,1.053c0.678,0.702,1.017,1.593,1.017,2.673
							c0,0.756-0.183,1.438-0.549,2.043c-0.366,0.606-0.939,1.245-1.719,1.917l-3.546,3.601h5.67c0.132,0,0.234,0.036,0.306,0.107
							c0.072,0.072,0.108,0.175,0.108,0.307v0.684c0,0.12-0.04,0.219-0.117,0.297c-0.078,0.078-0.177,0.117-0.297,0.117h-7.884
							C388.342,371.084,388.244,371.045,388.166,370.967z"/>
						<path fill="#E74C3C" d="M398.678,370.967c-0.078-0.078-0.117-0.177-0.117-0.297v-0.54c0-0.275,0.15-0.54,0.45-0.792
							l3.924-3.906c0.888-0.756,1.5-1.374,1.836-1.854s0.504-0.99,0.504-1.53c0-0.708-0.198-1.263-0.594-1.665
							c-0.396-0.401-0.972-0.603-1.728-0.603c-0.72,0-1.29,0.21-1.71,0.63s-0.678,0.984-0.774,1.691
							c-0.024,0.133-0.084,0.234-0.18,0.307s-0.192,0.107-0.288,0.107h-0.864c-0.108,0-0.198-0.035-0.27-0.107
							s-0.108-0.156-0.108-0.252c0.024-0.636,0.195-1.251,0.513-1.846c0.318-0.594,0.789-1.079,1.413-1.458
							c0.624-0.378,1.38-0.566,2.268-0.566c1.344,0,2.355,0.351,3.033,1.053c0.678,0.702,1.017,1.593,1.017,2.673
							c0,0.756-0.183,1.438-0.549,2.043c-0.366,0.606-0.939,1.245-1.719,1.917l-3.546,3.601h5.67c0.132,0,0.234,0.036,0.306,0.107
							c0.072,0.072,0.108,0.175,0.108,0.307v0.684c0,0.12-0.04,0.219-0.117,0.297c-0.078,0.078-0.177,0.117-0.297,0.117h-7.884
							C398.854,371.084,398.756,371.045,398.678,370.967z"/>
						<path fill="#E74C3C" d="M414.95,370.967c-0.078-0.078-0.117-0.177-0.117-0.297v-2.628h-5.85c-0.12,0-0.219-0.039-0.297-0.117
							s-0.117-0.177-0.117-0.297v-0.666c0-0.168,0.066-0.348,0.198-0.54l5.418-7.632c0.06-0.096,0.15-0.171,0.27-0.225
							c0.12-0.055,0.252-0.081,0.396-0.081h1.224c0.132,0,0.234,0.035,0.306,0.107c0.072,0.072,0.108,0.174,0.108,0.307v7.632h1.638
							c0.12,0,0.219,0.039,0.297,0.117c0.078,0.078,0.117,0.177,0.117,0.297v0.684c0,0.12-0.039,0.219-0.117,0.297
							c-0.078,0.078-0.177,0.117-0.297,0.117h-1.638v2.628c0,0.12-0.039,0.219-0.117,0.297s-0.177,0.117-0.297,0.117h-0.828
							C415.126,371.084,415.028,371.045,414.95,370.967z M410.441,366.566h4.41v-6.265L410.441,366.566z"/>
						<path fill="#E74C3C" d="M425.65,370.175c-0.72-0.726-1.098-1.743-1.134-3.051l-0.018-0.72l0.018-0.721
							c0.036-1.308,0.414-2.324,1.134-3.051c0.72-0.726,1.722-1.089,3.005-1.089c0.865,0,1.594,0.153,2.188,0.459
							s1.037,0.688,1.332,1.143c0.295,0.457,0.453,0.912,0.477,1.368c0.012,0.108-0.025,0.204-0.117,0.288
							c-0.09,0.084-0.188,0.126-0.297,0.126h-0.791c-0.121,0-0.211-0.026-0.27-0.081c-0.061-0.054-0.121-0.152-0.182-0.297
							c-0.215-0.588-0.512-1.005-0.891-1.251c-0.377-0.246-0.854-0.369-1.43-0.369c-0.757,0-1.357,0.234-1.801,0.702
							c-0.444,0.468-0.684,1.183-0.72,2.143l-0.018,0.63l0.018,0.63c0.036,0.96,0.276,1.674,0.72,2.142
							c0.444,0.468,1.044,0.702,1.801,0.702c0.588,0,1.066-0.123,1.439-0.369c0.371-0.246,0.666-0.663,0.881-1.251
							c0.061-0.144,0.121-0.243,0.182-0.297c0.059-0.054,0.148-0.081,0.27-0.081h0.791c0.109,0,0.207,0.042,0.297,0.126
							c0.092,0.084,0.129,0.18,0.117,0.288c-0.023,0.444-0.182,0.895-0.477,1.35c-0.295,0.457-0.738,0.841-1.332,1.152
							s-1.322,0.468-2.188,0.468C427.372,371.264,426.371,370.901,425.65,370.175z"/>
						<path fill="#E74C3C" d="M434.929,370.967c-0.078-0.078-0.117-0.177-0.117-0.297v-8.532c0-0.119,0.039-0.219,0.117-0.297
							s0.177-0.117,0.297-0.117h0.756c0.12,0,0.217,0.039,0.288,0.117c0.072,0.078,0.108,0.178,0.108,0.297v0.612
							c0.648-0.804,1.523-1.206,2.628-1.206c1.32,0,2.256,0.552,2.808,1.656c0.288-0.504,0.699-0.906,1.233-1.206
							s1.131-0.45,1.791-0.45c0.983,0,1.788,0.336,2.412,1.008c0.624,0.673,0.936,1.645,0.936,2.916v5.202
							c0,0.12-0.039,0.219-0.116,0.297c-0.078,0.078-0.178,0.117-0.298,0.117h-0.773c-0.12,0-0.219-0.039-0.297-0.117
							s-0.117-0.177-0.117-0.297v-5.04c0-0.96-0.198-1.646-0.594-2.061c-0.396-0.414-0.918-0.621-1.566-0.621
							c-0.576,0-1.071,0.213-1.485,0.639c-0.413,0.426-0.62,1.107-0.62,2.043v5.04c0,0.12-0.039,0.219-0.117,0.297
							s-0.178,0.117-0.297,0.117h-0.792c-0.12,0-0.22-0.039-0.298-0.117s-0.116-0.177-0.116-0.297v-5.04
							c0-0.947-0.207-1.632-0.621-2.052s-0.927-0.63-1.539-0.63c-0.576,0-1.071,0.21-1.485,0.63s-0.621,1.098-0.621,2.034v5.058
							c0,0.12-0.039,0.219-0.117,0.297s-0.177,0.117-0.297,0.117h-0.792C435.106,371.084,435.007,371.045,434.929,370.967z"/>
					</g>
				</g>
			</g>
		</g>
	</g>
	<g>
		<g id="POLYLINE_17_">

				<line fill="none" stroke="#E74C3C" stroke-width="2" stroke-linecap="round" stroke-linejoin="round" stroke-miterlimit="10" x1="167.102" y1="385.105" x2="167.102" y2="283"/>
		</g>
		<g id="LINE_5_">

				<line fill="none" stroke="#E74C3C" stroke-width="2" stroke-linecap="round" stroke-linejoin="round" stroke-miterlimit="10" x1="167.102" y1="235" x2="167.102" y2="142.104"/>
		</g>
		<g id="POLYLINE_16_">

				<polyline fill="none" stroke="#E74C3C" stroke-width="2" stroke-linecap="round" stroke-linejoin="round" stroke-miterlimit="10" points="
				160.474,148.733 167.102,142.104 173.729,148.733 			"/>
		</g>
		<g id="POLYLINE_8_">

				<polyline fill="none" stroke="#E74C3C" stroke-width="2" stroke-linecap="round" stroke-linejoin="round" stroke-miterlimit="10" points="
				173.729,378.478 167.102,385.105 160.474,378.478 			"/>
		</g>
		<g id="MTEXT_22_">
			<g>
				<g>
					<g>
						<path fill="#E74C3C" d="M166.71,253.654c-0.078-0.078-0.117-0.177-0.117-0.297v-2.628h-5.85c-0.12,0-0.219-0.039-0.297-0.117
							s-0.117-0.177-0.117-0.297v-0.666c0-0.168,0.066-0.348,0.198-0.54l5.418-7.632c0.06-0.096,0.15-0.171,0.27-0.225
							c0.12-0.055,0.252-0.081,0.396-0.081h1.224c0.132,0,0.234,0.035,0.306,0.107c0.072,0.072,0.108,0.174,0.108,0.307v7.632h1.638
							c0.12,0,0.219,0.039,0.297,0.117c0.078,0.078,0.117,0.177,0.117,0.297v0.684c0,0.12-0.039,0.219-0.117,0.297
							c-0.078,0.078-0.177,0.117-0.297,0.117h-1.638v2.628c0,0.12-0.039,0.219-0.117,0.297s-0.177,0.117-0.297,0.117h-0.828
							C166.887,253.771,166.789,253.732,166.71,253.654z M162.202,249.254h4.41v-6.265L162.202,249.254z"/>
						<path fill="#E74C3C" d="M177.834,253.654c-0.078-0.078-0.117-0.177-0.117-0.297v-2.628h-5.85c-0.12,0-0.219-0.039-0.297-0.117
							s-0.117-0.177-0.117-0.297v-0.666c0-0.168,0.066-0.348,0.198-0.54l5.418-7.632c0.06-0.096,0.15-0.171,0.27-0.225
							c0.12-0.055,0.252-0.081,0.396-0.081h1.224c0.132,0,0.234,0.035,0.306,0.107c0.072,0.072,0.108,0.174,0.108,0.307v7.632h1.638
							c0.12,0,0.219,0.039,0.297,0.117c0.078,0.078,0.117,0.177,0.117,0.297v0.684c0,0.12-0.039,0.219-0.117,0.297
							c-0.078,0.078-0.177,0.117-0.297,0.117h-1.638v2.628c0,0.12-0.039,0.219-0.117,0.297s-0.177,0.117-0.297,0.117h-0.828
							C178.011,253.771,177.913,253.732,177.834,253.654z M173.326,249.254h4.41v-6.265L173.326,249.254z"/>
						<path fill="#E74C3C" d="M183.108,244.304c-0.054-0.072-0.069-0.162-0.045-0.271l0.396-2.52
							c0.048-0.348,0.216-0.522,0.504-0.522h1.152c0.083,0,0.153,0.03,0.207,0.09c0.054,0.061,0.081,0.133,0.081,0.217
							c0,0.12-0.018,0.216-0.054,0.288l-0.936,2.43c-0.06,0.132-0.126,0.231-0.198,0.297c-0.072,0.066-0.18,0.099-0.324,0.099
							h-0.558C183.237,244.411,183.163,244.375,183.108,244.304z M185.935,244.304c-0.054-0.072-0.069-0.162-0.045-0.271l0.396-2.52
							c0.048-0.348,0.216-0.522,0.504-0.522h1.152c0.084,0,0.153,0.03,0.207,0.09c0.054,0.061,0.081,0.133,0.081,0.217
							c0,0.12-0.018,0.216-0.054,0.288l-0.936,2.43c-0.061,0.132-0.126,0.231-0.198,0.297c-0.072,0.066-0.18,0.099-0.324,0.099
							h-0.558C186.063,244.411,185.989,244.375,185.935,244.304z"/>
						<path fill="#E74C3C" d="M164.452,273.254c-0.072-0.078-0.108-0.177-0.108-0.297v-10.152l-3.024,2.322
							c-0.084,0.072-0.174,0.108-0.27,0.108c-0.108,0-0.21-0.061-0.306-0.181l-0.432-0.558c-0.06-0.084-0.09-0.168-0.09-0.252
							c0-0.132,0.06-0.24,0.18-0.324l3.906-3.023c0.132-0.084,0.288-0.126,0.468-0.126h0.846c0.12,0,0.219,0.039,0.297,0.116
							c0.078,0.078,0.117,0.178,0.117,0.298v11.771c0,0.12-0.039,0.219-0.117,0.297s-0.177,0.117-0.297,0.117h-0.882
							C164.62,273.371,164.523,273.332,164.452,273.254z"/>
						<path fill="#E74C3C" d="M172.102,273.254c-0.072-0.078-0.108-0.177-0.108-0.297v-10.152l-3.024,2.322
							c-0.084,0.072-0.174,0.108-0.27,0.108c-0.108,0-0.21-0.061-0.306-0.181l-0.432-0.558c-0.06-0.084-0.09-0.168-0.09-0.252
							c0-0.132,0.06-0.24,0.18-0.324l3.906-3.023c0.132-0.084,0.288-0.126,0.468-0.126h0.846c0.12,0,0.219,0.039,0.297,0.116
							c0.078,0.078,0.117,0.178,0.117,0.298v11.771c0,0.12-0.039,0.219-0.117,0.297s-0.177,0.117-0.297,0.117h-0.882
							C172.27,273.371,172.173,273.332,172.102,273.254z"/>
						<path fill="#E74C3C" d="M176.07,273.254c-0.078-0.078-0.117-0.177-0.117-0.297v-0.54c0-0.275,0.15-0.54,0.45-0.792
							l3.924-3.906c0.888-0.756,1.5-1.374,1.836-1.854s0.504-0.99,0.504-1.53c0-0.708-0.198-1.263-0.594-1.665
							c-0.396-0.401-0.972-0.603-1.728-0.603c-0.72,0-1.29,0.21-1.71,0.63s-0.678,0.984-0.774,1.691
							c-0.024,0.133-0.084,0.234-0.18,0.307s-0.192,0.107-0.288,0.107h-0.864c-0.108,0-0.198-0.035-0.27-0.107
							s-0.108-0.156-0.108-0.252c0.024-0.636,0.195-1.251,0.513-1.846c0.318-0.594,0.789-1.079,1.413-1.458
							c0.624-0.378,1.38-0.566,2.268-0.566c1.344,0,2.355,0.351,3.033,1.053c0.678,0.702,1.017,1.593,1.017,2.673
							c0,0.756-0.183,1.438-0.549,2.043c-0.366,0.606-0.939,1.245-1.719,1.917l-3.546,3.601h5.67c0.132,0,0.234,0.036,0.306,0.107
							c0.072,0.072,0.108,0.175,0.108,0.307v0.684c0,0.12-0.04,0.219-0.117,0.297c-0.078,0.078-0.177,0.117-0.297,0.117h-7.884
							C176.247,273.371,176.148,273.332,176.07,273.254z"/>
						<path fill="#E74C3C" d="M192.099,272.462c-0.72-0.726-1.098-1.743-1.134-3.051l-0.018-0.72l0.018-0.721
							c0.036-1.308,0.414-2.324,1.134-3.051c0.72-0.726,1.722-1.089,3.006-1.089c0.864,0,1.593,0.153,2.187,0.459
							c0.594,0.306,1.038,0.688,1.332,1.143c0.294,0.457,0.453,0.912,0.477,1.368c0.012,0.108-0.027,0.204-0.117,0.288
							c-0.09,0.084-0.189,0.126-0.297,0.126h-0.792c-0.12,0-0.21-0.026-0.27-0.081c-0.06-0.054-0.12-0.152-0.18-0.297
							c-0.216-0.588-0.513-1.005-0.891-1.251s-0.855-0.369-1.431-0.369c-0.756,0-1.356,0.234-1.8,0.702
							c-0.444,0.468-0.684,1.183-0.72,2.143l-0.018,0.63l0.018,0.63c0.036,0.96,0.276,1.674,0.72,2.142
							c0.444,0.468,1.044,0.702,1.8,0.702c0.588,0,1.068-0.123,1.44-0.369s0.666-0.663,0.882-1.251
							c0.06-0.144,0.12-0.243,0.18-0.297s0.15-0.081,0.27-0.081h0.792c0.108,0,0.207,0.042,0.297,0.126
							c0.09,0.084,0.129,0.18,0.117,0.288c-0.024,0.444-0.183,0.895-0.477,1.35c-0.294,0.457-0.738,0.841-1.332,1.152
							c-0.594,0.312-1.323,0.468-2.187,0.468C193.82,273.551,192.819,273.188,192.099,272.462z"/>
						<path fill="#E74C3C" d="M201.377,273.254c-0.078-0.078-0.117-0.177-0.117-0.297v-8.532c0-0.119,0.039-0.219,0.117-0.297
							s0.177-0.117,0.297-0.117h0.756c0.12,0,0.216,0.039,0.288,0.117c0.072,0.078,0.108,0.178,0.108,0.297v0.612
							c0.648-0.804,1.524-1.206,2.628-1.206c1.32,0,2.256,0.552,2.808,1.656c0.288-0.504,0.699-0.906,1.233-1.206
							c0.534-0.3,1.131-0.45,1.791-0.45c0.984,0,1.788,0.336,2.412,1.008c0.624,0.673,0.936,1.645,0.936,2.916v5.202
							c0,0.12-0.039,0.219-0.117,0.297s-0.177,0.117-0.297,0.117h-0.774c-0.12,0-0.219-0.039-0.297-0.117s-0.117-0.177-0.117-0.297
							v-5.04c0-0.96-0.198-1.646-0.594-2.061s-0.918-0.621-1.566-0.621c-0.576,0-1.071,0.213-1.485,0.639s-0.621,1.107-0.621,2.043
							v5.04c0,0.12-0.039,0.219-0.117,0.297s-0.177,0.117-0.297,0.117h-0.792c-0.12,0-0.219-0.039-0.297-0.117
							c-0.078-0.078-0.117-0.177-0.117-0.297v-5.04c0-0.947-0.207-1.632-0.621-2.052c-0.414-0.42-0.927-0.63-1.539-0.63
							c-0.576,0-1.071,0.21-1.485,0.63s-0.621,1.098-0.621,2.034v5.058c0,0.12-0.04,0.219-0.117,0.297
							c-0.078,0.078-0.177,0.117-0.297,0.117h-0.792C201.555,273.371,201.456,273.332,201.377,273.254z"/>
					</g>
				</g>
			</g>
		</g>
	</g>
	<g>
		<g id="POLYLINE_303_">

				<line fill="none" stroke="#E74C3C" stroke-width="2" stroke-linecap="round" stroke-linejoin="round" stroke-miterlimit="10" x1="67.102" y1="437.105" x2="67.102" y2="286"/>
		</g>
		<g id="LINE_31_">

				<line fill="none" stroke="#E74C3C" stroke-width="2" stroke-linecap="round" stroke-linejoin="round" stroke-miterlimit="10" x1="67.102" y1="238" x2="67.102" y2="87.104"/>
		</g>
		<g id="POLYLINE_302_">

				<polyline fill="none" stroke="#E74C3C" stroke-width="2" stroke-linecap="round" stroke-linejoin="round" stroke-miterlimit="10" points="
				60.474,93.733 67.102,87.104 73.729,93.733 			"/>
		</g>
		<g id="POLYLINE_293_">

				<polyline fill="none" stroke="#E74C3C" stroke-width="2" stroke-linecap="round" stroke-linejoin="round" stroke-miterlimit="10" points="
				73.729,430.478 67.102,437.105 60.474,430.478 			"/>
		</g>
		<g id="MTEXT_75_">
			<g>
				<g>
					<g>
						<path fill="#E74C3C" d="M49.464,256.466c-0.66-0.324-1.164-0.747-1.512-1.27c-0.349-0.521-0.534-1.083-0.558-1.683v-0.036
							c0-0.096,0.036-0.174,0.108-0.234c0.072-0.06,0.156-0.09,0.252-0.09h0.882c0.252,0,0.414,0.133,0.486,0.396
							c0.18,0.647,0.513,1.131,0.999,1.448c0.486,0.318,1.047,0.478,1.683,0.478c0.816,0,1.494-0.249,2.034-0.747
							s0.81-1.185,0.81-2.061c0-0.805-0.27-1.443-0.81-1.918c-0.54-0.474-1.218-0.711-2.034-0.711c-0.432,0-0.78,0.055-1.044,0.162
							c-0.264,0.108-0.534,0.265-0.81,0.469c-0.156,0.12-0.285,0.207-0.387,0.261c-0.102,0.054-0.213,0.081-0.333,0.081h-0.864
							c-0.108,0-0.204-0.039-0.288-0.117c-0.084-0.078-0.12-0.171-0.108-0.279l0.558-5.994c0.036-0.3,0.186-0.449,0.45-0.449h6.228
							c0.132,0,0.234,0.035,0.306,0.107c0.072,0.072,0.108,0.174,0.108,0.307v0.666c0,0.119-0.039,0.216-0.117,0.287
							c-0.078,0.072-0.177,0.108-0.297,0.108h-5.184l-0.324,3.618c0.576-0.408,1.35-0.612,2.322-0.612
							c0.804,0,1.536,0.159,2.196,0.478c0.66,0.317,1.185,0.782,1.575,1.395c0.39,0.612,0.585,1.338,0.585,2.178
							c0,0.889-0.195,1.653-0.585,2.295c-0.39,0.643-0.93,1.129-1.62,1.458c-0.69,0.33-1.479,0.495-2.367,0.495
							C50.904,256.951,50.124,256.789,49.464,256.466z"/>
						<path fill="#E74C3C" d="M60.453,256.654c-0.066-0.078-0.099-0.171-0.099-0.279c0-0.083,0.024-0.161,0.072-0.233l2.772-3.853
							c-0.288,0.072-0.624,0.108-1.008,0.108c-0.864-0.012-1.62-0.213-2.268-0.603c-0.648-0.391-1.143-0.9-1.485-1.53
							c-0.342-0.63-0.513-1.305-0.513-2.025c0-0.72,0.171-1.403,0.513-2.052c0.342-0.648,0.852-1.176,1.53-1.584
							c0.678-0.408,1.497-0.612,2.457-0.612c0.96,0,1.782,0.198,2.466,0.595c0.684,0.396,1.2,0.915,1.548,1.557
							s0.522,1.329,0.522,2.061c0,0.66-0.117,1.242-0.351,1.746c-0.234,0.504-0.543,1.026-0.927,1.566l-3.492,4.896
							c-0.084,0.108-0.165,0.195-0.243,0.262c-0.078,0.065-0.189,0.099-0.333,0.099h-0.9
							C60.605,256.771,60.519,256.732,60.453,256.654z M63.846,250.634c0.432-0.229,0.774-0.549,1.026-0.963
							s0.378-0.892,0.378-1.432c0-0.552-0.126-1.037-0.378-1.458c-0.252-0.42-0.594-0.744-1.026-0.972s-0.906-0.342-1.422-0.342
							c-0.504,0-0.969,0.114-1.395,0.342c-0.426,0.228-0.765,0.552-1.017,0.972c-0.252,0.421-0.378,0.906-0.378,1.458
							c0,0.54,0.126,1.018,0.378,1.432s0.588,0.734,1.008,0.963c0.42,0.228,0.888,0.342,1.404,0.342
							C62.939,250.976,63.414,250.861,63.846,250.634z"/>
						<path fill="#E74C3C" d="M68.949,247.304c-0.054-0.072-0.069-0.162-0.045-0.271l0.396-2.52
							c0.048-0.348,0.216-0.522,0.504-0.522h1.152c0.083,0,0.153,0.03,0.207,0.09c0.054,0.061,0.081,0.133,0.081,0.217
							c0,0.12-0.018,0.216-0.054,0.288l-0.936,2.43c-0.06,0.132-0.126,0.231-0.198,0.297c-0.072,0.066-0.18,0.099-0.324,0.099
							h-0.558C69.078,247.411,69.003,247.375,68.949,247.304z M71.775,247.304c-0.054-0.072-0.069-0.162-0.045-0.271l0.396-2.52
							c0.048-0.348,0.216-0.522,0.504-0.522h1.152c0.084,0,0.153,0.03,0.207,0.09c0.054,0.061,0.081,0.133,0.081,0.217
							c0,0.12-0.018,0.216-0.054,0.288l-0.936,2.43c-0.061,0.132-0.126,0.231-0.198,0.297c-0.072,0.066-0.18,0.099-0.324,0.099H72
							C71.904,247.411,71.829,247.375,71.775,247.304z"/>
						<path fill="#E74C3C" d="M19.441,276.254c-0.072-0.078-0.108-0.177-0.108-0.297v-10.152l-3.024,2.322
							c-0.084,0.072-0.174,0.108-0.27,0.108c-0.108,0-0.21-0.061-0.306-0.181l-0.432-0.558c-0.06-0.084-0.09-0.168-0.09-0.252
							c0-0.132,0.06-0.24,0.18-0.324l3.906-3.023c0.132-0.084,0.288-0.126,0.468-0.126h0.846c0.12,0,0.219,0.039,0.297,0.116
							c0.078,0.078,0.117,0.178,0.117,0.298v11.771c0,0.12-0.039,0.219-0.117,0.297s-0.177,0.117-0.297,0.117h-0.882
							C19.609,276.371,19.513,276.332,19.441,276.254z"/>
						<path fill="#E74C3C" d="M25.309,276.065c-0.66-0.324-1.164-0.747-1.512-1.27c-0.349-0.521-0.534-1.083-0.558-1.683v-0.036
							c0-0.096,0.036-0.174,0.108-0.234c0.072-0.06,0.156-0.09,0.252-0.09h0.882c0.252,0,0.414,0.133,0.486,0.396
							c0.18,0.647,0.513,1.131,0.999,1.448c0.486,0.318,1.047,0.478,1.683,0.478c0.816,0,1.494-0.249,2.034-0.747
							s0.81-1.185,0.81-2.061c0-0.805-0.27-1.443-0.81-1.918c-0.54-0.474-1.218-0.711-2.034-0.711c-0.432,0-0.78,0.055-1.044,0.162
							c-0.264,0.108-0.534,0.265-0.81,0.469c-0.156,0.12-0.285,0.207-0.387,0.261c-0.102,0.054-0.213,0.081-0.333,0.081H24.21
							c-0.108,0-0.204-0.039-0.288-0.117c-0.084-0.078-0.12-0.171-0.108-0.279l0.558-5.994c0.036-0.3,0.186-0.449,0.45-0.449h6.228
							c0.132,0,0.234,0.035,0.306,0.107c0.072,0.072,0.108,0.174,0.108,0.307v0.666c0,0.119-0.039,0.216-0.117,0.287
							c-0.078,0.072-0.177,0.108-0.297,0.108h-5.184l-0.324,3.618c0.576-0.408,1.35-0.612,2.322-0.612
							c0.804,0,1.536,0.159,2.196,0.478c0.66,0.317,1.185,0.782,1.575,1.395c0.39,0.612,0.585,1.338,0.585,2.178
							c0,0.889-0.195,1.653-0.585,2.295c-0.39,0.643-0.93,1.129-1.62,1.458c-0.69,0.33-1.479,0.495-2.367,0.495
							C26.749,276.551,25.968,276.389,25.309,276.065z"/>
						<path fill="#E74C3C" d="M35.361,275.192c-0.714-0.906-1.095-2.091-1.143-3.556l-0.018-1.548l0.018-1.602
							c0.036-1.452,0.417-2.631,1.143-3.537s1.857-1.359,3.393-1.359c1.548,0,2.685,0.453,3.411,1.359
							c0.726,0.906,1.107,2.085,1.143,3.537c0.012,0.336,0.018,0.87,0.018,1.602c0,0.708-0.006,1.225-0.018,1.548
							c-0.048,1.465-0.429,2.649-1.143,3.556c-0.714,0.906-1.851,1.358-3.411,1.358C37.207,276.551,36.075,276.099,35.361,275.192z
							 M40.842,274.139c0.468-0.611,0.714-1.476,0.738-2.592c0.012-0.348,0.018-0.846,0.018-1.494c0-0.659-0.006-1.151-0.018-1.476
							c-0.024-1.104-0.273-1.965-0.747-2.583c-0.474-0.618-1.167-0.927-2.079-0.927c-0.912,0-1.602,0.309-2.07,0.927
							c-0.468,0.618-0.714,1.479-0.738,2.583l-0.018,1.476l0.018,1.494c0.024,1.116,0.27,1.98,0.738,2.592
							c0.468,0.612,1.158,0.918,2.07,0.918C39.678,275.057,40.375,274.751,40.842,274.139z"/>
						<path fill="#E74C3C" d="M50.976,275.462c-0.72-0.726-1.098-1.743-1.134-3.051l-0.018-0.72l0.018-0.721
							c0.036-1.308,0.414-2.324,1.134-3.051c0.72-0.726,1.722-1.089,3.006-1.089c0.864,0,1.593,0.153,2.187,0.459
							c0.594,0.306,1.038,0.688,1.332,1.143c0.294,0.457,0.453,0.912,0.477,1.368c0.012,0.108-0.027,0.204-0.117,0.288
							c-0.09,0.084-0.189,0.126-0.297,0.126h-0.792c-0.12,0-0.21-0.026-0.27-0.081c-0.06-0.054-0.12-0.152-0.18-0.297
							c-0.216-0.588-0.513-1.005-0.891-1.251s-0.855-0.369-1.431-0.369c-0.756,0-1.356,0.234-1.8,0.702
							c-0.444,0.468-0.684,1.183-0.72,2.143l-0.018,0.63l0.018,0.63c0.036,0.96,0.276,1.674,0.72,2.142
							c0.444,0.468,1.044,0.702,1.8,0.702c0.588,0,1.068-0.123,1.44-0.369s0.666-0.663,0.882-1.251
							c0.06-0.144,0.12-0.243,0.18-0.297s0.15-0.081,0.27-0.081h0.792c0.108,0,0.207,0.042,0.297,0.126
							c0.09,0.084,0.129,0.18,0.117,0.288c-0.024,0.444-0.183,0.895-0.477,1.35c-0.294,0.457-0.738,0.841-1.332,1.152
							c-0.594,0.312-1.323,0.468-2.187,0.468C52.698,276.551,51.696,276.188,50.976,275.462z"/>
						<path fill="#E74C3C" d="M60.255,276.254c-0.078-0.078-0.117-0.177-0.117-0.297v-8.532c0-0.119,0.039-0.219,0.117-0.297
							s0.177-0.117,0.297-0.117h0.756c0.12,0,0.216,0.039,0.288,0.117c0.072,0.078,0.108,0.178,0.108,0.297v0.612
							c0.648-0.804,1.524-1.206,2.628-1.206c1.32,0,2.256,0.552,2.808,1.656c0.288-0.504,0.699-0.906,1.233-1.206
							c0.534-0.3,1.131-0.45,1.791-0.45c0.984,0,1.788,0.336,2.412,1.008c0.624,0.673,0.936,1.645,0.936,2.916v5.202
							c0,0.12-0.039,0.219-0.117,0.297s-0.177,0.117-0.297,0.117h-0.774c-0.12,0-0.219-0.039-0.297-0.117s-0.117-0.177-0.117-0.297
							v-5.04c0-0.96-0.198-1.646-0.594-2.061s-0.918-0.621-1.566-0.621c-0.576,0-1.071,0.213-1.485,0.639s-0.621,1.107-0.621,2.043
							v5.04c0,0.12-0.039,0.219-0.117,0.297s-0.177,0.117-0.297,0.117h-0.792c-0.12,0-0.219-0.039-0.297-0.117
							c-0.078-0.078-0.117-0.177-0.117-0.297v-5.04c0-0.947-0.207-1.632-0.621-2.052c-0.414-0.42-0.927-0.63-1.539-0.63
							c-0.576,0-1.071,0.21-1.485,0.63s-0.621,1.098-0.621,2.034v5.058c0,0.12-0.04,0.219-0.117,0.297
							c-0.078,0.078-0.177,0.117-0.297,0.117h-0.792C60.432,276.371,60.333,276.332,60.255,276.254z"/>
					</g>
				</g>
			</g>
		</g>
	</g>
	<g>
		<g id="POLYLINE_290_">

				<line fill="none" stroke="#E74C3C" stroke-width="2" stroke-linecap="round" stroke-linejoin="round" stroke-miterlimit="10" x1="702.751" y1="461.754" x2="462" y2="461.754"/>
		</g>
		<g id="LINE_30_">

				<line fill="none" stroke="#E74C3C" stroke-width="2" stroke-linecap="round" stroke-linejoin="round" stroke-miterlimit="10" x1="336.88" y1="461.754" x2="91.75" y2="461.754"/>
		</g>
		<g id="POLYLINE_288_">

				<polyline fill="none" stroke="#E74C3C" stroke-width="2" stroke-linecap="round" stroke-linejoin="round" stroke-miterlimit="10" points="
				98.379,468.382 91.75,461.754 98.379,455.126 			"/>
		</g>
		<g id="POLYLINE_287_">

				<polyline fill="none" stroke="#E74C3C" stroke-width="2" stroke-linecap="round" stroke-linejoin="round" stroke-miterlimit="10" points="
				696.124,455.126 702.751,461.754 696.124,468.382 			"/>
		</g>
		<g id="MTEXT_29_">
			<g>
				<g>
					<g>
						<path fill="#E74C3C" d="M349.098,468.967c-0.072-0.078-0.108-0.177-0.108-0.297v-10.152l-3.024,2.322
							c-0.084,0.072-0.174,0.108-0.27,0.108c-0.108,0-0.21-0.061-0.306-0.181l-0.432-0.558c-0.06-0.084-0.09-0.168-0.09-0.252
							c0-0.132,0.06-0.24,0.18-0.324l3.906-3.023c0.132-0.084,0.288-0.126,0.468-0.126h0.846c0.12,0,0.219,0.039,0.297,0.116
							c0.078,0.078,0.117,0.178,0.117,0.298v11.771c0,0.12-0.039,0.219-0.117,0.297s-0.177,0.117-0.297,0.117h-0.882
							C349.266,469.084,349.17,469.045,349.098,468.967z"/>
						<path fill="#E74C3C" d="M354.363,467.905c-0.714-0.906-1.095-2.091-1.143-3.556l-0.018-1.548l0.018-1.602
							c0.036-1.452,0.417-2.631,1.143-3.537s1.857-1.359,3.393-1.359c1.548,0,2.685,0.453,3.411,1.359
							c0.726,0.906,1.107,2.085,1.143,3.537c0.012,0.336,0.018,0.87,0.018,1.602c0,0.708-0.006,1.225-0.018,1.548
							c-0.048,1.465-0.429,2.649-1.143,3.556c-0.714,0.906-1.851,1.358-3.411,1.358
							C356.208,469.264,355.077,468.812,354.363,467.905z M359.844,466.852c0.468-0.611,0.714-1.476,0.738-2.592
							c0.012-0.348,0.018-0.846,0.018-1.494c0-0.659-0.006-1.151-0.018-1.476c-0.024-1.104-0.273-1.965-0.747-2.583
							c-0.474-0.618-1.167-0.927-2.079-0.927c-0.912,0-1.602,0.309-2.07,0.927c-0.468,0.618-0.714,1.479-0.738,2.583l-0.018,1.476
							l0.018,1.494c0.024,1.116,0.27,1.98,0.738,2.592c0.468,0.612,1.158,0.918,2.07,0.918
							C358.68,467.77,359.376,467.464,359.844,466.852z"/>
						<path fill="#E74C3C" d="M366.359,468.805c-0.684-0.306-1.203-0.704-1.557-1.196s-0.543-1.002-0.567-1.53
							c0-0.108,0.036-0.195,0.108-0.261c0.072-0.066,0.162-0.1,0.27-0.1h0.81c0.132,0,0.24,0.027,0.324,0.081
							c0.083,0.054,0.15,0.159,0.198,0.315c0.156,0.611,0.495,1.044,1.017,1.296s1.137,0.378,1.845,0.378
							c0.864,0,1.551-0.207,2.061-0.621c0.51-0.414,0.765-1.005,0.765-1.773c0-1.464-0.894-2.195-2.682-2.195h-1.692
							c-0.12,0-0.219-0.039-0.297-0.117s-0.117-0.177-0.117-0.297v-0.468c0-0.181,0.066-0.336,0.198-0.469l3.51-3.888h-5.328
							c-0.12,0-0.219-0.036-0.297-0.108c-0.078-0.071-0.117-0.168-0.117-0.287v-0.648c0-0.132,0.039-0.237,0.117-0.315
							c0.078-0.077,0.177-0.116,0.297-0.116h7.128c0.132,0,0.237,0.039,0.315,0.116c0.078,0.078,0.117,0.184,0.117,0.315v0.594
							c0,0.133-0.061,0.271-0.18,0.414l-3.51,3.942h0.288c1.224,0.036,2.193,0.354,2.907,0.954c0.714,0.6,1.071,1.476,1.071,2.628
							c0,0.792-0.195,1.473-0.585,2.043c-0.39,0.57-0.933,1.008-1.629,1.313c-0.696,0.307-1.482,0.459-2.358,0.459
							C367.854,469.264,367.043,469.111,366.359,468.805z"/>
						<path fill="#E74C3C" d="M375.314,459.616c-0.054-0.072-0.069-0.162-0.045-0.271l0.396-2.52
							c0.048-0.348,0.216-0.522,0.504-0.522h1.152c0.083,0,0.153,0.03,0.207,0.09c0.054,0.061,0.081,0.133,0.081,0.217
							c0,0.12-0.018,0.216-0.054,0.288l-0.936,2.43c-0.06,0.132-0.126,0.231-0.198,0.297c-0.072,0.066-0.18,0.099-0.324,0.099
							h-0.558C375.443,459.724,375.369,459.688,375.314,459.616z M378.141,459.616c-0.054-0.072-0.069-0.162-0.045-0.271l0.396-2.52
							c0.048-0.348,0.216-0.522,0.504-0.522h1.152c0.084,0,0.153,0.03,0.207,0.09c0.054,0.061,0.081,0.133,0.081,0.217
							c0,0.12-0.018,0.216-0.054,0.288l-0.936,2.43c-0.061,0.132-0.126,0.231-0.198,0.297c-0.072,0.066-0.18,0.099-0.324,0.099
							h-0.558C378.27,459.724,378.195,459.688,378.141,459.616z"/>
						<path fill="#E74C3C" d="M387.023,472.711c-0.072-0.078-0.108-0.177-0.108-0.297V453.37c0-0.12,0.036-0.219,0.108-0.297
							s0.168-0.117,0.288-0.117h0.666c0.12,0,0.219,0.039,0.297,0.117s0.117,0.177,0.117,0.297v19.044
							c0,0.12-0.039,0.219-0.117,0.297s-0.177,0.117-0.297,0.117h-0.666C387.191,472.828,387.095,472.789,387.023,472.711z"/>
						<path fill="#E74C3C" d="M395.149,468.967c-0.078-0.078-0.117-0.177-0.117-0.297v-0.54c0-0.275,0.15-0.54,0.45-0.792
							l3.924-3.906c0.888-0.756,1.5-1.374,1.836-1.854s0.504-0.99,0.504-1.53c0-0.708-0.198-1.263-0.594-1.665
							c-0.396-0.401-0.972-0.603-1.728-0.603c-0.72,0-1.29,0.21-1.71,0.63s-0.678,0.984-0.774,1.691
							c-0.024,0.133-0.084,0.234-0.18,0.307s-0.192,0.107-0.288,0.107h-0.864c-0.108,0-0.198-0.035-0.27-0.107
							s-0.108-0.156-0.108-0.252c0.024-0.636,0.195-1.251,0.513-1.846c0.318-0.594,0.789-1.079,1.413-1.458
							c0.624-0.378,1.38-0.566,2.268-0.566c1.344,0,2.355,0.351,3.033,1.053c0.678,0.702,1.017,1.593,1.017,2.673
							c0,0.756-0.183,1.438-0.549,2.043c-0.366,0.606-0.939,1.245-1.719,1.917l-3.546,3.601h5.67c0.132,0,0.234,0.036,0.306,0.107
							c0.072,0.072,0.108,0.175,0.108,0.307v0.684c0,0.12-0.04,0.219-0.117,0.297c-0.078,0.078-0.177,0.117-0.297,0.117h-7.884
							C395.326,469.084,395.228,469.045,395.149,468.967z"/>
						<path fill="#E74C3C" d="M407.696,468.679c-0.702-0.39-1.236-0.915-1.602-1.575c-0.366-0.659-0.549-1.379-0.549-2.159
							c0-1.032,0.414-2.136,1.242-3.312l3.438-4.788c0.012-0.012,0.045-0.054,0.099-0.126c0.054-0.072,0.123-0.129,0.207-0.171
							c0.083-0.042,0.18-0.062,0.288-0.062h0.882c0.108,0,0.195,0.039,0.261,0.116c0.066,0.078,0.099,0.172,0.099,0.279
							c0,0.061-0.03,0.139-0.09,0.234l-2.628,3.672c0.312-0.072,0.66-0.108,1.044-0.108c0.875,0,1.647,0.195,2.313,0.585
							c0.666,0.391,1.182,0.906,1.548,1.548c0.366,0.643,0.549,1.348,0.549,2.115c0,0.769-0.183,1.485-0.549,2.151
							c-0.366,0.666-0.897,1.197-1.593,1.593c-0.696,0.396-1.519,0.594-2.466,0.594
							C409.229,469.264,408.397,469.069,407.696,468.679z M411.628,467.446c0.444-0.216,0.798-0.537,1.062-0.963
							s0.396-0.939,0.396-1.539c0-0.588-0.135-1.096-0.405-1.521s-0.627-0.75-1.071-0.972c-0.444-0.222-0.924-0.333-1.44-0.333
							s-0.996,0.111-1.44,0.333s-0.798,0.546-1.062,0.972s-0.396,0.934-0.396,1.521c0,0.6,0.132,1.113,0.396,1.539
							s0.618,0.747,1.062,0.963s0.924,0.323,1.44,0.323C410.699,467.77,411.185,467.662,411.628,467.446z"/>
						<path fill="#E74C3C" d="M416.461,468.967c-0.078-0.078-0.117-0.177-0.117-0.297v-0.54c0-0.275,0.15-0.54,0.45-0.792
							l3.924-3.906c0.888-0.756,1.5-1.374,1.836-1.854s0.504-0.99,0.504-1.53c0-0.708-0.198-1.263-0.594-1.665
							c-0.396-0.401-0.972-0.603-1.728-0.603c-0.72,0-1.29,0.21-1.71,0.63s-0.678,0.984-0.774,1.691
							c-0.024,0.133-0.084,0.234-0.18,0.307s-0.192,0.107-0.288,0.107h-0.864c-0.108,0-0.198-0.035-0.27-0.107
							s-0.108-0.156-0.108-0.252c0.024-0.636,0.195-1.251,0.513-1.846c0.318-0.594,0.789-1.079,1.413-1.458
							c0.624-0.378,1.38-0.566,2.268-0.566c1.344,0,2.355,0.351,3.033,1.053c0.678,0.702,1.017,1.593,1.017,2.673
							c0,0.756-0.183,1.438-0.549,2.043c-0.366,0.606-0.939,1.245-1.719,1.917l-3.546,3.601h5.67c0.132,0,0.234,0.036,0.306,0.107
							c0.072,0.072,0.108,0.175,0.108,0.307v0.684c0,0.12-0.04,0.219-0.117,0.297c-0.078,0.078-0.177,0.117-0.297,0.117h-7.884
							C416.638,469.084,416.54,469.045,416.461,468.967z"/>
						<path fill="#E74C3C" d="M432.49,468.175c-0.72-0.726-1.098-1.743-1.134-3.051l-0.019-0.72l0.019-0.721
							c0.036-1.308,0.414-2.324,1.134-3.051c0.72-0.726,1.722-1.089,3.006-1.089c0.864,0,1.593,0.153,2.188,0.459
							c0.594,0.306,1.037,0.688,1.332,1.143c0.294,0.457,0.452,0.912,0.477,1.368c0.012,0.108-0.026,0.204-0.117,0.288
							c-0.09,0.084-0.188,0.126-0.297,0.126h-0.792c-0.12,0-0.21-0.026-0.27-0.081c-0.061-0.054-0.12-0.152-0.181-0.297
							c-0.216-0.588-0.513-1.005-0.891-1.251s-0.854-0.369-1.431-0.369c-0.756,0-1.356,0.234-1.801,0.702
							c-0.443,0.468-0.684,1.183-0.72,2.143l-0.018,0.63l0.018,0.63c0.036,0.96,0.276,1.674,0.72,2.142
							c0.444,0.468,1.045,0.702,1.801,0.702c0.588,0,1.067-0.123,1.439-0.369s0.666-0.663,0.882-1.251
							c0.061-0.144,0.12-0.243,0.181-0.297c0.06-0.054,0.149-0.081,0.27-0.081h0.792c0.108,0,0.207,0.042,0.297,0.126
							c0.091,0.084,0.129,0.18,0.117,0.288c-0.024,0.444-0.183,0.895-0.477,1.35c-0.295,0.457-0.738,0.841-1.332,1.152
							c-0.595,0.312-1.323,0.468-2.188,0.468C434.211,469.264,433.209,468.901,432.49,468.175z"/>
						<path fill="#E74C3C" d="M441.769,468.967c-0.078-0.078-0.117-0.177-0.117-0.297v-8.532c0-0.119,0.039-0.219,0.117-0.297
							s0.177-0.117,0.297-0.117h0.756c0.12,0,0.217,0.039,0.288,0.117c0.072,0.078,0.108,0.178,0.108,0.297v0.612
							c0.648-0.804,1.523-1.206,2.628-1.206c1.32,0,2.256,0.552,2.808,1.656c0.288-0.504,0.699-0.906,1.233-1.206
							s1.131-0.45,1.791-0.45c0.983,0,1.788,0.336,2.412,1.008c0.624,0.673,0.936,1.645,0.936,2.916v5.202
							c0,0.12-0.039,0.219-0.116,0.297c-0.078,0.078-0.178,0.117-0.298,0.117h-0.773c-0.12,0-0.219-0.039-0.297-0.117
							s-0.117-0.177-0.117-0.297v-5.04c0-0.96-0.198-1.646-0.594-2.061c-0.396-0.414-0.918-0.621-1.566-0.621
							c-0.576,0-1.071,0.213-1.485,0.639c-0.413,0.426-0.62,1.107-0.62,2.043v5.04c0,0.12-0.039,0.219-0.117,0.297
							s-0.178,0.117-0.297,0.117h-0.792c-0.12,0-0.22-0.039-0.298-0.117s-0.116-0.177-0.116-0.297v-5.04
							c0-0.947-0.207-1.632-0.621-2.052s-0.927-0.63-1.539-0.63c-0.576,0-1.071,0.21-1.485,0.63s-0.621,1.098-0.621,2.034v5.058
							c0,0.12-0.039,0.219-0.117,0.297s-0.177,0.117-0.297,0.117h-0.792C441.946,469.084,441.847,469.045,441.769,468.967z"/>
					</g>
				</g>
			</g>
		</g>
	</g>
</g>
<g id="N-TEXT">
</g>
<g id="AG-DIAGRAM">
</g>
<g id="AG-DETAIL-DIAGRAM">
</g>
<g id="AG-DETAIL">
	<g id="POLYLINE_450_">

			<path fill="none" stroke="#E74C3C" stroke-width="2.5" stroke-linecap="round" stroke-linejoin="round" stroke-miterlimit="10" d="
			M556.949,252.455c-1.397,2.424-1.117,5.546,0.693,7.68c1.809,2.133,4.846,2.921,7.464,1.936c2.618-0.985,4.382-3.578,4.338-6.375
			c-0.044-2.796-1.892-5.333-4.539-6.233c-2.638-0.897-5.637-0.023-7.38,2.151C557.311,251.88,557.119,252.161,556.949,252.455z"/>
	</g>
	<g id="POLYLINE_449_">

			<path fill="none" stroke="#E74C3C" stroke-width="2.5" stroke-linecap="round" stroke-linejoin="round" stroke-miterlimit="10" d="
			M556.949,265.848c-1.397,2.424-1.117,5.546,0.693,7.68c1.809,2.133,4.846,2.921,7.464,1.936c2.618-0.985,4.382-3.578,4.338-6.375
			c-0.044-2.796-1.892-5.333-4.539-6.233c-2.638-0.897-5.637-0.023-7.38,2.151C557.311,265.273,557.119,265.554,556.949,265.848z"/>
	</g>
	<g id="POLYLINE_420_">

			<path fill="none" stroke="#E74C3C" stroke-width="2.5" stroke-linecap="round" stroke-linejoin="round" stroke-miterlimit="10" d="
			M545.35,259.152c-1.397,2.424-1.117,5.546,0.693,7.68c1.809,2.133,4.846,2.921,7.464,1.936c2.618-0.985,4.382-3.578,4.338-6.375
			c-0.044-2.796-1.891-5.333-4.539-6.233c-2.638-0.897-5.637-0.023-7.38,2.151C545.713,258.576,545.52,258.857,545.35,259.152z"/>
	</g>
	<g id="POLYLINE_419_">

			<path fill="none" stroke="#E74C3C" stroke-width="2.5" stroke-linecap="round" stroke-linejoin="round" stroke-miterlimit="10" d="
			M556.949,279.241c-1.397,2.424-1.117,5.546,0.693,7.68c1.809,2.133,4.846,2.921,7.464,1.936c2.618-0.985,4.382-3.578,4.338-6.375
			c-0.044-2.796-1.892-5.333-4.539-6.233c-2.638-0.897-5.637-0.023-7.38,2.151C557.311,278.665,557.119,278.947,556.949,279.241z"/>
	</g>
	<g id="POLYLINE_418_">

			<path fill="none" stroke="#E74C3C" stroke-width="2.5" stroke-linecap="round" stroke-linejoin="round" stroke-miterlimit="10" d="
			M545.35,272.545c-1.397,2.424-1.117,5.546,0.693,7.68c1.809,2.133,4.846,2.921,7.464,1.936c2.618-0.985,4.382-3.578,4.338-6.375
			c-0.044-2.797-1.891-5.333-4.539-6.233c-2.638-0.897-5.637-0.023-7.38,2.151C545.713,271.969,545.52,272.25,545.35,272.545z"/>
	</g>
	<g id="POLYLINE_417_">

			<path fill="none" stroke="#E74C3C" stroke-width="2.5" stroke-linecap="round" stroke-linejoin="round" stroke-miterlimit="10" d="
			M533.752,265.848c-1.397,2.424-1.117,5.546,0.693,7.68c1.809,2.133,4.846,2.921,7.464,1.936c2.619-0.985,4.382-3.578,4.338-6.375
			c-0.044-2.796-1.892-5.333-4.539-6.233c-2.638-0.897-5.638-0.023-7.38,2.151C534.114,265.273,533.922,265.554,533.752,265.848z"/>
	</g>
	<g id="POLYLINE_416_">

			<path fill="none" stroke="#E74C3C" stroke-width="2.5" stroke-linecap="round" stroke-linejoin="round" stroke-miterlimit="10" d="
			M533.752,259.152c-1.4-2.422-4.244-3.741-6.997-3.24c-2.752,0.5-4.953,2.736-5.409,5.496c-0.456,2.76,0.907,5.584,3.352,6.944
			c2.444,1.36,5.564,1.028,7.668-0.815c2.096-1.836,2.839-4.87,1.827-7.467C534.069,259.754,533.921,259.446,533.752,259.152z"/>
	</g>
	<g id="POLYLINE_415_">

			<path fill="none" stroke="#E74C3C" stroke-width="2.5" stroke-linecap="round" stroke-linejoin="round" stroke-miterlimit="10" d="
			M545.35,252.455c-1.4-2.422-4.244-3.741-6.997-3.24c-2.752,0.5-4.952,2.736-5.409,5.496c-0.456,2.76,0.907,5.584,3.352,6.944
			c2.444,1.36,5.564,1.028,7.668-0.815c2.096-1.836,2.839-4.87,1.827-7.467C545.667,253.057,545.52,252.75,545.35,252.455z"/>
	</g>
	<g id="POLYLINE_414_">

			<path fill="none" stroke="#E74C3C" stroke-width="2.5" stroke-linecap="round" stroke-linejoin="round" stroke-miterlimit="10" d="
			M556.949,245.759c-1.4-2.422-4.244-3.741-6.997-3.24c-2.752,0.5-4.952,2.736-5.409,5.496c-0.456,2.76,0.908,5.584,3.352,6.944
			c2.444,1.36,5.564,1.028,7.668-0.815c2.096-1.836,2.839-4.87,1.827-7.467C557.266,246.361,557.119,246.053,556.949,245.759z"/>
	</g>
	<g id="POLYLINE_402_">

			<path fill="none" stroke="#E74C3C" stroke-width="2.5" stroke-linecap="round" stroke-linejoin="round" stroke-miterlimit="10" d="
			M568.547,239.062c-1.4-2.422-4.244-3.741-6.997-3.24c-2.752,0.5-4.953,2.736-5.409,5.496c-0.456,2.76,0.907,5.584,3.352,6.944
			c2.444,1.36,5.564,1.028,7.668-0.815c2.096-1.836,2.839-4.87,1.827-7.467C568.865,239.664,568.717,239.357,568.547,239.062z"/>
	</g>
	<g id="POLYLINE_399_">

			<path fill="none" stroke="#E74C3C" stroke-width="2.5" stroke-linecap="round" stroke-linejoin="round" stroke-miterlimit="10" d="
			M580.146,232.366c-1.4-2.422-4.244-3.741-6.997-3.24c-2.752,0.5-4.952,2.736-5.409,5.496c-0.456,2.76,0.907,5.584,3.352,6.944
			c2.444,1.36,5.564,1.028,7.668-0.815c2.096-1.836,2.839-4.87,1.827-7.467C580.463,232.968,580.316,232.661,580.146,232.366z"/>
	</g>
	<g id="POLYLINE_394_">

			<path fill="none" stroke="#E74C3C" stroke-width="2.5" stroke-linecap="round" stroke-linejoin="round" stroke-miterlimit="10" d="
			M574.347,242.411c-2.797,0.002-5.361,1.805-6.304,4.44c-0.943,2.633-0.107,5.657,2.055,7.432c2.162,1.775,5.29,2.006,7.69,0.57
			c2.4-1.436,3.672-4.304,3.128-7.048c-0.542-2.733-2.798-4.894-5.553-5.316C575.026,242.437,574.687,242.411,574.347,242.411z"/>
	</g>
	<g id="POLYLINE_216_">

			<path fill="none" stroke="#E74C3C" stroke-width="2.5" stroke-linecap="round" stroke-linejoin="round" stroke-miterlimit="10" d="
			M574.347,255.804c-2.797,0.002-5.361,1.805-6.304,4.44c-0.943,2.633-0.107,5.657,2.055,7.432c2.162,1.775,5.29,2.006,7.69,0.57
			c2.4-1.436,3.672-4.304,3.128-7.048c-0.542-2.733-2.798-4.894-5.553-5.316C575.026,255.83,574.687,255.804,574.347,255.804z"/>
	</g>
	<g id="POLYLINE_215_">

			<path fill="none" stroke="#E74C3C" stroke-width="2.5" stroke-linecap="round" stroke-linejoin="round" stroke-miterlimit="10" d="
			M574.347,269.196c-2.797,0.002-5.361,1.805-6.304,4.44c-0.943,2.633-0.107,5.657,2.055,7.432c2.162,1.775,5.29,2.006,7.69,0.57
			c2.4-1.436,3.672-4.304,3.128-7.048c-0.542-2.733-2.798-4.894-5.553-5.316C575.026,269.223,574.687,269.197,574.347,269.196z"/>
	</g>
	<g id="POLYLINE_214_">

			<path fill="none" stroke="#E74C3C" stroke-width="2.5" stroke-linecap="round" stroke-linejoin="round" stroke-miterlimit="10" d="
			M574.347,282.589c-2.797,0.002-5.361,1.805-6.304,4.44c-0.943,2.633-0.107,5.657,2.055,7.432c2.162,1.775,5.29,2.006,7.69,0.57
			c2.4-1.436,3.672-4.304,3.128-7.048c-0.542-2.733-2.798-4.894-5.553-5.316C575.026,282.615,574.687,282.59,574.347,282.589z"/>
	</g>
</g>
<g id="AG-PEOPLE">
</g>
<g id="AG-SPORTS">
	<g id="POLYLINE_343_">

			<line fill="none" stroke="#E74C3C" stroke-width="2.5" stroke-linecap="round" stroke-linejoin="round" stroke-miterlimit="10" x1="703.548" y1="391.853" x2="675.867" y2="391.853"/>
	</g>
	<g id="POLYLINE_342_">

			<line fill="none" stroke="#E74C3C" stroke-width="2.5" stroke-linecap="round" stroke-linejoin="round" stroke-miterlimit="10" x1="703.548" y1="133.147" x2="675.867" y2="133.147"/>
	</g>
	<g id="POLYLINE_341_">

			<line fill="none" stroke="#E74C3C" stroke-width="2.5" stroke-linecap="round" stroke-linejoin="round" stroke-miterlimit="10" x1="90.452" y1="391.853" x2="118.133" y2="391.853"/>
	</g>
	<g id="POLYLINE_340_">

			<line fill="none" stroke="#E74C3C" stroke-width="2.5" stroke-linecap="round" stroke-linejoin="round" stroke-miterlimit="10" x1="90.452" y1="133.147" x2="118.133" y2="133.147"/>
	</g>
	<g id="POLYLINE_339_">

			<line fill="none" stroke="#E74C3C" stroke-width="2.5" stroke-linecap="round" stroke-linejoin="round" stroke-miterlimit="10" x1="136.695" y1="410.415" x2="136.695" y2="438.095"/>
	</g>
	<g id="POLYLINE_338_">

			<line fill="none" stroke="#E74C3C" stroke-width="2.5" stroke-linecap="round" stroke-linejoin="round" stroke-miterlimit="10" x1="657.305" y1="410.415" x2="657.305" y2="438.095"/>
	</g>
	<g id="POLYLINE_337_">

			<line fill="none" stroke="#E74C3C" stroke-width="2.5" stroke-linecap="round" stroke-linejoin="round" stroke-miterlimit="10" x1="136.695" y1="114.585" x2="136.695" y2="86.905"/>
	</g>
	<g id="POLYLINE_336_">

			<line fill="none" stroke="#E74C3C" stroke-width="2.5" stroke-linecap="round" stroke-linejoin="round" stroke-miterlimit="10" x1="657.305" y1="114.585" x2="657.305" y2="86.905"/>
	</g>
	<g id="POLYLINE_335_">

			<path fill="none" stroke="#E74C3C" stroke-width="2.5" stroke-linecap="round" stroke-linejoin="round" stroke-miterlimit="10" d="
			M673.786,86.905c7.452,0.064,14.682,2.817,20.176,7.884c5.461,5.036,8.893,12.075,9.488,19.481
			c0.174,2.164,0.098,4.36,0.098,6.529c0,4.472,0,8.943,0,13.415c0,7.015,0,14.03,0,21.045c0,9.015,0,18.031,0,27.046
			c0,10.359,0,20.718,0,31.077c0,11.249,0,22.498,0,33.747c0,11.44,0,22.879,0,34.319c0,11.189,0,22.379,0,33.568
			c0,10.24,0,20.48,0,30.72c0,8.836,0,17.672,0,26.508c0,6.776,0,13.553,0,20.329c0,4.173,0,8.346,0,12.519
			c0,2.653,0.048,5.291-0.372,7.925c-1.165,7.308-5.099,14.036-10.897,18.634c-5.257,4.169-11.824,6.418-18.524,6.444
			c-1.113,0.004-2.227,0-3.34,0c-2.861,0-5.722,0-8.582,0c-4.417,0-8.834,0-13.251,0c-5.865,0-11.73,0-17.595,0
			c-7.087,0-14.174,0-21.261,0c-8.232,0-16.464,0-24.696,0c-9.151,0-18.303,0-27.454,0c-9.934,0-19.869,0-29.803,0
			c-10.59,0-21.18,0-31.769,0c-10.992,0-21.985,0-32.977,0c-11.363,0-22.727,0-34.09,0c-11.445,0-22.89,0-34.335,0
			c-11.5,0-23,0-34.5,0c-11.264,0-22.528,0-33.792,0c-11,0-21.999,0-32.999,0c-10.479,0-20.959,0-31.438,0
			c-9.833,0-19.666,0-29.498,0c-9.027,0-18.055,0-27.082,0c-8.063,0-16.126,0-24.189,0c-6.958,0-13.917,0-20.875,0
			c-5.64,0-11.28,0-16.92,0c-4.228,0-8.455,0-12.683,0c-2.608,0-5.216,0-7.824,0c-1.176,0-2.355,0.022-3.531-0.016
			c-7.397-0.236-14.566-3.292-19.858-8.465c-5.311-5.192-8.533-12.324-8.917-19.741c-0.104-2-0.04-4.017-0.04-6.019
			c0-4.578,0-9.155,0-13.733c0-7.124,0-14.247,0-21.371c0-9.027,0-18.053,0-27.08c0-10.461,0-20.921,0-31.382
			c0-11.204,0-22.409,0-33.613c0-11.504,0-23.009,0-34.513c0-11.102,0-22.204,0-33.306c0-10.255,0-20.509,0-30.764
			c0-8.719,0-17.438,0-26.158c0-6.711,0-13.423,0-20.134c0-4.064,0-8.128,0-12.192c0-2.849-0.014-5.662,0.52-8.482
			c1.382-7.297,5.536-13.929,11.499-18.357c5.137-3.814,11.409-5.842,17.797-5.866c1.188-0.005,2.377,0,3.565,0
			c2.906,0,5.813,0,8.719,0c4.499,0,8.998,0,13.497,0c5.881,0,11.763,0,17.644,0c7.173,0,14.345,0,21.518,0
			c8.248,0,16.496,0,24.744,0c9.184,0,18.368,0,27.551,0c9.961,0,19.921,0,29.882,0c10.579,0,21.158,0,31.737,0
			c11.071,0,22.141,0,33.212,0c11.306,0,22.613,0,33.919,0c11.514,0,23.028,0,34.542,0c11.43,0,22.86,0,34.291,0
			c11.32,0,22.64,0,33.96,0c10.921,0,21.842,0,32.762,0c10.489,0,20.978,0,31.467,0c9.805,0,19.611,0,29.416,0
			c8.994,0,17.988,0,26.982,0c8.024,0,16.047,0,24.071,0c6.895,0,13.789,0,20.684,0c5.621,0,11.242,0,16.863,0
			c4.146,0,8.292,0,12.438,0c2.56,0,5.119,0,7.679,0C672.204,86.905,672.995,86.905,673.786,86.905z"/>
	</g>
	<g id="POLYLINE_334_">

			<path fill="none" stroke="#E74C3C" stroke-width="2.5" stroke-linecap="round" stroke-linejoin="round" stroke-miterlimit="10" d="
			M127.224,382.383c-1.625,1.625-3.249,3.249-4.874,4.874c-1.138,1.138-2.366,2.234-3.392,3.48
			c-1.668,2.025-2.715,4.532-2.983,7.142c-0.541,5.258,2.165,10.472,6.776,13.056c4.613,2.584,10.473,2.169,14.675-1.041
			c1.172-0.895,2.177-2.01,3.217-3.049c1.087-1.087,2.175-2.175,3.262-3.262c0.62-0.62,1.715-1.359,2.137-2.137
			c0.3-0.553,0.054-1.667,0.007-2.321c-0.065-0.903-0.15-1.805-0.27-2.703c-0.223-1.663-0.559-3.329-1.158-4.9
			c-0.98-2.569-2.85-4.822-5.138-6.345c-2.775-1.848-6.239-2.368-9.496-2.635C129.068,382.465,128.147,382.42,127.224,382.383z"/>
	</g>
	<g id="POLYLINE_333_">

			<path fill="none" stroke="#E74C3C" stroke-width="2.5" stroke-linecap="round" stroke-linejoin="round" stroke-miterlimit="10" d="
			M381.375,393.452c1.063,3.968,2.127,7.936,3.19,11.905c-5.344,0-10.687,0-16.03,0c-3.83,0-7.66,0-11.49,0
			c-7.326,0-14.652,0-21.978,0c-9.877,0-19.754,0-29.631,0c-11.362,0-22.725,0-34.087,0c-11.749,0-23.499,0-35.248,0
			c-11.241,0-22.482,0-33.723,0c-9.634,0-19.267,0-28.901,0c-6.963,0-13.926,0-20.89,0c-3.323,0-6.712,0.193-10.031,0
			c-0.141-0.008-0.285,0-0.426,0c3.154-3.154,6.308-6.308,9.462-9.462c0.661-0.661,1.322-1.322,1.984-1.984
			c0.124-0.124,0.309-0.393,0.475-0.459c0.159-0.063,0.472,0,0.639,0c3.764,0,7.529,0,11.293,0c7.539,0,15.079,0,22.618,0
			c10.143,0,20.287,0,30.43,0c11.576,0,23.153,0,34.729,0c11.838,0,23.676,0,35.514,0c10.929,0,21.857,0,32.786,0
			c8.848,0,17.696,0,26.544,0c5.596,0,11.192,0,16.789,0c3.475,0,6.951,0,10.426,0C377.671,393.452,379.523,393.452,381.375,393.452
			z"/>
	</g>
	<g id="POLYLINE_332_">

			<path fill="none" stroke="#E74C3C" stroke-width="2.5" stroke-linecap="round" stroke-linejoin="round" stroke-miterlimit="10" d="
			M135.095,262.5c0-4.81,0-9.619,0-14.429c0-11.038,0-22.077,0-33.115c0-12.182,0-24.364,0-36.546c0-8.24,0-16.48,0-24.721
			c0-0.904,0.341-2.613-0.171-3.372c-0.449-0.667-1.256-1.256-1.823-1.823c-1.016-1.016-2.032-2.032-3.048-3.048
			c-1.944-1.944-3.889-3.889-5.833-5.833c-0.343-0.343-0.687-0.687-1.03-1.03c0,4.127,0,8.253,0,12.38c0,9.871,0,19.743,0,29.614
			c0,11.932,0,23.864,0,35.796c0,10.331,0,20.661,0,30.992c0,4.977,0,9.953,0,14.93c0,3.315,0,6.631,0,9.946
			c0,9.34,0,18.681,0,28.021c0,11.909,0,23.819,0,35.728c0,10.677,0,21.353,0,32.029c0,5.864,0,11.727,0,17.591
			c0,0.269,0,0.537,0,0.806c3.339-3.339,6.679-6.679,10.018-10.018c0.521-0.521,1.671-1.29,1.887-1.992c0.138-0.45,0-1.166,0-1.631
			c0-7.413,0-14.827,0-22.24c0-11.974,0-23.948,0-35.922c0-11.449,0-22.899,0-34.348c0-5.839,0-11.679,0-17.518
			C135.095,262.664,135.095,262.582,135.095,262.5z"/>
	</g>
	<g id="POLYLINE_331_">

			<path fill="none" stroke="#E74C3C" stroke-width="2.5" stroke-linecap="round" stroke-linejoin="round" stroke-miterlimit="10" d="
			M381.375,131.548c1.063-3.968,2.127-7.937,3.19-11.905c-5.344,0-10.687,0-16.03,0c-3.83,0-7.66,0-11.49,0
			c-7.326,0-14.652,0-21.978,0c-9.877,0-19.754,0-29.631,0c-11.362,0-22.725,0-34.087,0c-11.749,0-23.499,0-35.248,0
			c-11.241,0-22.482,0-33.723,0c-9.634,0-19.267,0-28.901,0c-6.963,0-13.926,0-20.89,0c-3.323,0-6.712-0.193-10.031,0
			c-0.141,0.008-0.285,0-0.426,0c3.154,3.154,6.308,6.308,9.462,9.462c0.661,0.661,1.322,1.322,1.984,1.984
			c0.124,0.124,0.309,0.393,0.475,0.459c0.159,0.063,0.472,0,0.639,0c3.764,0,7.529,0,11.293,0c7.539,0,15.079,0,22.618,0
			c10.143,0,20.287,0,30.43,0c11.576,0,23.153,0,34.729,0c11.838,0,23.676,0,35.514,0c10.929,0,21.857,0,32.786,0
			c8.848,0,17.696,0,26.544,0c5.596,0,11.192,0,16.789,0c3.475,0,6.951,0,10.426,0C377.671,131.548,379.523,131.548,381.375,131.548
			z"/>
	</g>
	<g id="POLYLINE_330_">

			<path fill="none" stroke="#E74C3C" stroke-width="2.5" stroke-linecap="round" stroke-linejoin="round" stroke-miterlimit="10" d="
			M127.224,142.617c-1.625-1.625-3.249-3.249-4.874-4.874c-1.138-1.138-2.366-2.234-3.392-3.48
			c-1.668-2.025-2.715-4.532-2.983-7.142c-0.541-5.258,2.165-10.472,6.776-13.056c4.613-2.584,10.473-2.169,14.675,1.041
			c1.172,0.895,2.177,2.01,3.217,3.049c1.087,1.087,2.175,2.175,3.262,3.262c0.62,0.62,1.715,1.359,2.137,2.137
			c0.3,0.553,0.054,1.667,0.007,2.321c-0.065,0.903-0.15,1.805-0.27,2.703c-0.223,1.663-0.559,3.329-1.158,4.9
			c-0.98,2.569-2.85,4.822-5.138,6.345c-2.775,1.848-6.239,2.368-9.496,2.635C129.068,142.535,128.147,142.58,127.224,142.617z"/>
	</g>
	<g id="POLYLINE_329_">

			<path fill="none" stroke="#E74C3C" stroke-width="2.5" stroke-linecap="round" stroke-linejoin="round" stroke-miterlimit="10" d="
			M412.625,393.452c-1.063,3.968-2.127,7.936-3.19,11.905c5.344,0,10.687,0,16.03,0c3.83,0,7.66,0,11.49,0
			c7.326,0,14.652,0,21.978,0c9.877,0,19.754,0,29.631,0c11.362,0,22.725,0,34.087,0c11.749,0,23.499,0,35.248,0
			c11.241,0,22.482,0,33.723,0c9.633,0,19.267,0,28.901,0c6.963,0,13.926,0,20.89,0c3.323,0,6.712,0.193,10.031,0
			c0.141-0.008,0.285,0,0.426,0c-3.154-3.154-6.308-6.308-9.462-9.462c-0.661-0.661-1.322-1.322-1.984-1.984
			c-0.124-0.124-0.309-0.393-0.475-0.459c-0.159-0.063-0.472,0-0.639,0c-3.764,0-7.529,0-11.293,0c-7.539,0-15.079,0-22.618,0
			c-10.143,0-20.287,0-30.43,0c-11.576,0-23.153,0-34.729,0c-11.838,0-23.676,0-35.514,0c-10.929,0-21.857,0-32.786,0
			c-8.848,0-17.696,0-26.544,0c-5.596,0-11.192,0-16.789,0c-3.475,0-6.951,0-10.426,0
			C416.329,393.452,414.477,393.452,412.625,393.452z"/>
	</g>
	<g id="POLYLINE_328_">

			<path fill="none" stroke="#E74C3C" stroke-width="2.5" stroke-linecap="round" stroke-linejoin="round" stroke-miterlimit="10" d="
			M666.776,382.383c1.625,1.625,3.249,3.249,4.874,4.874c1.138,1.138,2.366,2.234,3.392,3.48c1.668,2.025,2.715,4.532,2.983,7.142
			c0.541,5.258-2.165,10.472-6.776,13.056c-4.613,2.584-10.473,2.169-14.675-1.041c-1.172-0.895-2.177-2.01-3.217-3.049
			c-1.087-1.087-2.175-2.175-3.262-3.262c-0.62-0.62-1.715-1.359-2.137-2.137c-0.3-0.553-0.054-1.667-0.007-2.321
			c0.065-0.903,0.15-1.805,0.27-2.703c0.223-1.663,0.559-3.329,1.158-4.9c0.98-2.569,2.85-4.822,5.138-6.345
			c2.775-1.848,6.239-2.368,9.496-2.635C664.932,382.465,665.853,382.42,666.776,382.383z"/>
	</g>
	<g id="POLYLINE_327_">

			<path fill="none" stroke="#E74C3C" stroke-width="2.5" stroke-linecap="round" stroke-linejoin="round" stroke-miterlimit="10" d="
			M658.905,262.5c0-4.81,0-9.619,0-14.429c0-11.038,0-22.077,0-33.115c0-12.182,0-24.364,0-36.546c0-8.24,0-16.48,0-24.721
			c0-0.904-0.341-2.613,0.171-3.372c0.45-0.667,1.256-1.256,1.823-1.823c1.016-1.016,2.032-2.032,3.048-3.048
			c1.944-1.944,3.889-3.889,5.833-5.833c0.343-0.343,0.687-0.687,1.03-1.03c0,4.127,0,8.253,0,12.38c0,9.871,0,19.743,0,29.614
			c0,11.932,0,23.864,0,35.796c0,10.331,0,20.661,0,30.992c0,4.977,0,9.953,0,14.93c0,3.315,0,6.631,0,9.946
			c0,9.34,0,18.681,0,28.021c0,11.909,0,23.819,0,35.728c0,10.677,0,21.353,0,32.029c0,5.864,0,11.727,0,17.591
			c0,0.269,0,0.537,0,0.806c-3.339-3.339-6.679-6.679-10.018-10.018c-0.521-0.521-1.671-1.29-1.887-1.992
			c-0.138-0.45,0-1.166,0-1.631c0-7.413,0-14.827,0-22.24c0-11.974,0-23.948,0-35.922c0-11.449,0-22.899,0-34.348
			c0-5.839,0-11.679,0-17.518C658.905,262.664,658.905,262.582,658.905,262.5z"/>
	</g>
	<g id="POLYLINE_326_">

			<path fill="none" stroke="#E74C3C" stroke-width="2.5" stroke-linecap="round" stroke-linejoin="round" stroke-miterlimit="10" d="
			M666.776,142.617c1.625-1.625,3.249-3.249,4.874-4.874c1.138-1.138,2.366-2.234,3.392-3.48c1.668-2.025,2.715-4.532,2.983-7.142
			c0.541-5.258-2.165-10.472-6.776-13.056c-4.613-2.584-10.473-2.169-14.675,1.041c-1.172,0.895-2.177,2.01-3.217,3.049
			c-1.087,1.087-2.175,2.175-3.262,3.262c-0.62,0.62-1.715,1.359-2.137,2.137c-0.3,0.553-0.054,1.667-0.007,2.321
			c0.065,0.903,0.15,1.805,0.27,2.703c0.223,1.663,0.559,3.329,1.158,4.9c0.98,2.569,2.85,4.822,5.138,6.345
			c2.775,1.848,6.239,2.368,9.496,2.635C664.932,142.535,665.853,142.58,666.776,142.617z"/>
	</g>
	<g id="POLYLINE_325_">

			<path fill="none" stroke="#E74C3C" stroke-width="2.5" stroke-linecap="round" stroke-linejoin="round" stroke-miterlimit="10" d="
			M412.625,131.548c-1.063-3.968-2.127-7.937-3.19-11.905c5.344,0,10.687,0,16.03,0c3.83,0,7.66,0,11.49,0
			c7.326,0,14.652,0,21.978,0c9.877,0,19.754,0,29.631,0c11.362,0,22.725,0,34.087,0c11.749,0,23.499,0,35.248,0
			c11.241,0,22.482,0,33.723,0c9.633,0,19.267,0,28.901,0c6.963,0,13.926,0,20.89,0c3.323,0,6.712-0.193,10.031,0
			c0.141,0.008,0.285,0,0.426,0c-3.154,3.154-6.308,6.308-9.462,9.462c-0.661,0.661-1.322,1.322-1.984,1.984
			c-0.124,0.124-0.309,0.393-0.475,0.459c-0.159,0.063-0.472,0-0.639,0c-3.764,0-7.529,0-11.293,0c-7.539,0-15.079,0-22.618,0
			c-10.143,0-20.287,0-30.43,0c-11.576,0-23.153,0-34.729,0c-11.838,0-23.676,0-35.514,0c-10.929,0-21.857,0-32.786,0
			c-8.848,0-17.696,0-26.544,0c-5.596,0-11.192,0-16.789,0c-3.475,0-6.951,0-10.426,0
			C416.329,131.548,414.477,131.548,412.625,131.548z"/>
	</g>
	<g id="POLYLINE_324_">

			<path fill="none" stroke="#E74C3C" stroke-width="2.5" stroke-linecap="round" stroke-linejoin="round" stroke-miterlimit="10" d="
			M384.565,119.643c0.697-2.602,1.113-5.396,2.694-7.643c1.147-1.63,2.705-2.979,4.474-3.893c1.996-1.031,4.266-1.475,6.502-1.229
			c2.149,0.237,4.197,1.107,5.906,2.422c1.495,1.15,2.777,2.645,3.566,4.367c0.62,1.353,0.895,2.868,1.277,4.294
			c0.243,0.907,0.496,1.603,0.352,2.528c-0.096,0.618-0.244,1.228-0.455,1.817c-0.768,2.144-2.353,3.827-4.351,4.887
			c-2.457,1.303-5.337,1.715-8.088,1.643c-2.628-0.069-5.353-0.607-7.612-2.01c-1.95-1.211-3.364-3.066-3.951-5.292
			C384.716,120.916,384.615,120.281,384.565,119.643z"/>
	</g>
	<g id="POLYLINE_323_">

			<path fill="none" stroke="#E74C3C" stroke-width="2.5" stroke-linecap="round" stroke-linejoin="round" stroke-miterlimit="10" d="
			M384.565,405.357c0.697,2.602,1.113,5.396,2.694,7.643c1.147,1.63,2.705,2.979,4.474,3.893c1.996,1.031,4.266,1.475,6.502,1.229
			c2.149-0.237,4.197-1.107,5.906-2.422c1.495-1.15,2.777-2.646,3.566-4.367c0.62-1.353,0.895-2.868,1.277-4.294
			c0.243-0.907,0.496-1.603,0.352-2.528c-0.096-0.618-0.244-1.228-0.455-1.817c-0.768-2.144-2.353-3.827-4.351-4.887
			c-2.457-1.303-5.337-1.715-8.088-1.643c-2.628,0.069-5.353,0.607-7.612,2.01c-1.95,1.211-3.364,3.066-3.951,5.292
			C384.716,404.084,384.615,404.719,384.565,405.357z"/>
	</g>
</g>
<g id="AG-OUTLINE">
	<g id="POLYLINE_91_">

			<path fill="none" stroke="#E74C3C" stroke-width="3.25" stroke-linecap="round" stroke-linejoin="round" stroke-miterlimit="10" d="
			M673.786,86.905c-0.945,0-1.89,0-2.835,0c-2.716,0-5.432,0-8.149,0c-4.326,0-8.652,0-12.978,0c-5.774,0-11.548,0-17.322,0
			c-7.06,0-14.121,0-21.181,0c-8.211,0-16.421,0-24.631,0c-9.124,0-18.247,0-27.371,0c-9.98,0-19.961,0-29.941,0
			c-10.561,0-21.122,0-31.683,0c-11.102,0-22.204,0-33.306,0c-11.354,0-22.708,0-34.062,0c-11.575,0-23.151,0-34.726,0
			c-11.503,0-23.005,0-34.508,0c-11.401,0-22.801,0-34.202,0c-11.007,0-22.014,0-33.02,0c-10.578,0-21.156,0-31.734,0
			c-9.894,0-19.788,0-29.682,0c-9.08,0-18.159,0-27.239,0c-8.125,0-16.251,0-24.376,0c-6.944,0-13.889,0-20.833,0
			c-5.681,0-11.363,0-17.044,0c-4.192,0-8.384,0-12.576,0c-2.589,0-5.178,0-7.768,0c-1.271,0-2.547-0.026-3.816,0.034
			c-7.118,0.339-14.002,3.287-19.151,8.215c-5.17,4.947-8.433,11.711-9.076,18.839c-0.332,3.674-0.12,7.432-0.12,11.114
			c0,2.724,0,5.447,0,8.171c0,2.35,0,4.701,0,7.051c0,5.511,0,11.022,0,16.532c0,7.983,0,15.965,0,23.948c0,9.812,0,19.624,0,29.436
			c0,10.988,0,21.976,0,32.964c0,11.51,0,23.02,0,34.529c0,11.41,0,22.82,0,34.23c0,10.56,0,21.12,0,31.681
			c0,9.176,0,18.353,0,27.529c0,7.036,0,14.071,0,21.107c0,4.32,0,8.64,0,12.96c0,2.706-0.035,5.388,0.42,8.072
			c1.219,7.179,5.111,13.765,10.805,18.303c5.301,4.225,11.926,6.465,18.688,6.478c5.549,0.011,11.099,0,16.648,0
			c1.584,0,3.169,0,4.753,0c3.348,0,6.697,0,10.045,0c4.941,0,9.882,0,14.823,0c6.362,0,12.724,0,19.085,0c7.635,0,15.27,0,22.904,0
			c8.665,0,17.331,0,25.996,0c9.624,0,19.248,0,28.872,0c10.301,0,20.602,0,30.903,0c10.925,0,21.85,0,32.775,0
			c11.253,0,22.505,0,33.758,0c11.538,0,23.076,0,34.614,0c11.52,0,23.04,0,34.559,0c11.463,0,22.925,0,34.388,0
			c11.103,0,22.205,0,33.308,0c10.699,0,21.398,0,32.097,0c10.029,0,20.058,0,30.088,0c9.219,0,18.439,0,27.658,0
			c8.26,0,16.52,0,24.78,0c7.063,0,14.126,0,21.189,0c5.775,0,11.55,0,17.325,0c4.25,0,8.5,0,12.75,0c2.602,0,5.203,0,7.805,0
			c1.459,0,2.924,0.029,4.38-0.074c7.141-0.502,13.986-3.632,19.029-8.715c5.019-5.057,8.101-11.866,8.58-18.976
			c0.259-3.855,0.067-7.769,0.067-11.628c0-2.349,0-4.698,0-7.047c0-2.469,0-4.939,0-7.408c0-5.608,0-11.216,0-16.824
			c0-8.057,0-16.113,0-24.17c0-9.864,0-19.727,0-29.591c0-11.017,0-22.034,0-33.05c0-11.516,0-23.032,0-34.548
			c0-11.394,0-22.787,0-34.181c0-10.521,0-21.043,0-31.564c0-9.115,0-18.229,0-27.344c0-6.952,0-13.903,0-20.855
			c0-4.213,0-8.426,0-12.639c0-2.851,0.002-5.667-0.546-8.487c-1.392-7.17-5.459-13.679-11.286-18.082
			C686.578,89.031,680.222,86.912,673.786,86.905z"/>
	</g>
	<g id="POLYLINE_90_">

			<path fill="none" stroke="#E74C3C" stroke-width="3.25" stroke-linecap="round" stroke-linejoin="round" stroke-miterlimit="10" d="
			M670.81,386.417c2.114,2.114,4.495,4.104,5.86,6.819c0.863,1.716,1.35,3.617,1.418,5.536c0.182,5.142-2.699,10.051-7.278,12.397
			c-3.924,2.01-8.697,1.939-12.557-0.182c-2.869-1.577-5.07-4.317-7.347-6.595c-3.048-3.048-6.096-6.096-9.145-9.145
			c-0.494-0.494-1.227-1.59-1.904-1.795c-0.278-0.085-0.716,0-1.004,0c-1.65,0-3.299,0-4.949,0c-6.581,0-13.162,0-19.743,0
			c-9.859,0-19.717,0-29.576,0c-11.801,0-23.602,0-35.403,0c-12.473,0-24.947,0-37.42,0c-11.672,0-23.344,0-35.016,0
			c-9.601,0-19.202,0-28.804,0c-6.195,0-12.39,0-18.585,0c-3.527,0-7.054,0-10.581,0c-1.405,0-2.81,0-4.216,0
			c-0.347,0-1.637-0.211-1.935,0c-0.28,0.199-0.446,1.664-0.528,1.969c-0.364,1.36-0.729,2.719-1.093,4.079
			c-0.975,3.638-1.758,7.445-2.968,11.011c-1.116,3.288-4.101,5.934-7.333,7.052c-3.822,1.323-8.037,0.439-11.145-2.102
			c-3.757-3.073-4.326-7.61-5.522-12.074c-0.724-2.704-1.449-5.408-2.173-8.111c-0.126-0.469-0.201-1.623-0.622-1.824
			c-0.225-0.108-0.769,0-1.015,0c-0.655,0-1.309,0-1.964,0c-5.363,0-10.726,0-16.088,0c-8.872,0-17.745,0-26.617,0
			c-11.248,0-22.497,0-33.745,0c-12.302,0-24.603,0-36.905,0c-12.212,0-24.424,0-36.636,0c-10.925,0-21.849,0-32.774,0
			c-8.476,0-16.952,0-25.428,0c-4.734,0-9.468,0-14.203,0c-0.492,0-1.392-0.175-1.851,0.02c-0.466,0.197-1.019,1.019-1.366,1.366
			c-0.899,0.899-1.798,1.798-2.697,2.697c-2.048,2.048-4.095,4.095-6.143,6.143c-3.602,3.602-6.89,7.82-12.17,8.758
			c-4.839,0.859-9.891-1.079-12.91-4.96c-2.849-3.661-3.597-8.666-1.947-12.997c0.866-2.271,2.345-4.001,4.043-5.699
			c3.122-3.122,6.244-6.244,9.366-9.366c0.97-0.97,1.939-1.939,2.909-2.909c0.567-0.567,1.372-1.154,1.823-1.823
			c0.205-0.303,0.171-0.427,0.171-0.836c0-2.214,0-4.428,0-6.641c0-9.574,0-19.147,0-28.721c0-12.275,0-24.55,0-36.824
			c0-9.991,0-19.983,0-29.974c0-3.295,0-6.591,0-9.886c0-6.433,0-12.865,0-19.298c0-11.57,0-23.14,0-34.71
			c0-11.715,0-23.43,0-35.145c0-6.96,0-13.921,0-20.881c0-0.335,0.122-0.941,0-1.261c-0.113-0.296-0.615-0.632-0.837-0.854
			c-0.986-0.986-1.972-1.972-2.958-2.958c-3.071-3.071-6.143-6.143-9.214-9.214c-1.883-1.883-3.807-3.649-4.943-6.104
			c-0.805-1.739-1.23-3.648-1.238-5.565c-0.023-5.203,3.081-10.064,7.81-12.233c3.96-1.816,8.662-1.568,12.408,0.65
			c0.99,0.586,1.882,1.302,2.7,2.108c1.75,1.725,3.476,3.476,5.213,5.213c2.991,2.991,5.983,5.983,8.974,8.974
			c0.386,0.386,0.706,0.907,1.218,1.026c0.345,0.08,0.805,0,1.157,0c1.742,0,3.484,0,5.227,0c6.728,0,13.456,0,20.183,0
			c9.955,0,19.911,0,29.866,0c11.848,0,23.695,0,35.543,0c12.47,0,24.94,0,37.41,0c11.618,0,23.237,0,34.856,0
			c9.498,0,18.996,0,28.493,0c6.042,0,12.083,0,18.125,0c3.839,0,7.679,0,11.518,0c1.258,0,2.516,0,3.774,0
			c0.474,0,0.81,0.117,1.046-0.192c0.18-0.236,0.218-0.812,0.294-1.095c0.161-0.6,0.321-1.199,0.482-1.799
			c0.383-1.431,0.767-2.862,1.15-4.294c0.454-1.695,0.909-3.391,1.363-5.086c0.435-1.625,0.756-3.33,1.361-4.903
			c1.261-3.277,4.317-5.869,7.64-6.879c3.857-1.172,8.026-0.127,11.038,2.502c3.762,3.283,4.28,8.343,5.509,12.928
			c0.704,2.627,1.408,5.255,2.112,7.882c0.148,0.553,0.056,0.797,0.473,0.936c0.31,0.103,0.836,0,1.16,0c0.7,0,1.4,0,2.1,0
			c5.516,0,11.032,0,16.547,0c8.981,0,17.961,0,26.942,0c11.312,0,22.624,0,33.936,0c12.32,0,24.64,0,36.959,0
			c12.185,0,24.371,0,36.556,0c10.853,0,21.706,0,32.56,0c8.359,0,16.718,0,25.077,0c4.573,0,9.146,0,13.719,0
			c0.63,0,1.279,0.146,1.772-0.21c0.691-0.498,1.293-1.293,1.893-1.893c0.98-0.98,1.959-1.959,2.939-2.939
			c1.944-1.944,3.889-3.889,5.833-5.833c3.542-3.542,6.724-7.421,11.943-8.177c4.931-0.714,9.978,1.453,12.855,5.521
			c2.642,3.736,3.184,8.688,1.419,12.905c-0.914,2.182-2.415,3.83-4.066,5.481c-3.058,3.058-6.117,6.117-9.175,9.175
			c-1.038,1.038-2.076,2.076-3.115,3.115c-0.465,0.465-1.516,1.162-1.782,1.782c-0.1,0.234-0.013,0.689-0.013,0.941
			c0,2.377,0,4.754,0,7.13c0,9.764,0,19.528,0,29.291c0,12.279,0,24.559,0,36.838c0,9.811,0,19.623,0,29.434c0,3.12,0,6.239,0,9.359
			c0,6.714,0,13.427,0,20.141c0,11.666,0,23.331,0,34.997c0,11.626,0,23.251,0,34.877c0,6.687,0,13.374,0,20.061
			c0,0.247-0.096,0.73,0,0.964c0.103,0.25,0.535,0.539,0.72,0.724c0.693,0.693,1.386,1.386,2.079,2.079
			C664.739,380.346,667.774,383.382,670.81,386.417z"/>
	</g>
</g>
<g id="_x3C_Layer_x3E_">
</g>
</svg>
