<svg version="1.1" xmlns="http://www.w3.org/2000/svg" width="152" height="18" viewBox="0 0 152 18">
  <path fill="#fff" d="M16.782 17.325l-.23-4.275.23-10.575c0-.373.309-.675.69-.675.38 0 .689.302.689.675l.23 10.575-.23 4.275a.683.683 0 0 1-.69.675.683.683 0 0 1-.69-.675zm-2.759 0l-.23-4.275.23-7.875c0-.373.309-.675.69-.675.38 0 .69.302.69.675l.23 7.875-.23 4.275a.683.683 0 0 1-.69.675.683.683 0 0 1-.69-.675zm-2.759 0l-.23-4.275.23-8.775c0-.373.31-.675.69-.675.38 0 .69.302.69.675l.23 8.775-.23 4.275a.683.683 0 0 1-.69.675.683.683 0 0 1-.69-.675zm-2.758 0l-.23-4.275.23-6.975c0-.373.309-.675.69-.675.38 0 .69.302.69.675l.229 6.975-.23 4.275a.683.683 0 0 1-.69.675.683.683 0 0 1-.69-.675zm-2.759 0l-.23-4.275.23-3.375c0-.373.31-.675.69-.675.38 0 .69.302.69.675l.23 3.375-.23 4.275a.683.683 0 0 1-.69.675.683.683 0 0 1-.69-.675zm-2.758 0l-.23-4.275.23-4.275c0-.373.308-.675.69-.675.38 0 .689.302.689.675l.23 4.275-.23 4.275a.683.683 0 0 1-.69.675.683.683 0 0 1-.69-.675zm-2.76-1.8L0 13.05l.23-2.475c0-.373.309-.675.69-.675.38 0 .69.302.69.675l.23 2.475-.23 2.475a.683.683 0 0 1-.69.675.683.683 0 0 1-.69-.675zm32.296-7.974a5.608 5.608 0 0 1 1.958-.351C37.53 7.2 40 9.618 40 12.6S37.53 18 34.483 18H20.69c-.762 0-1.38-.606-1.38-1.351V2.25C19.31 0 23.448 0 23.448 0c4.575 0 8.369 3.27 9.077 7.551zM55.103 10.911c0-2.105-1.822-2.631-3.466-2.991-1.645-.36-2.089-.554-2.089-1.164 0-.43.37-.872 1.481-.872.949 0 1.69.36 2.356.997l1.496-1.357C53.903 4.568 52.718 4 51.103 4 49.06 4 47.4 5.08 47.4 6.84c0 1.91 1.333 2.479 3.244 2.894 1.956.416 2.311.693 2.311 1.316 0 .734-.578 1.052-1.807 1.052-.993 0-1.926-.318-2.652-1.108L47 12.241c.785 1.08 2.296 1.759 4.03 1.759 2.829 0 4.073-1.247 4.073-3.089zm11.013-1.925C66.116 5.856 64.265 4 61.57 4c-2.711 0-4.593 1.884-4.593 5.014 0 3.13 1.852 4.986 4.563 4.986 2.696 0 4.577-1.884 4.577-5.014zm-2.133.028c0 1.967-.963 3.06-2.414 3.06-1.452 0-2.46-1.121-2.46-3.088s.963-3.06 2.415-3.06 2.46 1.121 2.46 3.088zm12.88.554V4.152h-2.074v5.444c0 1.55-.815 2.506-2.133 2.506-1.319 0-2.119-.983-2.119-2.534V4.152h-2.074v5.444c0 2.825 1.69 4.404 4.193 4.404 2.637 0 4.207-1.62 4.207-4.432zm11.324 4.28V4.152h-2.044v4.1c0 .54.03 1.76.03 2.12-.134-.25-.474-.735-.726-1.095l-3.674-5.125h-1.985v9.696h2.044V9.582c0-.54-.03-1.76-.03-2.12.134.25.475.735.726 1.095l3.808 5.29h1.851zM99.586 9c0-3.546-2.193-4.848-5.156-4.848h-3.244v9.696h3.096c2.667 0 5.304-1.44 5.304-4.848zm-2.134 0c0 1.773-.992 2.964-3.17 2.964H93.26V6.036h1.096c2.193 0 3.096.983 3.096 2.964zm12.391-2.853C109.192 4.887 108.006 4 106.051 4c-2.711 0-4.607 2.05-4.607 5 0 3.06 1.822 5 4.533 5 1.881 0 3.126-.817 3.837-2.188l-1.748-.97c-.548.859-1.097 1.233-2.03 1.233-1.555 0-2.459-1.33-2.459-3.075 0-1.8.889-3.075 2.444-3.075.934 0 1.526.388 1.897 1.053l1.925-.831zm9.68 7.7v-1.91h-5.2V4.151h-2.073v9.696h7.273zm10.406-4.86c0-3.131-1.852-4.987-4.548-4.987-2.71 0-4.592 1.884-4.592 5.014 0 3.13 1.852 4.986 4.563 4.986 2.696 0 4.577-1.884 4.577-5.014zm-2.133.027c0 1.967-.963 3.06-2.415 3.06s-2.459-1.121-2.459-3.088.963-3.06 2.415-3.06 2.459 1.121 2.459 3.088zm12.88.554V4.152h-2.074v5.444c0 1.55-.815 2.506-2.133 2.506-1.319 0-2.119-.983-2.119-2.534V4.152h-2.074v5.444c0 2.825 1.689 4.404 4.193 4.404 2.636 0 4.207-1.62 4.207-4.432zM152 9c0-3.546-2.192-4.848-5.155-4.848H143.6v9.696h3.097c2.666 0 5.303-1.44 5.303-4.848zm-2.133 0c0 1.773-.993 2.964-3.17 2.964h-1.023V6.036h1.097c2.192 0 3.096.983 3.096 2.964z"></path>
</svg>
